<?xml version="1.0" encoding="UTF-8"?>
<!DOCTYPE svg PUBLIC "-//W3C//DTD SVG 1.1//EN" "http://www.w3.org/Graphics/SVG/1.1/DTD/svg11.dtd">
<!-- Creator: CorelDRAW -->
<svg xmlns="http://www.w3.org/2000/svg" xml:space="preserve" width="1200px" height="1500px" style="shape-rendering:geometricPrecision; text-rendering:geometricPrecision; image-rendering:optimizeQuality; fill-rule:evenodd; clip-rule:evenodd"
viewBox="0 0 375.3 493.114"
 xmlns:xlink="http://www.w3.org/1999/xlink">
 <defs>
  <style type="text/css">
   <![CDATA[
    .str1 {stroke:#1F1A17;stroke-width:1.3855;stroke-linecap:round;stroke-linejoin:round}
    .str4 {stroke:#974578;stroke-width:1.3855;stroke-linecap:round;stroke-linejoin:round}
    .str2 {stroke:#E77817;stroke-width:1.3855;stroke-linecap:round;stroke-linejoin:round}
    .str3 {stroke:black;stroke-width:0.55412}
    .str0 {stroke:black;stroke-width:2.21648}
    .fil1 {fill:none}
    .fil0 {fill:none;fill-rule:nonzero}
   ]]>
  </style>
 </defs>
 <g id="Layer_x0020_1">
  <metadata id="CorelCorpID_0Corel-Layer"/>
  <g id="_163273576">
   <path id="_163273888" class="fil0 str0" d="M20.7475 248.518l333.804 0c10.8782,0 19.6396,8.76106 19.6396,19.6396l0 204.208c0,10.8782 -8.76146,19.6396 -19.6396,19.6396l-333.804 0c-10.8782,0 -19.6393,-8.76146 -19.6393,-19.6396l0 -204.208c0,-10.8786 8.76106,-19.6396 19.6393,-19.6396zm0 0z"/>
   <g>
    <circle id="_163273840" class="fil1 str1" cx="30.5445" cy="465.024" r="5.89072"/>
    <circle id="_163273792" class="fil1 str1" cx="344.755" cy="465.024" r="5.89072"/>
    <circle id="_163273744" class="fil1 str1" cx="30.5445" cy="275.5" r="5.89072"/>
    <circle id="_163273696" class="fil1 str1" cx="344.755" cy="275.5" r="5.89072"/>
    <rect id="_163273624" class="fil1 str2" x="18.7809" y="264.23" width="337.734" height="212.066"/>
   </g>
  </g>
  <path class="fil0 str0" d="M20.7475 1.10824l333.804 0c10.8782,0 19.6396,8.76106 19.6396,19.6396l0 204.208c0,10.8782 -8.76146,19.6396 -19.6396,19.6396l-333.804 0c-10.8782,0 -19.6393,-8.76146 -19.6393,-19.6396l0 -204.208c0,-10.8786 8.76106,-19.6396 19.6393,-19.6396zm0 0z"/>
  <circle class="fil1 str1" cx="30.5445" cy="217.614" r="5.89072"/>
  <circle class="fil1 str1" cx="30.5445" cy="28.0901" r="5.89072"/>
  <circle class="fil1 str1" cx="344.755" cy="28.0901" r="5.89072"/>
  <path class="fil0 str3" d="M319.129 192.324l13.7442 0c2.71955,0 4.90971,2.19017 4.90971,4.90971l0 14.4896 6.97225 0c3.25285,0 5.89072,2.63786 5.89072,5.89072 0,3.25285 -2.63786,5.89072 -5.89072,5.89072l-6.97225 0 0 7.10892c0,2.71955 -2.19017,4.90971 -4.90971,4.90971l-13.7442 0c-2.71955,0 -4.90971,-2.19017 -4.90971,-4.90971l0 -33.3799c0,-2.71955 2.19017,-4.90971 4.90971,-4.90971z"/>
  <g id="_163211752">
   <circle id="_163273240" class="fil1 str1" cx="148.378" cy="83.5806" r="5.89072"/>
   <circle id="_163273192" class="fil1 str1" cx="226.921" cy="83.5806" r="5.89072"/>
   <circle id="_163273144" class="fil1 str1" cx="148.378" cy="162.123" r="5.89072"/>
   <circle id="_163273096" class="fil1 str1" cx="226.921" cy="162.123" r="5.89072"/>
   <g>
    <path id="_163273048" class="fil1 str1" d="M219.205 93.3561c3.00191,3.21044 5.52156,6.878 7.43919,10.8888l-6.70206 -6.70206c-1.1322,-1.1322 -1.37764,-2.81537 -0.737125,-4.18673z"/>
    <path id="_163273000" class="fil1 str1" d="M206.257 83.8583c3.6275,1.73501 6.975,3.9617 9.95727,6.59328 -1.36036,0.606744 -3.01173,0.352265 -4.12782,-0.763829l-5.82945 -5.82945z"/>
    <path id="_163272952" class="fil1 str1" d="M229.591 112.479c0.819595,3.32315 1.25708,6.7971 1.25708,10.3732 0,0.430415 -0.008247,0.858866 -0.0204211,1.28614l-6.08668 -6.08629c-1.44558,-1.44558 -1.44558,-3.79087 0,-5.23645 1.32305,-1.32305 3.39894,-1.43537 4.85002,-0.336556z"/>
    <path id="_163272904" class="fil1 str1" d="M222.124 104.961c1.44558,1.44597 1.44558,3.79087 0,5.23645 -1.44597,1.44597 -3.79087,1.44597 -5.23685,0l-17.4546 -17.455c-1.44597,-1.44558 -1.44597,-3.79048 0,-5.23645 1.44558,-1.44558 3.79048,-1.44558 5.23645,0l17.455 17.455z"/>
    <path id="_163272856" class="fil1 str1" d="M187.65 79.6535c3.42368,0 6.7539,0.400569 9.94785,1.1534 0.580432,1.35094 0.319277,2.97756 -0.784251,4.08069 -1.44558,1.44597 -3.79048,1.44597 -5.23606,0l-5.21368 -5.21368c0.427273,-0.0121741 0.855725,-0.0204211 1.28614,-0.0204211z"/>
    <path id="_163272808" class="fil1 str1" d="M229.575 133.292c-0.29375,1.18168 -0.633841,2.34529 -1.02224,3.48652 -0.277256,-1.20288 0.052231,-2.5173 0.988855,-3.45392l0.0333807 -0.0325953z"/>
    <path id="_163212712" class="fil1 str1" d="M226.923 125.47c1.44597,1.44597 1.44597,3.79087 0,5.23645 -1.44558,1.44597 -3.79048,1.44597 -5.23645,0l-17.455 -17.455c-1.44558,-1.44558 -1.44558,-3.79048 0,-5.23645 1.44597,-1.44558 3.79087,-1.44558 5.23645,0l17.455 17.455z"/>
    <path id="_163212664" class="fil1 str1" d="M201.614 100.161c1.44558,1.44597 1.44558,3.79087 0,5.23645 -1.44597,1.44597 -3.79087,1.44597 -5.23685,0l-17.4546 -17.4546c-1.44597,-1.44597 -1.44597,-3.79087 0,-5.23685 1.44558,-1.44558 3.79048,-1.44558 5.23645,0l17.455 17.455z"/>
    <path id="_163212616" class="fil1 str1" d="M226.822 141.078c-1.08664,2.33076 -2.37357,4.5492 -3.84153,6.63137l-13.948 -13.9484c-1.44558,-1.44558 -1.44558,-3.79048 0,-5.23645 1.44597,-1.44558 3.79087,-1.44558 5.23645,0l12.5531 12.5535z"/>
    <path id="_163212568" class="fil1 str1" d="M206.414 120.67c1.44597,1.44597 1.44597,3.79048 0,5.23645 -1.44558,1.44558 -3.79048,1.44558 -5.23645,0l-17.455 -17.4546c-1.44558,-1.44597 -1.44558,-3.79087 0,-5.23685 1.44597,-1.44558 3.79087,-1.44558 5.23645,0l17.455 17.455z"/>
    <path id="_163212520" class="fil1 str1" d="M162.793 87.5219c2.08217,-1.46797 4.30022,-2.75489 6.63098,-3.84153l11.6805 11.6805c1.44597,1.44558 1.44597,3.79048 0,5.23645 -1.44558,1.44558 -3.79048,1.44558 -5.23645,0l-13.075 -13.0754z"/>
    <path id="_163212472" class="fil1 str1" d="M220.699 150.664c-1.59324,1.89092 -3.34514,3.64321 -5.23645,5.23645l-1.63016 -1.63016c-1.44558,-1.44597 -1.44558,-3.79048 0,-5.23645 1.44597,-1.44558 3.79048,-1.44558 5.23645,0l1.63016 1.63016z"/>
    <path id="_163212424" class="fil1 str1" d="M211.214 141.18c1.44558,1.44558 1.44558,3.79048 0,5.23645 -1.44597,1.44558 -3.79087,1.44558 -5.23645,0l-17.4546 -17.4546c-1.44597,-1.44597 -1.44597,-3.79087 0,-5.23645 1.44558,-1.44597 3.79048,-1.44597 5.23645,0l17.4546 17.4546z"/>
    <path id="_163212376" class="fil1 str1" d="M185.904 115.87c1.44597,1.44597 1.44597,3.79087 0,5.23645 -1.44558,1.44597 -3.79048,1.44597 -5.23645,0l-17.4546 -17.455c-1.44597,-1.44558 -1.44597,-3.79048 0,-5.23606 1.44558,-1.44597 3.79048,-1.44597 5.23606,0l17.455 17.4546z"/>
    <path id="_163212328" class="fil1 str1" d="M154.601 95.0396c1.59324,-1.89131 3.34553,-3.64321 5.23645,-5.23645l0.757153 0.757153c1.44597,1.44597 1.44597,3.79087 0,5.23645 -1.44558,1.44597 -3.79048,1.44597 -5.23645,0l-0.757153 -0.757153z"/>
    <path id="_163212280" class="fil1 str1" d="M212.508 158.182c-2.08217,1.46797 -4.30061,2.75489 -6.63137,3.84153l-12.5535 -12.5531c-1.44558,-1.44558 -1.44558,-3.79048 0,-5.23645 1.44597,-1.44558 3.79087,-1.44558 5.23645,0l13.9484 13.948z"/>
    <path id="_163212232" class="fil1 str1" d="M190.704 136.379c1.44558,1.44597 1.44558,3.79087 0,5.23645 -1.44597,1.44597 -3.79048,1.44597 -5.23645,0l-17.455 -17.455c-1.44558,-1.44558 -1.44558,-3.79048 0,-5.23645 1.44597,-1.44558 3.79087,-1.44558 5.23685,0l17.4546 17.455z"/>
    <path id="_163212184" class="fil1 str1" d="M148.478 104.626c1.08664,-2.33076 2.37357,-4.54881 3.84153,-6.63098l13.0754 13.075c1.44558,1.44597 1.44558,3.79087 0,5.23645 -1.44597,1.44597 -3.79087,1.44597 -5.23645,0l-11.6805 -11.6805z"/>
    <path id="_163212136" class="fil1 str1" d="M201.577 163.755c-1.14123,0.388395 -2.30445,0.728485 -3.48652,1.02224l0.0325953 -0.0333807c0.936624,-0.936624 2.25104,-1.26611 3.45392,-0.988855z"/>
    <path id="_163212088" class="fil1 str1" d="M195.505 156.889c1.44597,1.44597 1.44597,3.79087 0,5.23645 -1.44558,1.44597 -3.79048,1.44597 -5.23645,0l-17.455 -17.455c-1.44558,-1.44558 -1.44558,-3.79048 0,-5.23645 1.44597,-1.44558 3.79087,-1.44558 5.23645,0l17.455 17.455z"/>
    <path id="_163212040" class="fil1 str1" d="M170.195 131.579c1.44597,1.44597 1.44597,3.79087 0,5.23685 -1.44558,1.44558 -3.79048,1.44558 -5.23645,0l-17.455 -17.455c-1.44558,-1.44597 -1.44558,-3.79087 0,-5.23645 1.44597,-1.44597 3.79087,-1.44597 5.23685,0l17.4546 17.4546z"/>
    <path id="_163211992" class="fil1 str1" d="M188.936 166.03c-0.427273,0.0121741 -0.855725,0.0204211 -1.28614,0.0204211 -3.57606,0 -7.05001,-0.437484 -10.3732,-1.25708 -1.09881,-1.45108 -0.986498,-3.52697 0.336556,-4.85002 1.44558,-1.44558 3.79087,-1.44558 5.23645,0l6.08629 6.08668z"/>
    <path id="_163211944" class="fil1 str1" d="M174.995 152.089c1.44597,1.44597 1.44597,3.79087 0,5.23685 -1.44558,1.44558 -3.79048,1.44558 -5.23645,0l-17.455 -17.455c-1.44558,-1.44597 -1.44558,-3.79087 0,-5.23645 1.44597,-1.44597 3.79087,-1.44597 5.23645,0l17.455 17.4546z"/>
    <path id="_163211896" class="fil1 str1" d="M145.605 132.8c-0.752833,-3.19395 -1.1534,-6.52416 -1.1534,-9.94785 0,-0.430415 0.008247,-0.858866 0.0204211,-1.28614l5.21368 5.21368c1.44597,1.44558 1.44597,3.79048 0,5.23606 -1.10313,1.10353 -2.72976,1.36468 -4.08069,0.784251z"/>
    <path id="_163211848" class="fil1 str1" d="M169.043 161.846c-4.0104,-1.91841 -7.67835,-4.43689 -10.8888,-7.43919 1.37136,-0.640517 3.05453,-0.395071 4.18673,0.737125l6.70206 6.70206z"/>
    <path id="_163211800" class="fil1 str1" d="M155.249 151.417c-2.63158,-2.98227 -4.85827,-6.32977 -6.59328,-9.95727l5.82945 5.82945c1.11609,1.11609 1.37057,2.76746 0.763829,4.12782z"/>
   </g>
  </g>
  <g id="_33385488">
   <g>
    <path id="_33386256" class="fil0 str4" d="M82.1071 112.08c0,2.15875 1.07918,3.23872 3.23832,3.23872l3.48141 0 -2.63943 -11.4802c-0.151588,-0.442589 -0.431986,-0.663687 -0.84198,-0.663687 -2.15914,0 -3.23832,1.07918 -3.23832,3.23832l0 5.66687zm12.1435 -5.66687c0,-2.15914 -1.07918,-3.23832 -3.23793,-3.23832l0 -2.42855c3.77791,0 5.66687,1.88856 5.66687,5.66687l0 5.66687c0,3.77791 -1.88896,5.66726 -5.66687,5.66726l-5.66726 0c-3.7783,0 -5.66687,-1.88935 -5.66687,-5.66726l0 -5.66687c0,-3.7783 1.61916,-5.66687 4.85748,-5.66687 2.35314,0 3.70251,0.819988 4.0481,2.46075l2.75214 12.0948c1.94354,-0.0966077 2.91433,-1.17068 2.91433,-3.22183l0 -5.66687z"/>
    <path id="_33386184" class="fil0 str4" d="M96.6796 128.272l0 6.47625 -2.42894 0 0 -6.47625c0,-3.7783 -1.88896,-5.66687 -5.66648,-5.66687l-8.90558 0 0 -2.42933 8.90558 0c5.39668,0 8.09541,2.69913 8.09541,8.0962z"/>
    <path id="_33386112" class="fil0 str4" d="M85.5136 96.4349c-2.15954,0 -3.23872,-1.07918 -3.23872,-3.23793l0 -9.99811 6.47704 0c3.77791,0 5.66687,1.88856 5.66687,5.66687l0 4.33125c0,2.15875 -1.07957,3.23793 -3.23872,3.23793l-5.66648 0zm11.3337 -3.23793l0 -4.33596c-0.00196357,-5.29065 -2.60409,-7.97996 -7.79499,-8.08167l0 -0.00942514 -18.2137 0 0 2.42894 9.0073 0 0 9.99811c0,3.77791 1.88935,5.66687 5.66765,5.66687l5.66648 0c3.77791,0 5.66726,-1.88896 5.66726,-5.66687z"/>
    <path id="_33386040" class="fil0 str4" d="M82.1071 148.511c0,2.15914 1.07918,3.23872 3.23832,3.23872l3.48141 0 -2.63943 -11.4806c-0.151588,-0.441804 -0.431986,-0.663295 -0.84198,-0.663295 -2.15914,0 -3.23832,1.07918 -3.23832,3.23793l0 5.66726zm12.1435 -5.66726c0,-2.15875 -1.07918,-3.23793 -3.23793,-3.23793l0 -2.42855c3.77791,0 5.66687,1.88856 5.66687,5.66648l0 5.66726c0,3.7783 -1.88896,5.66765 -5.66687,5.66765l-5.66726 0c-3.7783,0 -5.66687,-1.88935 -5.66687,-5.66765l0 -5.66726c0,-3.77791 1.61916,-5.66648 4.85748,-5.66648 2.35314,0 3.70251,0.819595 4.0481,2.46075l2.75214 12.0956c1.94354,-0.0973932 2.91433,-1.17147 2.91433,-3.22261l0 -5.66726z"/>
    <polygon id="_33385968" class="fil0 str4" points="103.966,156.607 103.966,159.036 79.6786,159.036 79.6786,156.607 "/>
    <polygon id="_33385896" class="fil0 str4" points="103.966,161.465 103.966,163.893 79.6786,163.893 79.6786,161.465 "/>
    <path id="_33385824" class="fil0 str4" d="M94.2507 171.584c0,-2.15836 -1.07918,-3.23793 -3.23793,-3.23793l-3.48141 0 2.63943 11.4794c0.151195,0.442196 0.4312,0.663687 0.84198,0.663687 2.15875,0 3.23793,-1.07918 3.23793,-3.23832l0 -5.66687zm-12.1435 5.66687c0,2.15914 1.07918,3.23832 3.23832,3.23832l0 2.42855c-3.77791,0 -5.66687,-1.88856 -5.66687,-5.66687l0 -5.66687c0,-3.7783 1.88896,-5.66687 5.66687,-5.66687l5.66726 0c3.77791,0 5.66687,1.88856 5.66687,5.66687l0 5.66687c0,3.7783 -1.61916,5.66687 -4.85709,5.66687 -2.35314,0 -3.7029,-0.819988 -4.0481,-2.46075l-2.75253 -12.0952c-1.94315,0.0977859 -2.91473,1.17186 -2.91473,3.22222l0 5.66687z"/>
    <polygon id="_33385752" class="fil0 str4" points="103.966,184.537 103.966,186.966 79.6786,186.966 79.6786,184.537 "/>
    <polygon id="_33385680" class="fil0 str4" points="103.966,189.394 103.966,191.823 79.6786,191.823 79.6786,189.394 "/>
    <path id="_33385608" class="fil0 str4" d="M82.1071 205.586c0,2.15836 1.07918,3.23832 3.23832,3.23832l3.48141 0 -2.63943 -11.4798c-0.151588,-0.442196 -0.431986,-0.66408 -0.84198,-0.66408 -2.15914,0 -3.23832,1.07957 -3.23832,3.23872l0 5.66687zm12.1435 -5.66687c0,-2.15914 -1.07918,-3.23872 -3.23793,-3.23872l0 -2.42815c3.77791,0 5.66687,1.88856 5.66687,5.66687l0 5.66687c0,3.7783 -1.88896,5.66687 -5.66687,5.66687l-5.66726 0c-3.7783,0 -5.66687,-1.88856 -5.66687,-5.66687l0 -5.66687c0,-3.7783 1.61916,-5.66687 4.85748,-5.66687 2.35314,0 3.70251,0.819595 4.0481,2.46075l2.75214 12.0944c1.94354,-0.096215 2.91433,-1.17068 2.91433,-3.22144l0 -5.66687z"/>
   </g>
   <path id="_33385512" class="fil0 str4" d="M66.0856 55.8338c0.236021,-0.411957 0.502282,-0.7277 0.780323,-0.968041 -0.278042,-0.240734 -0.544302,-0.556476 -0.780323,-0.968434l-0.00314171 0.00196357c-0.3935,-0.688428 -0.591035,-1.34701 -0.755582,-1.89563 -0.0168867,-0.0557654 0.0388787,-0.0506602 0.104462,-0.0310244l0.0875753 -0.0263119 -0.00235629 -0.00196357 -0.0773647 -0.0561582 -0.00353443 0.00471257c-0.808992,-0.588679 -2.09277,-1.52295 -1.40788,-3.85331 0.318099,-1.08075 0.894603,-1.71695 1.43655,-2.09042l0.220313 -0.618918 0.129988 -0.365224 0.264297 -0.280005 1.71498 -1.81709 0.297285 -0.314564 0.419419 -0.151195c0.00196357,-0.000785429 0.59457,-0.212066 1.08546,-0.748121 0.108782,-0.118207 0.270973,-0.375828 0.443767,-0.649942 0.695497,-1.10392 1.49781,-2.37749 3.49162,-2.99091 0.613027,-0.188503 1.08154,-0.371115 1.50527,-0.536055 0.96215,-0.37465 1.73933,-0.67704 3.18491,-0.843943 0.682145,-0.0785429 1.01202,-0.265082 1.36547,-0.465367 0.532521,-0.301605 1.09449,-0.619703 2.10416,-0.872219 0.249766,-0.0624416 0.514063,-0.133916 0.770898,-0.203426 1.55122,-0.419026 2.86799,-0.775218 5.17244,-0.406852 1.11492,0.178292 1.89995,0.383289 2.56128,0.556476 0.620096,0.161798 1.09921,0.287074 1.60542,0.287074 0.23445,0 0.424132,-0.0113887 0.63227,-0.0239556 1.5253,-0.0915024 3.71743,-0.223062 6.76843,1.40906 2.62765,1.40513 4.23385,3.00152 5.3366,4.09719 0.291001,0.289038 0.540768,0.537626 0.734376,0.703351 0.613813,0.525845 1.16165,1.15458 1.60385,1.7947 0.487751,0.7061 0.859652,1.4499 1.06308,2.11045 0.0581217,0.190074 0.0899316,0.297285 0.121741,0.404496 0.15041,0.508565 -0.0997494,0.865542 0.108782,0.969612 0.723773,0.362083 1.21624,1.01595 1.52295,1.81787 0.243483,0.637375 0.382504,1.41102 0.432771,2.16582 0.0161013,0.242697 0.0369152,0.405281 0.0561582,0.560011 0.179078,1.41495 0.327131,2.58485 -1.05169,3.32786 1.37921,0.743408 1.23077,1.9133 1.05169,3.32825 -0.019243,0.154729 -0.0400569,0.31692 -0.0561582,0.560011 -0.0502674,0.754797 -0.189288,1.52844 -0.432771,2.16543 -0.30671,0.802315 -0.799174,1.45618 -1.52295,1.81827 -0.208531,0.104069 0.0416277,0.461047 -0.108782,0.969612 -0.0318099,0.107211 -0.0636197,0.214422 -0.121741,0.404496 -0.203426,0.660546 -0.575327,1.40435 -1.06308,2.11045 -0.442196,0.640124 -0.990033,1.26847 -1.60385,1.7947 -0.193608,0.165725 -0.443375,0.413921 -0.734376,0.703351 -1.10274,1.09567 -2.70894,2.69166 -5.3366,4.09719 -3.051,1.63212 -5.24313,1.50056 -6.76843,1.40906 -0.208139,-0.0125669 -0.39782,-0.0239556 -0.63227,-0.0239556 -0.506209,0 -0.98532,0.125276 -1.60542,0.287074 -0.661331,0.172794 -1.44637,0.378184 -2.56128,0.556476 -2.30445,0.368366 -3.62122,0.0121741 -5.17244,-0.406852 -0.256835,-0.0695104 -0.521132,-0.140984 -0.770898,-0.203426 -1.00967,-0.252515 -1.57164,-0.570614 -2.10416,-0.872219 -0.353443,-0.200284 -0.683323,-0.386824 -1.36547,-0.465367 -1.44558,-0.166904 -2.22276,-0.469294 -3.18531,-0.843943 -0.423739,-0.16494 -0.892247,-0.347552 -1.50488,-0.536055 -1.99381,-0.61342 -2.79613,-1.88699 -3.49162,-2.99091 -0.172794,-0.274507 -0.334985,-0.531735 -0.443767,-0.650335 -0.490893,-0.535662 -1.0835,-0.746943 -1.08546,-0.747728l-0.419419 -0.151195 -0.297285 -0.314564 -1.71498 -1.81709 -0.264297 -0.280005 -0.129988 -0.365224 -0.220313 -0.619311c-0.541946,-0.373079 -1.11845,-1.00928 -1.43655,-2.09003 -0.685287,-2.33076 0.599282,-3.26503 1.40788,-3.85331 0.0950369,-0.0691177 -0.0180649,0.0278827 0.0808992,-0.0514456l0.00235629 -0.00196357 -0.0875753 -0.0263119c-0.0655833,0.019243 -0.121349,0.024741 -0.104462,-0.0310244 0.164547,-0.548622 0.362083,-1.2072 0.755582,-1.89563l0.00314171 0.00196357zm2.75371 -4.87673c0.090717,0.302783 0.197143,0.657011 0.340876,0.958223l0.59457 0.0157086c0.549015,-0.303175 1.37489,-0.621667 2.55304,-0.763044 1.65647,-0.198713 2.75725,0.132737 3.32708,0.390751l1.14005 0.316135c0.785821,-0.111924 2.59034,-0.357763 3.30587,-0.357763 0.779931,0 1.89288,0.260762 2.39909,0.390751l1.47818 0c0.381326,-0.0926806 1.12395,-0.263904 1.80963,-0.369152 0.872611,-0.134308 1.53865,-0.0286681 1.96632,0.0966077l1.52648 0.264297c0.633448,-0.0404496 2.46664,-0.134701 3.6436,0.0294536 0.253693,0.035737 0.700602,-0.102106 1.19307,-0.254086 0.730056,-0.225418 1.52138,-0.469686 2.54715,-0.514063 1.42202,-0.0616562 2.40655,0.13745 3.28348,0.314564 0.234058,0.0475184 0.45712,0.0926806 0.75951,0.135879 0.874182,0.124883 3.21594,0.305924 3.54543,0.331058 0.369544,-0.00942514 1.47818,-0.0435913 2.27971,-0.126061 -0.0263119,-0.213244 -0.0510529,-0.424917 -0.0620489,-0.594962 -0.0278827,-0.418241 -0.0938587,-0.818024 -0.203426,-1.10471 -0.000392714,-0.000392714 0,-0.000392714 0.000392714,-0.000392714l0.008247 -0.00314171c-1.01909,-0.664473 -1.39021,-1.91959 -1.72637,-3.0565 -0.0455549,-0.154337 -0.0903243,-0.304354 -0.107604,-0.36169 -0.0973932,-0.316528 -0.298463,-0.705708 -0.575719,-1.10706 -0.271758,-0.393107 -0.604387,-0.776004 -0.973146,-1.09214 -0.288645,-0.24741 -0.587108,-0.543909 -0.935053,-0.889498 -0.951154,-0.945263 -2.33665,-2.32212 -4.47616,-3.46649 -2.13283,-1.14084 -3.7249,-1.04541 -4.83274,-0.978644 -0.333022,0.0196357 -0.635805,0.0380933 -0.847478,0.0380933 -0.93034,0 -1.62466,-0.181434 -2.52319,-0.416277 -0.58593,-0.153159 -1.28182,-0.334985 -2.21727,-0.48461 -1.51588,-0.242305 -2.49688,0.0227774 -3.65224,0.334985 -0.256835,0.0695104 -0.521525,0.140984 -0.828235,0.217956 -0.545873,0.136272 -0.874968,0.322811 -1.18678,0.49914 -0.696283,0.394285 -1.34505,0.761866 -2.75607,0.92445 -0.999458,0.115458 -1.57243,0.33852 -2.28167,0.614598 -0.488144,0.189681 -1.02773,0.399783 -1.74915,0.621667 -0.696283,0.214422 -1.11099,0.872611 -1.46993,1.44283 -0.254479,0.403318 -0.492857,0.781894 -0.845121,1.16636 -0.713169,0.777574 -1.56183,1.26729 -2.07746,1.51784l-1.20406 1.27593 -0.335771 0.942907 -0.388395 1.09214 -0.593784 0.0612634c0.0310244,0.0235629 0.0644052,0.049482 0.104069,0.0808992 0.636197,0.509351 0.816846,1.11217 1.04305,1.86579zm-3.40798 1.01556c0.114673,0.0337734 0.258013,0.110353 0.0875753,-0.0263119l-0.0875753 0.0263119zm2.06725 -2.91983l0.0172794 -0.0239556 -0.00510529 0.000392714 -0.0168867 0.0231701 0.00471257 0.000392714zm0.0172794 -0.0239556l-0.0172794 0.0239556c0.0278827,0.00314171 0.0447694,0.00903243 0.0416277,0.019243 -0.0255264,0.0863972 -0.005498,0.0215993 0.0153159,-0.0471257l-0.0396642 0.00392714zm-0.0903243 0.00942514l0.0424132 0.0121741c0.00942514,0.000392714 0.0180649,0.00117814 0.0259191,0.00196357l0.0168867 -0.0231701 -0.085219 0.00903243zm-0.287467 0.0294536c0.032988,-0.00314171 0.223062,-0.0215993 0.32988,-0.0172794l-0.0424132 -0.0121741 -0.287467 0.0294536zm39.1827 1.07447c-0.0153159,-0.00942514 -0.030239,-0.019243 -0.0451622,-0.0290609l-0.008247 0.00314171c0.00314171,0.000392714 0.0239556,0.0106033 0.0534092,0.0259191zm-37.1406 7.67364c-0.143733,0.301212 -0.250159,0.655048 -0.340876,0.958223 -0.226203,0.753619 -0.406852,1.35644 -1.04305,1.86579l-0.101713 0.0808992 0.591428 0.0612634 0.388395 1.09214 0.335771 0.942907 1.20406 1.27593c0.515634,0.250552 1.36429,0.740267 2.07746,1.51784 0.352265,0.384467 0.590642,0.763044 0.845121,1.16636 0.358941,0.570221 0.773647,1.22841 1.46993,1.44283 0.721024,0.221884 1.26061,0.431593 1.74876,0.621667 0.709242,0.276078 1.28221,0.49914 2.28206,0.614598 1.41102,0.162584 2.05979,0.530164 2.75607,0.924057 0.311815,0.176721 0.64091,0.363261 1.18678,0.499533 0.30671,0.076972 0.571399,0.148446 0.828235,0.217564 1.15537,0.312601 2.13637,0.577683 3.65224,0.335378 0.935446,-0.149624 1.63134,-0.331451 2.21727,-0.48461 0.89853,-0.234843 1.59285,-0.416277 2.52319,-0.416277 0.211673,0 0.514456,0.0180649 0.847478,0.0380933 1.10785,0.0663687 2.69991,0.162191 4.83274,-0.978644 2.13951,-1.14437 3.525,-2.52123 4.47616,-3.46649 0.347945,-0.345589 0.646408,-0.642088 0.935053,-0.889891 0.368759,-0.315742 0.701388,-0.698639 0.973146,-1.09175 0.277256,-0.401354 0.478326,-0.790927 0.575719,-1.10706 0.0172794,-0.0573363 0.0620489,-0.207746 0.107604,-0.36169 0.336163,-1.13691 0.707279,-2.39202 1.72637,-3.0565l-0.008247 -0.00314171c-0.000392714,0 -0.000785429,0 -0.000392714,-0.000392714 0.109567,-0.286681 0.175543,-0.686465 0.203426,-1.10471 0.010996,-0.170045 0.035737,-0.381718 0.0620489,-0.595355 -0.80153,-0.0820773 -1.91016,-0.116243 -2.27971,-0.126061 -0.329487,0.0255264 -2.67124,0.206568 -3.54543,0.331451 -0.30239,0.0431986 -0.525452,0.0883607 -0.75951,0.135879 -0.876931,0.177114 -1.86147,0.37622 -3.28348,0.314564 -1.02577,-0.0443767 -1.81709,-0.288645 -2.54754,-0.514063 -0.492464,-0.15198 -0.939373,-0.289823 -1.19267,-0.254479 -1.17696,0.164547 -3.01055,0.0699032 -3.644,0.0298463l-1.5257 0.264297c-0.427666,0.125276 -1.09371,0.230916 -1.96671,0.0970004 -0.685679,-0.10564 -1.4283,-0.276864 -1.81002,-0.369544l-1.47778 0c-0.505423,0.129988 -1.61877,0.390751 -2.39909,0.390751 -0.715918,0 -2.52044,-0.245839 -3.30587,-0.357763l-1.14005 0.316135c-0.569829,0.258013 -1.67061,0.589464 -3.32708,0.390751 -1.17814,-0.141377 -2.00402,-0.459869 -2.55304,-0.763044l-0.59457 0.0157086zm-3.66128 -0.0310244c0.170438,-0.137057 0.0270973,-0.0600853 -0.0875753,-0.0263119l0.0875753 0.0263119zm1.99224 2.91708l-0.0168867 -0.0231701c-0.00785429,0.000785429 -0.0168867,0.00117814 -0.0263119,0.00157086l-0.0424132 0.0125669 0.0856117 0.00903243zm0.0443767 0.00431986c-0.0208139,-0.068725 -0.0408423,-0.133916 -0.0153159,-0.0471257 0.00314171,0.0106033 -0.0153159,0.016494 -0.0459476,0.0196357l0.0168867 0.0231701 0.0443767 0.00431986zm-0.0875753 -0.0259191c-0.106818,0.00471257 -0.296892,-0.013745 -0.32988,-0.0172794l0.287467 0.0298463 0.0424132 -0.0125669zm38.8076 -1.06229c0.0149231,-0.00981786 0.0298463,-0.0196357 0.0451622,-0.0290609 -0.0294536,0.0153159 -0.0502674,0.0255264 -0.0534092,0.0259191l0.008247 0.00314171z"/>
  </g>
 </g>
</svg>
