  0
SECTION
  2
HEADER
  9
$ACADVER
  1
AC1021
  9
$ACADMAINTVER
 70
    25
  9
$DWGCODEPAGE
  3
ANSI_1252
  9
$INSBASE
 10
0.0
 20
0.0
 30
0.0
  9
$EXTMIN
 10
-15.27828
 20
-0.27828
 30
0.0
  9
$EXTMAX
 10
-5.72172
 20
12.27828
 30
0.0
  9
$LIMMIN
 10
0.0
 20
0.0
  9
$LIMMAX
 10
12.0
 20
9.0
  9
$ORTHOMODE
 70
     0
  9
$REGENMODE
 70
     1
  9
$FILLMODE
 70
     1
  9
$QTEXTMODE
 70
     0
  9
$MIRRTEXT
 70
     1
  9
$LTSCALE
 40
1.0
  9
$ATTMODE
 70
     1
  9
$TEXTSIZE
 40
0.2
  9
$TRACEWID
 40
0.05
  9
$TEXTSTYLE
  7
Standard
  9
$CLAYER
  8
0
  9
$CELTYPE
  6
ByLayer
  9
$CECOLOR
 62
   256
  9
$CELTSCALE
 40
1.0
  9
$DISPSILH
 70
     0
  9
$DIMSCALE
 40
1.0
  9
$DIMASZ
 40
0.18
  9
$DIMEXO
 40
0.0625
  9
$DIMDLI
 40
0.38
  9
$DIMRND
 40
0.0
  9
$DIMDLE
 40
0.0
  9
$DIMEXE
 40
0.18
  9
$DIMTP
 40
0.0
  9
$DIMTM
 40
0.0
  9
$DIMTXT
 40
0.18
  9
$DIMCEN
 40
0.09
  9
$DIMTSZ
 40
0.0
  9
$DIMTOL
 70
     0
  9
$DIMLIM
 70
     0
  9
$DIMTIH
 70
     1
  9
$DIMTOH
 70
     1
  9
$DIMSE1
 70
     0
  9
$DIMSE2
 70
     0
  9
$DIMTAD
 70
     0
  9
$DIMZIN
 70
     0
  9
$DIMBLK
  1

  9
$DIMASO
 70
     1
  9
$DIMSHO
 70
     1
  9
$DIMPOST
  1

  9
$DIMAPOST
  1

  9
$DIMALT
 70
     0
  9
$DIMALTD
 70
     2
  9
$DIMALTF
 40
25.4
  9
$DIMLFAC
 40
1.0
  9
$DIMTOFL
 70
     0
  9
$DIMTVP
 40
0.0
  9
$DIMTIX
 70
     0
  9
$DIMSOXD
 70
     0
  9
$DIMSAH
 70
     0
  9
$DIMBLK1
  1

  9
$DIMBLK2
  1

  9
$DIMSTYLE
  2
Standard
  9
$DIMCLRD
 70
     0
  9
$DIMCLRE
 70
     0
  9
$DIMCLRT
 70
     0
  9
$DIMTFAC
 40
1.0
  9
$DIMGAP
 40
0.09
  9
$DIMJUST
 70
     0
  9
$DIMSD1
 70
     0
  9
$DIMSD2
 70
     0
  9
$DIMTOLJ
 70
     1
  9
$DIMTZIN
 70
     0
  9
$DIMALTZ
 70
     0
  9
$DIMALTTZ
 70
     0
  9
$DIMUPT
 70
     0
  9
$DIMDEC
 70
     4
  9
$DIMTDEC
 70
     4
  9
$DIMALTU
 70
     2
  9
$DIMALTTD
 70
     2
  9
$DIMTXSTY
  7
Standard
  9
$DIMAUNIT
 70
     0
  9
$DIMADEC
 70
     0
  9
$DIMALTRND
 40
0.0
  9
$DIMAZIN
 70
     0
  9
$DIMDSEP
 70
    46
  9
$DIMATFIT
 70
     3
  9
$DIMFRAC
 70
     0
  9
$DIMLDRBLK
  1

  9
$DIMLUNIT
 70
     2
  9
$DIMLWD
 70
    -2
  9
$DIMLWE
 70
    -2
  9
$DIMTMOVE
 70
     0
  9
$DIMFXL
 40
1.0
  9
$DIMFXLON
 70
     0
  9
$DIMJOGANG
 40
0.7853981633974483
  9
$DIMTFILL
 70
     0
  9
$DIMTFILLCLR
 70
     0
  9
$DIMARCSYM
 70
     0
  9
$DIMLTYPE
  6

  9
$DIMLTEX1
  6

  9
$DIMLTEX2
  6

  9
$LUNITS
 70
     2
  9
$LUPREC
 70
     4
  9
$SKETCHINC
 40
0.1
  9
$FILLETRAD
 40
0.5
  9
$AUNITS
 70
     0
  9
$AUPREC
 70
     0
  9
$MENU
  1
.
  9
$ELEVATION
 40
0.0
  9
$PELEVATION
 40
0.0
  9
$THICKNESS
 40
0.0
  9
$LIMCHECK
 70
     0
  9
$CHAMFERA
 40
0.5
  9
$CHAMFERB
 40
0.5
  9
$CHAMFERC
 40
1.0
  9
$CHAMFERD
 40
0.0
  9
$SKPOLY
 70
     0
  9
$TDCREATE
 40
2456686.711986736
  9
$TDUCREATE
 40
2456686.711986736
  9
$TDUPDATE
 40
2456686.711986748
  9
$TDUUPDATE
 40
2456686.711986748
  9
$TDINDWG
 40
0.0000000116
  9
$TDUSRTIMER
 40
0.0000000116
  9
$USRTIMER
 70
     1
  9
$ANGBASE
 50
0.0
  9
$ANGDIR
 70
     0
  9
$PDMODE
 70
     0
  9
$PDSIZE
 40
0.0
  9
$PLINEWID
 40
0.0
  9
$SPLFRAME
 70
     0
  9
$SPLINETYPE
 70
     6
  9
$SPLINESEGS
 70
     8
  9
$HANDSEED
  5
A7
  9
$SURFTAB1
 70
     6
  9
$SURFTAB2
 70
     6
  9
$SURFTYPE
 70
     6
  9
$SURFU
 70
     6
  9
$SURFV
 70
     6
  9
$UCSBASE
  2

  9
$UCSNAME
  2

  9
$UCSORG
 10
0.0
 20
0.0
 30
0.0
  9
$UCSXDIR
 10
1.0
 20
0.0
 30
0.0
  9
$UCSYDIR
 10
0.0
 20
1.0
 30
0.0
  9
$UCSORTHOREF
  2

  9
$UCSORTHOVIEW
 70
     0
  9
$UCSORGTOP
 10
0.0
 20
0.0
 30
0.0
  9
$UCSORGBOTTOM
 10
0.0
 20
0.0
 30
0.0
  9
$UCSORGLEFT
 10
0.0
 20
0.0
 30
0.0
  9
$UCSORGRIGHT
 10
0.0
 20
0.0
 30
0.0
  9
$UCSORGFRONT
 10
0.0
 20
0.0
 30
0.0
  9
$UCSORGBACK
 10
0.0
 20
0.0
 30
0.0
  9
$PUCSBASE
  2

  9
$PUCSNAME
  2

  9
$PUCSORG
 10
0.0
 20
0.0
 30
0.0
  9
$PUCSXDIR
 10
1.0
 20
0.0
 30
0.0
  9
$PUCSYDIR
 10
0.0
 20
1.0
 30
0.0
  9
$PUCSORTHOREF
  2

  9
$PUCSORTHOVIEW
 70
     0
  9
$PUCSORGTOP
 10
0.0
 20
0.0
 30
0.0
  9
$PUCSORGBOTTOM
 10
0.0
 20
0.0
 30
0.0
  9
$PUCSORGLEFT
 10
0.0
 20
0.0
 30
0.0
  9
$PUCSORGRIGHT
 10
0.0
 20
0.0
 30
0.0
  9
$PUCSORGFRONT
 10
0.0
 20
0.0
 30
0.0
  9
$PUCSORGBACK
 10
0.0
 20
0.0
 30
0.0
  9
$USERI1
 70
     0
  9
$USERI2
 70
     0
  9
$USERI3
 70
     0
  9
$USERI4
 70
     0
  9
$USERI5
 70
     0
  9
$USERR1
 40
0.0
  9
$USERR2
 40
0.0
  9
$USERR3
 40
0.0
  9
$USERR4
 40
0.0
  9
$USERR5
 40
0.0
  9
$WORLDVIEW
 70
     1
  9
$SHADEDGE
 70
     3
  9
$SHADEDIF
 70
    70
  9
$TILEMODE
 70
     1
  9
$MAXACTVP
 70
    64
  9
$PINSBASE
 10
0.0
 20
0.0
 30
0.0
  9
$PLIMCHECK
 70
     0
  9
$PEXTMIN
 10
1.000000000000000E+20
 20
1.000000000000000E+20
 30
1.000000000000000E+20
  9
$PEXTMAX
 10
-1.000000000000000E+20
 20
-1.000000000000000E+20
 30
-1.000000000000000E+20
  9
$PLIMMIN
 10
0.0
 20
0.0
  9
$PLIMMAX
 10
12.0
 20
9.0
  9
$UNITMODE
 70
     0
  9
$VISRETAIN
 70
     1
  9
$PLINEGEN
 70
     0
  9
$PSLTSCALE
 70
     1
  9
$TREEDEPTH
 70
  3020
  9
$CMLSTYLE
  2
Standard
  9
$CMLJUST
 70
     0
  9
$CMLSCALE
 40
1.0
  9
$PROXYGRAPHICS
 70
     1
  9
$MEASUREMENT
 70
     0
  9
$CELWEIGHT
370
    -1
  9
$ENDCAPS
280
     0
  9
$JOINSTYLE
280
     0
  9
$LWDISPLAY
290
     0
  9
$INSUNITS
 70
     5
  9
$HYPERLINKBASE
  1

  9
$STYLESHEET
  1

  9
$XEDIT
290
     1
  9
$CEPSNTYPE
380
     0
  9
$PSTYLEMODE
290
     1
  9
$FINGERPRINTGUID
  2
{8375B652-6DBB-472C-BB0B-815CFAECD616}
  9
$VERSIONGUID
  2
{FAEB1C32-E019-11D5-929B-00C0DF256EC4}
  9
$EXTNAMES
290
     1
  9
$PSVPSCALE
 40
0.0
  9
$OLESTARTUP
290
     0
  9
$SORTENTS
280
   127
  9
$INDEXCTL
280
     0
  9
$HIDETEXT
280
     1
  9
$XCLIPFRAME
290
     0
  9
$HALOGAP
280
     0
  9
$OBSCOLOR
 70
   257
  9
$OBSLTYPE
280
     0
  9
$INTERSECTIONDISPLAY
280
     0
  9
$INTERSECTIONCOLOR
 70
   257
  9
$DIMASSOC
280
     2
  9
$PROJECTNAME
  1

  9
$CAMERADISPLAY
290
     0
  9
$LENSLENGTH
 40
50.0
  9
$CAMERAHEIGHT
 40
0.0
  9
$STEPSPERSEC
 40
2.0
  9
$STEPSIZE
 40
6.0
  9
$3DDWFPREC
 40
2.0
  9
$PSOLWIDTH
 40
0.25
  9
$PSOLHEIGHT
 40
4.0
  9
$LOFTANG1
 40
1.570796326794897
  9
$LOFTANG2
 40
1.570796326794897
  9
$LOFTMAG1
 40
0.0
  9
$LOFTMAG2
 40
0.0
  9
$LOFTPARAM
 70
     7
  9
$LOFTNORMALS
280
     1
  9
$LATITUDE
 40
37.795
  9
$LONGITUDE
 40
-122.394
  9
$NORTHDIRECTION
 40
0.0
  9
$TIMEZONE
 70
 -8000
  9
$LIGHTGLYPHDISPLAY
280
     1
  9
$TILEMODELIGHTSYNCH
280
     1
  9
$SOLIDHIST
280
     1
  9
$SHOWHIST
280
     1
  9
$DWFFRAME
280
     2
  9
$DGNFRAME
280
     2
  9
$REALWORLDSCALE
290
     1
  9
$INTERFERECOLOR
 62
   256
  9
$CSHADOW
280
     0
  9
$SHADOWPLANELOCATION
 40
0.0
  0
ENDSEC
  0
SECTION
  2
CLASSES
  0
CLASS
  1
ACDBDICTIONARYWDFLT
  2
AcDbDictionaryWithDefault
  3
ObjectDBX Classes
 90
        0
 91
        3
280
     0
281
     0
  0
CLASS
  1
VISUALSTYLE
  2
AcDbVisualStyle
  3
ObjectDBX Classes
 90
     4095
 91
        3
280
     0
281
     0
  0
CLASS
  1
SCALE
  2
AcDbScale
  3
ObjectDBX Classes
 90
     1153
 91
        3
280
     0
281
     0
  0
ENDSEC
  0
SECTION
  2
TABLES
  0
TABLE
  2
VPORT
  5
8
330
0
100
AcDbSymbolTable
 70
     1
  0
VPORT
  5
29
330
8
100
AcDbSymbolTableRecord
100
AcDbViewportTableRecord
  2
*Active
 70
     0
 10
0.0
 20
0.0
 11
1.0
 21
1.0
 12
10.42990654205607
 22
4.5
 13
0.0
 23
0.0
 14
0.5
 24
0.5
 15
0.5
 25
0.5
 16
0.0
 26
0.0
 36
1.0
 17
0.0
 27
0.0
 37
0.0
 40
9.0
 41
1.972972972850329
 42
50.0
 43
0.0
 44
0.0
 50
0.0
 51
0.0
 71
     0
 72
   100
 73
     1
 74
     3
 75
     0
 76
     0
 77
     0
 78
     0
281
     0
 65
     1
110
0.0
120
0.0
130
0.0
111
1.0
121
0.0
131
0.0
112
0.0
122
1.0
132
0.0
 79
     0
146
0.0
 60
     3
 61
     5
292
     1
282
     1
141
0.0
142
0.0
 63
   256
  0
ENDTAB
  0
TABLE
  2
LTYPE
  5
5
330
0
100
AcDbSymbolTable
 70
     1
  0
LTYPE
  5
14
330
5
100
AcDbSymbolTableRecord
100
AcDbLinetypeTableRecord
  2
ByBlock
 70
     0
  3

 72
    65
 73
     0
 40
0.0
  0
LTYPE
  5
15
330
5
100
AcDbSymbolTableRecord
100
AcDbLinetypeTableRecord
  2
ByLayer
 70
     0
  3

 72
    65
 73
     0
 40
0.0
  0
LTYPE
  5
16
330
5
100
AcDbSymbolTableRecord
100
AcDbLinetypeTableRecord
  2
Continuous
 70
     0
  3
Solid line
 72
    65
 73
     0
 40
0.0
  0
ENDTAB
  0
TABLE
  2
LAYER
  5
2
330
0
100
AcDbSymbolTable
 70
     2
  0
LAYER
  5
10
330
2
100
AcDbSymbolTableRecord
100
AcDbLayerTableRecord
  2
0
 70
     0
 62
     7
  6
Continuous
370
    -3
390
F
347
0
  0
LAYER
  5
5E
330
2
100
AcDbSymbolTableRecord
100
AcDbLayerTableRecord
  2
Layer 1
 70
     0
 62
     7
  6
Continuous
370
    -3
390
F
347
0
  0
ENDTAB
  0
TABLE
  2
STYLE
  5
3
330
0
100
AcDbSymbolTable
 70
     1
  0
STYLE
  5
11
330
3
100
AcDbSymbolTableRecord
100
AcDbTextStyleTableRecord
  2
Standard
 70
     0
 40
0.0
 41
1.0
 50
0.0
 71
     0
 42
0.2
  3
txt
  4

  0
ENDTAB
  0
TABLE
  2
VIEW
  5
6
330
0
100
AcDbSymbolTable
 70
     0
  0
ENDTAB
  0
TABLE
  2
UCS
  5
7
330
0
100
AcDbSymbolTable
 70
     0
  0
ENDTAB
  0
TABLE
  2
APPID
  5
9
330
0
100
AcDbSymbolTable
 70
     2
  0
APPID
  5
12
330
9
100
AcDbSymbolTableRecord
100
AcDbRegAppTableRecord
  2
ACAD
 70
     0
  0
APPID
  5
5D
330
9
100
AcDbSymbolTableRecord
100
AcDbRegAppTableRecord
  2
ODA
 70
     0
  0
ENDTAB
  0
TABLE
  2
DIMSTYLE
  5
A
330
0
100
AcDbSymbolTable
 70
     1
100
AcDbDimStyleTable
  0
DIMSTYLE
105
27
330
A
100
AcDbSymbolTableRecord
100
AcDbDimStyleTableRecord
  2
Standard
 70
     0
340
11
  0
ENDTAB
  0
TABLE
  2
BLOCK_RECORD
  5
1
330
0
100
AcDbSymbolTable
 70
     1
  0
BLOCK_RECORD
  5
1F
330
1
100
AcDbSymbolTableRecord
100
AcDbBlockTableRecord
  2
*Model_Space
340
22
 70
     0
280
     1
281
     0
  0
BLOCK_RECORD
  5
1B
330
1
100
AcDbSymbolTableRecord
100
AcDbBlockTableRecord
  2
*Paper_Space
340
1E
 70
     0
280
     1
281
     0
  0
BLOCK_RECORD
  5
23
330
1
100
AcDbSymbolTableRecord
100
AcDbBlockTableRecord
  2
*Paper_Space0
340
26
 70
     0
280
     1
281
     0
  0
ENDTAB
  0
ENDSEC
  0
SECTION
  2
BLOCKS
  0
BLOCK
  5
20
330
1F
100
AcDbEntity
  8
0
100
AcDbBlockBegin
  2
*Model_Space
 70
     0
 10
0.0
 20
0.0
 30
0.0
  3
*Model_Space
  1

  0
ENDBLK
  5
21
330
1F
100
AcDbEntity
  8
0
100
AcDbBlockEnd
  0
BLOCK
  5
1C
330
1B
100
AcDbEntity
 67
     1
  8
0
100
AcDbBlockBegin
  2
*Paper_Space
 70
     0
 10
0.0
 20
0.0
 30
0.0
  3
*Paper_Space
  1

  0
ENDBLK
  5
1D
330
1B
100
AcDbEntity
 67
     1
  8
0
100
AcDbBlockEnd
  0
BLOCK
  5
24
330
23
100
AcDbEntity
  8
0
100
AcDbBlockBegin
  2
*Paper_Space0
 70
     0
 10
0.0
 20
0.0
 30
0.0
  3
*Paper_Space0
  1

  0
ENDBLK
  5
25
330
23
100
AcDbEntity
  8
0
100
AcDbBlockEnd
  0
ENDSEC
  0
SECTION
  2
ENTITIES
  0
SPLINE
  5
5F
330
1F
100
AcDbEntity
  8
Layer 1
370
    53
100
AcDbSpline
210
0.0
220
0.0
230
1.0
 70
    11
 71
     3
 72
    36
 73
    32
 74
     0
 42
0.0000000001
 43
0.0000000001
 40
0.0
 40
0.0
 40
0.0
 40
0.0
 40
0.125
 40
0.125
 40
0.125
 40
0.125
 40
0.25
 40
0.25
 40
0.25
 40
0.25
 40
0.375
 40
0.375
 40
0.375
 40
0.375
 40
0.5
 40
0.5
 40
0.5
 40
0.5
 40
0.625
 40
0.625
 40
0.625
 40
0.625
 40
0.75
 40
0.75
 40
0.75
 40
0.75
 40
0.875
 40
0.875
 40
0.875
 40
0.875
 40
1.0
 40
1.0
 40
1.0
 40
1.0
 10
-14.74997
 20
5.95006
 30
0.0
 10
-14.74997
 20
5.95006
 30
0.0
 10
-6.25004
 20
5.95006
 30
0.0
 10
-6.25004
 20
5.95006
 30
0.0
 10
-6.25004
 20
5.95006
 30
0.0
 10
-5.97304
 20
5.95006
 30
0.0
 10
-5.74994
 20
5.72697
 30
0.0
 10
-5.74994
 20
5.44996
 30
0.0
 10
-5.74994
 20
5.44996
 30
0.0
 10
-5.74994
 20
5.44996
 30
0.0
 10
-5.74994
 20
0.25004
 30
0.0
 10
-5.74994
 20
0.25004
 30
0.0
 10
-5.74994
 20
0.25004
 30
0.0
 10
-5.74994
 20
-0.02696
 30
0.0
 10
-5.97304
 20
-0.25006
 30
0.0
 10
-6.25004
 20
-0.25006
 30
0.0
 10
-6.25004
 20
-0.25006
 30
0.0
 10
-6.25004
 20
-0.25006
 30
0.0
 10
-14.74997
 20
-0.25006
 30
0.0
 10
-14.74997
 20
-0.25006
 30
0.0
 10
-14.74997
 20
-0.25006
 30
0.0
 10
-15.02697
 20
-0.25006
 30
0.0
 10
-15.25006
 20
-0.02696
 30
0.0
 10
-15.25006
 20
0.25004
 30
0.0
 10
-15.25006
 20
0.25004
 30
0.0
 10
-15.25006
 20
0.25004
 30
0.0
 10
-15.25006
 20
5.44996
 30
0.0
 10
-15.25006
 20
5.44996
 30
0.0
 10
-15.25006
 20
5.44996
 30
0.0
 10
-15.25006
 20
5.72697
 30
0.0
 10
-15.02697
 20
5.95006
 30
0.0
 10
-14.74997
 20
5.95006
 30
0.0
  0
ELLIPSE
  5
60
330
1F
100
AcDbEntity
  8
Layer 1
 62
   250
370
    35
100
AcDbEllipse
 10
-14.5005
 20
0.437
 30
0.0
 11
0.0
 21
0.15
 31
0.0
210
0.0
220
0.0
230
1.0
 40
1.0
 41
0.0
 42
6.283185307179586
  0
ELLIPSE
  5
61
330
1F
100
AcDbEntity
  8
Layer 1
 62
   250
370
    35
100
AcDbEllipse
 10
-6.4995
 20
0.437
 30
0.0
 11
0.0
 21
0.15
 31
0.0
210
0.0
220
0.0
230
1.0
 40
1.0
 41
0.0
 42
6.283185307179586
  0
ELLIPSE
  5
62
330
1F
100
AcDbEntity
  8
Layer 1
 62
   250
370
    35
100
AcDbEllipse
 10
-14.5005
 20
5.263
 30
0.0
 11
0.0
 21
0.15
 31
0.0
210
0.0
220
0.0
230
1.0
 40
1.0
 41
0.0
 42
6.283185307179586
  0
ELLIPSE
  5
63
330
1F
100
AcDbEntity
  8
Layer 1
 62
   250
370
    35
100
AcDbEllipse
 10
-6.4995
 20
5.263
 30
0.0
 11
0.0
 21
0.15
 31
0.0
210
0.0
220
0.0
230
1.0
 40
1.0
 41
0.0
 42
6.283185307179586
  0
LWPOLYLINE
  5
64
330
1F
100
AcDbEntity
  8
Layer 1
 62
    30
370
    35
100
AcDbPolyline
 90
        5
 70
     1
 43
0.0
 10
-14.80005
 20
0.14997
 10
-6.20005
 20
0.14997
 10
-6.20005
 20
5.54997
 10
-14.80005
 20
5.54997
 10
-14.80005
 20
0.14997
  0
SPLINE
  5
65
330
1F
100
AcDbEntity
  8
Layer 1
370
    53
100
AcDbSpline
210
0.0
220
0.0
230
1.0
 70
    11
 71
     3
 72
    36
 73
    32
 74
     0
 42
0.0000000001
 43
0.0000000001
 40
0.0
 40
0.0
 40
0.0
 40
0.0
 40
0.125
 40
0.125
 40
0.125
 40
0.125
 40
0.25
 40
0.25
 40
0.25
 40
0.25
 40
0.375
 40
0.375
 40
0.375
 40
0.375
 40
0.5
 40
0.5
 40
0.5
 40
0.5
 40
0.625
 40
0.625
 40
0.625
 40
0.625
 40
0.75
 40
0.75
 40
0.75
 40
0.75
 40
0.875
 40
0.875
 40
0.875
 40
0.875
 40
1.0
 40
1.0
 40
1.0
 40
1.0
 10
-14.74997
 20
12.25006
 30
0.0
 10
-14.74997
 20
12.25006
 30
0.0
 10
-6.25004
 20
12.25006
 30
0.0
 10
-6.25004
 20
12.25006
 30
0.0
 10
-6.25004
 20
12.25006
 30
0.0
 10
-5.97304
 20
12.25006
 30
0.0
 10
-5.74994
 20
12.02697
 30
0.0
 10
-5.74994
 20
11.74996
 30
0.0
 10
-5.74994
 20
11.74996
 30
0.0
 10
-5.74994
 20
11.74996
 30
0.0
 10
-5.74994
 20
6.55004
 30
0.0
 10
-5.74994
 20
6.55004
 30
0.0
 10
-5.74994
 20
6.55004
 30
0.0
 10
-5.74994
 20
6.27304
 30
0.0
 10
-5.97304
 20
6.04994
 30
0.0
 10
-6.25004
 20
6.04994
 30
0.0
 10
-6.25004
 20
6.04994
 30
0.0
 10
-6.25004
 20
6.04994
 30
0.0
 10
-14.74997
 20
6.04994
 30
0.0
 10
-14.74997
 20
6.04994
 30
0.0
 10
-14.74997
 20
6.04994
 30
0.0
 10
-15.02697
 20
6.04994
 30
0.0
 10
-15.25006
 20
6.27304
 30
0.0
 10
-15.25006
 20
6.55004
 30
0.0
 10
-15.25006
 20
6.55004
 30
0.0
 10
-15.25006
 20
6.55004
 30
0.0
 10
-15.25006
 20
11.74996
 30
0.0
 10
-15.25006
 20
11.74996
 30
0.0
 10
-15.25006
 20
11.74996
 30
0.0
 10
-15.25006
 20
12.02697
 30
0.0
 10
-15.02697
 20
12.25006
 30
0.0
 10
-14.74997
 20
12.25006
 30
0.0
  0
ELLIPSE
  5
66
330
1F
100
AcDbEntity
  8
Layer 1
 62
   250
370
    35
100
AcDbEllipse
 10
-14.5005
 20
6.737
 30
0.0
 11
0.0
 21
0.15
 31
0.0
210
0.0
220
0.0
230
1.0
 40
1.0
 41
0.0
 42
6.283185307179586
  0
ELLIPSE
  5
67
330
1F
100
AcDbEntity
  8
Layer 1
 62
   250
370
    35
100
AcDbEllipse
 10
-14.5005
 20
11.563
 30
0.0
 11
0.0
 21
0.15
 31
0.0
210
0.0
220
0.0
230
1.0
 40
1.0
 41
0.0
 42
6.283185307179586
  0
ELLIPSE
  5
68
330
1F
100
AcDbEntity
  8
Layer 1
 62
   250
370
    35
100
AcDbEllipse
 10
-6.4995
 20
11.563
 30
0.0
 11
0.0
 21
0.15
 31
0.0
210
0.0
220
0.0
230
1.0
 40
1.0
 41
0.0
 42
6.283185307179586
  0
SPLINE
  5
69
330
1F
100
AcDbEntity
  8
Layer 1
370
    15
100
AcDbSpline
210
0.0
220
0.0
230
1.0
 70
    11
 71
     3
 72
    56
 73
    52
 74
     0
 42
0.0000000001
 43
0.0000000001
 40
0.0
 40
0.0
 40
0.0
 40
0.0
 40
0.0769230769230769
 40
0.0769230769230769
 40
0.0769230769230769
 40
0.0769230769230769
 40
0.1538461538461539
 40
0.1538461538461539
 40
0.1538461538461539
 40
0.1538461538461539
 40
0.2307692307692308
 40
0.2307692307692308
 40
0.2307692307692308
 40
0.2307692307692308
 40
0.3076923076923077
 40
0.3076923076923077
 40
0.3076923076923077
 40
0.3076923076923077
 40
0.3846153846153846
 40
0.3846153846153846
 40
0.3846153846153846
 40
0.3846153846153846
 40
0.4615384615384616
 40
0.4615384615384616
 40
0.4615384615384616
 40
0.4615384615384616
 40
0.5384615384615385
 40
0.5384615384615385
 40
0.5384615384615385
 40
0.5384615384615385
 40
0.6153846153846154
 40
0.6153846153846154
 40
0.6153846153846154
 40
0.6153846153846154
 40
0.6923076923076923
 40
0.6923076923076923
 40
0.6923076923076923
 40
0.6923076923076923
 40
0.7692307692307692
 40
0.7692307692307692
 40
0.7692307692307692
 40
0.7692307692307692
 40
0.846153846153846
 40
0.846153846153846
 40
0.846153846153846
 40
0.846153846153846
 40
0.9230769230769229
 40
0.9230769230769229
 40
0.9230769230769229
 40
0.9230769230769229
 40
1.0
 40
1.0
 40
1.0
 40
1.0
 10
-7.15204
 20
7.38098
 30
0.0
 10
-7.15204
 20
7.38098
 30
0.0
 10
-6.80206
 20
7.38098
 30
0.0
 10
-6.80206
 20
7.38098
 30
0.0
 10
-6.80206
 20
7.38098
 30
0.0
 10
-6.73281
 20
7.38098
 30
0.0
 10
-6.67704
 20
7.32521
 30
0.0
 10
-6.67704
 20
7.25596
 30
0.0
 10
-6.67704
 20
7.25596
 30
0.0
 10
-6.67704
 20
7.25596
 30
0.0
 10
-6.67704
 20
6.887
 30
0.0
 10
-6.67704
 20
6.887
 30
0.0
 10
-6.67704
 20
6.887
 30
0.0
 10
-6.67704
 20
6.887
 30
0.0
 10
-6.4995
 20
6.887
 30
0.0
 10
-6.4995
 20
6.887
 30
0.0
 10
-6.4995
 20
6.887
 30
0.0
 10
-6.41667
 20
6.887
 30
0.0
 10
-6.3495
 20
6.81983
 30
0.0
 10
-6.3495
 20
6.737
 30
0.0
 10
-6.3495
 20
6.737
 30
0.0
 10
-6.3495
 20
6.65417
 30
0.0
 10
-6.41667
 20
6.587
 30
0.0
 10
-6.4995
 20
6.587
 30
0.0
 10
-6.4995
 20
6.587
 30
0.0
 10
-6.4995
 20
6.587
 30
0.0
 10
-6.67704
 20
6.587
 30
0.0
 10
-6.67704
 20
6.587
 30
0.0
 10
-6.67704
 20
6.587
 30
0.0
 10
-6.67704
 20
6.587
 30
0.0
 10
-6.67704
 20
6.40598
 30
0.0
 10
-6.67704
 20
6.40598
 30
0.0
 10
-6.67704
 20
6.40598
 30
0.0
 10
-6.67704
 20
6.33673
 30
0.0
 10
-6.73281
 20
6.28096
 30
0.0
 10
-6.80206
 20
6.28096
 30
0.0
 10
-6.80206
 20
6.28096
 30
0.0
 10
-6.80206
 20
6.28096
 30
0.0
 10
-7.15204
 20
6.28096
 30
0.0
 10
-7.15204
 20
6.28096
 30
0.0
 10
-7.15204
 20
6.28096
 30
0.0
 10
-7.22129
 20
6.28096
 30
0.0
 10
-7.27706
 20
6.33673
 30
0.0
 10
-7.27706
 20
6.40598
 30
0.0
 10
-7.27706
 20
6.40598
 30
0.0
 10
-7.27706
 20
6.40598
 30
0.0
 10
-7.27706
 20
7.25596
 30
0.0
 10
-7.27706
 20
7.25596
 30
0.0
 10
-7.27706
 20
7.25596
 30
0.0
 10
-7.27706
 20
7.32521
 30
0.0
 10
-7.22129
 20
7.38098
 30
0.0
 10
-7.15204
 20
7.38098
 30
0.0
  0
ELLIPSE
  5
6A
330
1F
100
AcDbEntity
  8
Layer 1
 62
   250
370
    35
100
AcDbEllipse
 10
-11.5
 20
10.15
 30
0.0
 11
0.0
 21
0.15
 31
0.0
210
0.0
220
0.0
230
1.0
 40
1.0
 41
0.0
 42
6.283185307179586
  0
ELLIPSE
  5
6B
330
1F
100
AcDbEntity
  8
Layer 1
 62
   250
370
    35
100
AcDbEllipse
 10
-9.5
 20
10.15
 30
0.0
 11
0.0
 21
0.15
 31
0.0
210
0.0
220
0.0
230
1.0
 40
1.0
 41
0.0
 42
6.283185307179586
  0
ELLIPSE
  5
6C
330
1F
100
AcDbEntity
  8
Layer 1
 62
   250
370
    35
100
AcDbEllipse
 10
-11.5
 20
8.15
 30
0.0
 11
0.0
 21
0.15
 31
0.0
210
0.0
220
0.0
230
1.0
 40
1.0
 41
0.0
 42
6.283185307179586
  0
ELLIPSE
  5
6D
330
1F
100
AcDbEntity
  8
Layer 1
 62
   250
370
    35
100
AcDbEllipse
 10
-9.5
 20
8.15
 30
0.0
 11
0.0
 21
0.15
 31
0.0
210
0.0
220
0.0
230
1.0
 40
1.0
 41
0.0
 42
6.283185307179586
  0
SPLINE
  5
6E
330
1F
100
AcDbEntity
  8
Layer 1
 62
   250
370
    35
100
AcDbSpline
210
0.0
220
0.0
230
1.0
 70
    11
 71
     3
 72
    16
 73
    12
 74
     0
 42
0.0000000001
 43
0.0000000001
 40
0.0
 40
0.0
 40
0.0
 40
0.0
 40
0.3333333333333333
 40
0.3333333333333333
 40
0.3333333333333333
 40
0.3333333333333333
 40
0.6666666666666666
 40
0.6666666666666666
 40
0.6666666666666666
 40
0.6666666666666666
 40
1.0
 40
1.0
 40
1.0
 40
1.0
 10
-9.6965
 20
9.90108
 30
0.0
 10
-9.62006
 20
9.81933
 30
0.0
 10
-9.5559
 20
9.72594
 30
0.0
 10
-9.50707
 20
9.62381
 30
0.0
 10
-9.50707
 20
9.62381
 30
0.0
 10
-9.50707
 20
9.62381
 30
0.0
 10
-9.67773
 20
9.79447
 30
0.0
 10
-9.67773
 20
9.79447
 30
0.0
 10
-9.67773
 20
9.79447
 30
0.0
 10
-9.70656
 20
9.8233
 30
0.0
 10
-9.71281
 20
9.86616
 30
0.0
 10
-9.6965
 20
9.90108
 30
0.0
  0
SPLINE
  5
6F
330
1F
100
AcDbEntity
  8
Layer 1
 62
   250
370
    35
100
AcDbSpline
210
0.0
220
0.0
230
1.0
 70
    11
 71
     3
 72
    16
 73
    12
 74
     0
 42
0.0000000001
 43
0.0000000001
 40
0.0
 40
0.0
 40
0.0
 40
0.0
 40
0.3333333333333333
 40
0.3333333333333333
 40
0.3333333333333333
 40
0.3333333333333333
 40
0.6666666666666666
 40
0.6666666666666666
 40
0.6666666666666666
 40
0.6666666666666666
 40
1.0
 40
1.0
 40
1.0
 40
1.0
 10
-10.02619
 20
10.14293
 30
0.0
 10
-9.93382
 20
10.09875
 30
0.0
 10
-9.84858
 20
10.04205
 30
0.0
 10
-9.77264
 20
9.97504
 30
0.0
 10
-9.77264
 20
9.97504
 30
0.0
 10
-9.80728
 20
9.95959
 30
0.0
 10
-9.84933
 20
9.96607
 30
0.0
 10
-9.87775
 20
9.99449
 30
0.0
 10
-9.87775
 20
9.99449
 30
0.0
 10
-9.87775
 20
9.99449
 30
0.0
 10
-10.02619
 20
10.14293
 30
0.0
 10
-10.02619
 20
10.14293
 30
0.0
  0
SPLINE
  5
70
330
1F
100
AcDbEntity
  8
Layer 1
 62
   250
370
    35
100
AcDbSpline
210
0.0
220
0.0
230
1.0
 70
    11
 71
     3
 72
    24
 73
    20
 74
     0
 42
0.0000000001
 43
0.0000000001
 40
0.0
 40
0.0
 40
0.0
 40
0.0
 40
0.2
 40
0.2
 40
0.2
 40
0.2
 40
0.4
 40
0.4
 40
0.4
 40
0.4
 40
0.6000000000000001
 40
0.6000000000000001
 40
0.6000000000000001
 40
0.6000000000000001
 40
0.8
 40
0.8
 40
0.8
 40
0.8
 40
1.0
 40
1.0
 40
1.0
 40
1.0
 10
-9.43201
 20
9.41414
 30
0.0
 10
-9.41114
 20
9.32952
 30
0.0
 10
-9.4
 20
9.24106
 30
0.0
 10
-9.4
 20
9.15
 30
0.0
 10
-9.4
 20
9.15
 30
0.0
 10
-9.4
 20
9.13904
 30
0.0
 10
-9.40021
 20
9.12813
 30
0.0
 10
-9.40052
 20
9.11725
 30
0.0
 10
-9.40052
 20
9.11725
 30
0.0
 10
-9.40052
 20
9.11725
 30
0.0
 10
-9.55551
 20
9.27223
 30
0.0
 10
-9.55551
 20
9.27223
 30
0.0
 10
-9.55551
 20
9.27223
 30
0.0
 10
-9.59232
 20
9.30904
 30
0.0
 10
-9.59232
 20
9.36876
 30
0.0
 10
-9.55551
 20
9.40557
 30
0.0
 10
-9.55551
 20
9.40557
 30
0.0
 10
-9.52182
 20
9.43926
 30
0.0
 10
-9.46896
 20
9.44212
 30
0.0
 10
-9.43201
 20
9.41414
 30
0.0
  0
SPLINE
  5
71
330
1F
100
AcDbEntity
  8
Layer 1
 62
   250
370
    35
100
AcDbSpline
210
0.0
220
0.0
230
1.0
 70
    11
 71
     3
 72
    28
 73
    24
 74
     0
 42
0.0000000001
 43
0.0000000001
 40
0.0
 40
0.0
 40
0.0
 40
0.0
 40
0.1666666666666667
 40
0.1666666666666667
 40
0.1666666666666667
 40
0.1666666666666667
 40
0.3333333333333333
 40
0.3333333333333333
 40
0.3333333333333333
 40
0.3333333333333333
 40
0.5
 40
0.5
 40
0.5
 40
0.5
 40
0.6666666666666666
 40
0.6666666666666666
 40
0.6666666666666666
 40
0.6666666666666666
 40
0.8333333333333333
 40
0.8333333333333333
 40
0.8333333333333333
 40
0.8333333333333333
 40
1.0
 40
1.0
 40
1.0
 40
1.0
 10
-9.62217
 20
9.60558
 30
0.0
 10
-9.58536
 20
9.56876
 30
0.0
 10
-9.58536
 20
9.50905
 30
0.0
 10
-9.62217
 20
9.47224
 30
0.0
 10
-9.62217
 20
9.47224
 30
0.0
 10
-9.65899
 20
9.43542
 30
0.0
 10
-9.7187
 20
9.43542
 30
0.0
 10
-9.75552
 20
9.47224
 30
0.0
 10
-9.75552
 20
9.47224
 30
0.0
 10
-9.75552
 20
9.47224
 30
0.0
 10
-10.19998
 20
9.91671
 30
0.0
 10
-10.19998
 20
9.91671
 30
0.0
 10
-10.19998
 20
9.91671
 30
0.0
 10
-10.2368
 20
9.95352
 30
0.0
 10
-10.2368
 20
10.01323
 30
0.0
 10
-10.19998
 20
10.05005
 30
0.0
 10
-10.19998
 20
10.05005
 30
0.0
 10
-10.16317
 20
10.08686
 30
0.0
 10
-10.10346
 20
10.08686
 30
0.0
 10
-10.06664
 20
10.05005
 30
0.0
 10
-10.06664
 20
10.05005
 30
0.0
 10
-10.06664
 20
10.05005
 30
0.0
 10
-9.62217
 20
9.60558
 30
0.0
 10
-9.62217
 20
9.60558
 30
0.0
  0
SPLINE
  5
72
330
1F
100
AcDbEntity
  8
Layer 1
 62
   250
370
    35
100
AcDbSpline
210
0.0
220
0.0
230
1.0
 70
    11
 71
     3
 72
    24
 73
    20
 74
     0
 42
0.0000000001
 43
0.0000000001
 40
0.0
 40
0.0
 40
0.0
 40
0.0
 40
0.2
 40
0.2
 40
0.2
 40
0.2
 40
0.4
 40
0.4
 40
0.4
 40
0.4
 40
0.6000000000000001
 40
0.6000000000000001
 40
0.6000000000000001
 40
0.6000000000000001
 40
0.8
 40
0.8
 40
0.8
 40
0.8
 40
1.0
 40
1.0
 40
1.0
 40
1.0
 10
-10.5
 20
10.25
 30
0.0
 10
-10.41282
 20
10.25
 30
0.0
 10
-10.32802
 20
10.2398
 30
0.0
 10
-10.24669
 20
10.22063
 30
0.0
 10
-10.24669
 20
10.22063
 30
0.0
 10
-10.23191
 20
10.18623
 30
0.0
 10
-10.23856
 20
10.14481
 30
0.0
 10
-10.26666
 20
10.11672
 30
0.0
 10
-10.26666
 20
10.11672
 30
0.0
 10
-10.30347
 20
10.0799
 30
0.0
 10
-10.36318
 20
10.0799
 30
0.0
 10
-10.39999
 20
10.11672
 30
0.0
 10
-10.39999
 20
10.11672
 30
0.0
 10
-10.39999
 20
10.11672
 30
0.0
 10
-10.53275
 20
10.24948
 30
0.0
 10
-10.53275
 20
10.24948
 30
0.0
 10
-10.53275
 20
10.24948
 30
0.0
 10
-10.52187
 20
10.24979
 30
0.0
 10
-10.51096
 20
10.25
 30
0.0
 10
-10.5
 20
10.25
 30
0.0
  0
SPLINE
  5
73
330
1F
100
AcDbEntity
  8
Layer 1
 62
   250
370
    35
100
AcDbSpline
210
0.0
220
0.0
230
1.0
 70
    11
 71
     3
 72
    16
 73
    12
 74
     0
 42
0.0000000001
 43
0.0000000001
 40
0.0
 40
0.0
 40
0.0
 40
0.0
 40
0.3333333333333333
 40
0.3333333333333333
 40
0.3333333333333333
 40
0.3333333333333333
 40
0.6666666666666666
 40
0.6666666666666666
 40
0.6666666666666666
 40
0.6666666666666666
 40
1.0
 40
1.0
 40
1.0
 40
1.0
 10
-9.43243
 20
8.88415
 30
0.0
 10
-9.43991
 20
8.85406
 30
0.0
 10
-9.44857
 20
8.82443
 30
0.0
 10
-9.45846
 20
8.79537
 30
0.0
 10
-9.45846
 20
8.79537
 30
0.0
 10
-9.46552
 20
8.826
 30
0.0
 10
-9.45713
 20
8.85947
 30
0.0
 10
-9.43328
 20
8.88332
 30
0.0
 10
-9.43328
 20
8.88332
 30
0.0
 10
-9.43328
 20
8.88332
 30
0.0
 10
-9.43243
 20
8.88415
 30
0.0
 10
-9.43243
 20
8.88415
 30
0.0
  0
SPLINE
  5
74
330
1F
100
AcDbEntity
  8
Layer 1
 62
   250
370
    35
100
AcDbSpline
210
0.0
220
0.0
230
1.0
 70
    11
 71
     3
 72
    28
 73
    24
 74
     0
 42
0.0000000001
 43
0.0000000001
 40
0.0
 40
0.0
 40
0.0
 40
0.0
 40
0.1666666666666667
 40
0.1666666666666667
 40
0.1666666666666667
 40
0.1666666666666667
 40
0.3333333333333333
 40
0.3333333333333333
 40
0.3333333333333333
 40
0.3333333333333333
 40
0.5
 40
0.5
 40
0.5
 40
0.5
 40
0.6666666666666666
 40
0.6666666666666666
 40
0.6666666666666666
 40
0.6666666666666666
 40
0.8333333333333333
 40
0.8333333333333333
 40
0.8333333333333333
 40
0.8333333333333333
 40
1.0
 40
1.0
 40
1.0
 40
1.0
 10
-9.49995
 20
9.08333
 30
0.0
 10
-9.46313
 20
9.04651
 30
0.0
 10
-9.46313
 20
8.9868
 30
0.0
 10
-9.49995
 20
8.94999
 30
0.0
 10
-9.49995
 20
8.94999
 30
0.0
 10
-9.53676
 20
8.91317
 30
0.0
 10
-9.59647
 20
8.91317
 30
0.0
 10
-9.63329
 20
8.94999
 30
0.0
 10
-9.63329
 20
8.94999
 30
0.0
 10
-9.63329
 20
8.94999
 30
0.0
 10
-10.07776
 20
9.39446
 30
0.0
 10
-10.07776
 20
9.39446
 30
0.0
 10
-10.07776
 20
9.39446
 30
0.0
 10
-10.11457
 20
9.43127
 30
0.0
 10
-10.11457
 20
9.49098
 30
0.0
 10
-10.07776
 20
9.5278
 30
0.0
 10
-10.07776
 20
9.5278
 30
0.0
 10
-10.04094
 20
9.56461
 30
0.0
 10
-9.98123
 20
9.56461
 30
0.0
 10
-9.94442
 20
9.5278
 30
0.0
 10
-9.94442
 20
9.5278
 30
0.0
 10
-9.94442
 20
9.5278
 30
0.0
 10
-9.49995
 20
9.08333
 30
0.0
 10
-9.49995
 20
9.08333
 30
0.0
  0
SPLINE
  5
75
330
1F
100
AcDbEntity
  8
Layer 1
 62
   250
370
    35
100
AcDbSpline
210
0.0
220
0.0
230
1.0
 70
    11
 71
     3
 72
    28
 73
    24
 74
     0
 42
0.0000000001
 43
0.0000000001
 40
0.0
 40
0.0
 40
0.0
 40
0.0
 40
0.1666666666666667
 40
0.1666666666666667
 40
0.1666666666666667
 40
0.1666666666666667
 40
0.3333333333333333
 40
0.3333333333333333
 40
0.3333333333333333
 40
0.3333333333333333
 40
0.5
 40
0.5
 40
0.5
 40
0.5
 40
0.6666666666666666
 40
0.6666666666666666
 40
0.6666666666666666
 40
0.6666666666666666
 40
0.8333333333333333
 40
0.8333333333333333
 40
0.8333333333333333
 40
0.8333333333333333
 40
1.0
 40
1.0
 40
1.0
 40
1.0
 10
-10.14442
 20
9.72781
 30
0.0
 10
-10.10761
 20
9.69099
 30
0.0
 10
-10.10761
 20
9.63128
 30
0.0
 10
-10.14442
 20
9.59447
 30
0.0
 10
-10.14442
 20
9.59447
 30
0.0
 10
-10.18124
 20
9.55765
 30
0.0
 10
-10.24095
 20
9.55765
 30
0.0
 10
-10.27777
 20
9.59447
 30
0.0
 10
-10.27777
 20
9.59447
 30
0.0
 10
-10.27777
 20
9.59447
 30
0.0
 10
-10.72223
 20
10.03893
 30
0.0
 10
-10.72223
 20
10.03893
 30
0.0
 10
-10.72223
 20
10.03893
 30
0.0
 10
-10.75905
 20
10.07575
 30
0.0
 10
-10.75905
 20
10.13546
 30
0.0
 10
-10.72223
 20
10.17228
 30
0.0
 10
-10.72223
 20
10.17228
 30
0.0
 10
-10.68542
 20
10.20909
 30
0.0
 10
-10.62571
 20
10.20909
 30
0.0
 10
-10.58889
 20
10.17228
 30
0.0
 10
-10.58889
 20
10.17228
 30
0.0
 10
-10.58889
 20
10.17228
 30
0.0
 10
-10.14442
 20
9.72781
 30
0.0
 10
-10.14442
 20
9.72781
 30
0.0
  0
SPLINE
  5
76
330
1F
100
AcDbEntity
  8
Layer 1
 62
   250
370
    35
100
AcDbSpline
210
0.0
220
0.0
230
1.0
 70
    11
 71
     3
 72
    24
 73
    20
 74
     0
 42
0.0000000001
 43
0.0000000001
 40
0.0
 40
0.0
 40
0.0
 40
0.0
 40
0.2
 40
0.2
 40
0.2
 40
0.2
 40
0.4
 40
0.4
 40
0.4
 40
0.4
 40
0.6000000000000001
 40
0.6000000000000001
 40
0.6000000000000001
 40
0.6000000000000001
 40
0.8
 40
0.8
 40
0.8
 40
0.8
 40
1.0
 40
1.0
 40
1.0
 40
1.0
 10
-9.50254
 20
8.68589
 30
0.0
 10
-9.53021
 20
8.62654
 30
0.0
 10
-9.56298
 20
8.57005
 30
0.0
 10
-9.60036
 20
8.51703
 30
0.0
 10
-9.60036
 20
8.51703
 30
0.0
 10
-9.60036
 20
8.51703
 30
0.0
 10
-9.95553
 20
8.87221
 30
0.0
 10
-9.95553
 20
8.87221
 30
0.0
 10
-9.95553
 20
8.87221
 30
0.0
 10
-9.99234
 20
8.90902
 30
0.0
 10
-9.99234
 20
8.96873
 30
0.0
 10
-9.95553
 20
9.00555
 30
0.0
 10
-9.95553
 20
9.00555
 30
0.0
 10
-9.91871
 20
9.04236
 30
0.0
 10
-9.859
 20
9.04236
 30
0.0
 10
-9.82219
 20
9.00555
 30
0.0
 10
-9.82219
 20
9.00555
 30
0.0
 10
-9.82219
 20
9.00555
 30
0.0
 10
-9.50254
 20
8.68589
 30
0.0
 10
-9.50254
 20
8.68589
 30
0.0
  0
SPLINE
  5
77
330
1F
100
AcDbEntity
  8
Layer 1
 62
   250
370
    35
100
AcDbSpline
210
0.0
220
0.0
230
1.0
 70
    11
 71
     3
 72
    28
 73
    24
 74
     0
 42
0.0000000001
 43
0.0000000001
 40
0.0
 40
0.0
 40
0.0
 40
0.0
 40
0.1666666666666667
 40
0.1666666666666667
 40
0.1666666666666667
 40
0.1666666666666667
 40
0.3333333333333333
 40
0.3333333333333333
 40
0.3333333333333333
 40
0.3333333333333333
 40
0.5
 40
0.5
 40
0.5
 40
0.5
 40
0.6666666666666666
 40
0.6666666666666666
 40
0.6666666666666666
 40
0.6666666666666666
 40
0.8333333333333333
 40
0.8333333333333333
 40
0.8333333333333333
 40
0.8333333333333333
 40
1.0
 40
1.0
 40
1.0
 40
1.0
 10
-10.0222
 20
9.20556
 30
0.0
 10
-9.98538
 20
9.16874
 30
0.0
 10
-9.98538
 20
9.10904
 30
0.0
 10
-10.0222
 20
9.07222
 30
0.0
 10
-10.0222
 20
9.07222
 30
0.0
 10
-10.05901
 20
9.03541
 30
0.0
 10
-10.11872
 20
9.03541
 30
0.0
 10
-10.15554
 20
9.07222
 30
0.0
 10
-10.15554
 20
9.07222
 30
0.0
 10
-10.15554
 20
9.07222
 30
0.0
 10
-10.60001
 20
9.51668
 30
0.0
 10
-10.60001
 20
9.51668
 30
0.0
 10
-10.60001
 20
9.51668
 30
0.0
 10
-10.63682
 20
9.5535
 30
0.0
 10
-10.63682
 20
9.61321
 30
0.0
 10
-10.60001
 20
9.65003
 30
0.0
 10
-10.60001
 20
9.65003
 30
0.0
 10
-10.56319
 20
9.68684
 30
0.0
 10
-10.50348
 20
9.68684
 30
0.0
 10
-10.46667
 20
9.65003
 30
0.0
 10
-10.46667
 20
9.65003
 30
0.0
 10
-10.46667
 20
9.65003
 30
0.0
 10
-10.0222
 20
9.20556
 30
0.0
 10
-10.0222
 20
9.20556
 30
0.0
  0
SPLINE
  5
78
330
1F
100
AcDbEntity
  8
Layer 1
 62
   250
370
    35
100
AcDbSpline
210
0.0
220
0.0
230
1.0
 70
    11
 71
     3
 72
    24
 73
    20
 74
     0
 42
0.0000000001
 43
0.0000000001
 40
0.0
 40
0.0
 40
0.0
 40
0.0
 40
0.2
 40
0.2
 40
0.2
 40
0.2
 40
0.4
 40
0.4
 40
0.4
 40
0.4
 40
0.6000000000000001
 40
0.6000000000000001
 40
0.6000000000000001
 40
0.6000000000000001
 40
0.8
 40
0.8
 40
0.8
 40
0.8
 40
1.0
 40
1.0
 40
1.0
 40
1.0
 10
-11.13296
 20
10.04964
 30
0.0
 10
-11.07994
 20
10.08702
 30
0.0
 10
-11.02346
 20
10.11979
 30
0.0
 10
-10.96411
 20
10.14746
 30
0.0
 10
-10.96411
 20
10.14746
 30
0.0
 10
-10.96411
 20
10.14746
 30
0.0
 10
-10.66668
 20
9.85003
 30
0.0
 10
-10.66668
 20
9.85003
 30
0.0
 10
-10.66668
 20
9.85003
 30
0.0
 10
-10.62986
 20
9.81322
 30
0.0
 10
-10.62986
 20
9.75351
 30
0.0
 10
-10.66668
 20
9.71669
 30
0.0
 10
-10.66668
 20
9.71669
 30
0.0
 10
-10.70349
 20
9.67988
 30
0.0
 10
-10.7632
 20
9.67988
 30
0.0
 10
-10.80002
 20
9.71669
 30
0.0
 10
-10.80002
 20
9.71669
 30
0.0
 10
-10.80002
 20
9.71669
 30
0.0
 10
-11.13296
 20
10.04964
 30
0.0
 10
-11.13296
 20
10.04964
 30
0.0
  0
SPLINE
  5
79
330
1F
100
AcDbEntity
  8
Layer 1
 62
   250
370
    35
100
AcDbSpline
210
0.0
220
0.0
230
1.0
 70
    11
 71
     3
 72
    24
 73
    20
 74
     0
 42
0.0000000001
 43
0.0000000001
 40
0.0
 40
0.0
 40
0.0
 40
0.0
 40
0.2
 40
0.2
 40
0.2
 40
0.2
 40
0.4
 40
0.4
 40
0.4
 40
0.4
 40
0.6000000000000001
 40
0.6000000000000001
 40
0.6000000000000001
 40
0.6000000000000001
 40
0.8
 40
0.8
 40
0.8
 40
0.8
 40
1.0
 40
1.0
 40
1.0
 40
1.0
 10
-9.65845
 20
8.44179
 30
0.0
 10
-9.69902
 20
8.39364
 30
0.0
 10
-9.74363
 20
8.34902
 30
0.0
 10
-9.79179
 20
8.30845
 30
0.0
 10
-9.79179
 20
8.30845
 30
0.0
 10
-9.79179
 20
8.30845
 30
0.0
 10
-9.8333
 20
8.34996
 30
0.0
 10
-9.8333
 20
8.34996
 30
0.0
 10
-9.8333
 20
8.34996
 30
0.0
 10
-9.87011
 20
8.38678
 30
0.0
 10
-9.87011
 20
8.44648
 30
0.0
 10
-9.8333
 20
8.4833
 30
0.0
 10
-9.8333
 20
8.4833
 30
0.0
 10
-9.79648
 20
8.52011
 30
0.0
 10
-9.73678
 20
8.52011
 30
0.0
 10
-9.69996
 20
8.4833
 30
0.0
 10
-9.69996
 20
8.4833
 30
0.0
 10
-9.69996
 20
8.4833
 30
0.0
 10
-9.65845
 20
8.44179
 30
0.0
 10
-9.65845
 20
8.44179
 30
0.0
  0
SPLINE
  5
7A
330
1F
100
AcDbEntity
  8
Layer 1
 62
   250
370
    35
100
AcDbSpline
210
0.0
220
0.0
230
1.0
 70
    11
 71
     3
 72
    28
 73
    24
 74
     0
 42
0.0000000001
 43
0.0000000001
 40
0.0
 40
0.0
 40
0.0
 40
0.0
 40
0.1666666666666667
 40
0.1666666666666667
 40
0.1666666666666667
 40
0.1666666666666667
 40
0.3333333333333333
 40
0.3333333333333333
 40
0.3333333333333333
 40
0.3333333333333333
 40
0.5
 40
0.5
 40
0.5
 40
0.5
 40
0.6666666666666666
 40
0.6666666666666666
 40
0.6666666666666666
 40
0.6666666666666666
 40
0.8333333333333333
 40
0.8333333333333333
 40
0.8333333333333333
 40
0.8333333333333333
 40
1.0
 40
1.0
 40
1.0
 40
1.0
 10
-9.89997
 20
8.68331
 30
0.0
 10
-9.86316
 20
8.6465
 30
0.0
 10
-9.86316
 20
8.58679
 30
0.0
 10
-9.89997
 20
8.54997
 30
0.0
 10
-9.89997
 20
8.54997
 30
0.0
 10
-9.93679
 20
8.51316
 30
0.0
 10
-9.9965
 20
8.51316
 30
0.0
 10
-10.03331
 20
8.54997
 30
0.0
 10
-10.03331
 20
8.54997
 30
0.0
 10
-10.03331
 20
8.54997
 30
0.0
 10
-10.47777
 20
8.99443
 30
0.0
 10
-10.47777
 20
8.99443
 30
0.0
 10
-10.47777
 20
8.99443
 30
0.0
 10
-10.51459
 20
9.03125
 30
0.0
 10
-10.51459
 20
9.09096
 30
0.0
 10
-10.47777
 20
9.12777
 30
0.0
 10
-10.47777
 20
9.12777
 30
0.0
 10
-10.44096
 20
9.16459
 30
0.0
 10
-10.38125
 20
9.16459
 30
0.0
 10
-10.34443
 20
9.12777
 30
0.0
 10
-10.34443
 20
9.12777
 30
0.0
 10
-10.34443
 20
9.12777
 30
0.0
 10
-9.89997
 20
8.68331
 30
0.0
 10
-9.89997
 20
8.68331
 30
0.0
  0
SPLINE
  5
7B
330
1F
100
AcDbEntity
  8
Layer 1
 62
   250
370
    35
100
AcDbSpline
210
0.0
220
0.0
230
1.0
 70
    11
 71
     3
 72
    28
 73
    24
 74
     0
 42
0.0000000001
 43
0.0000000001
 40
0.0
 40
0.0
 40
0.0
 40
0.0
 40
0.1666666666666667
 40
0.1666666666666667
 40
0.1666666666666667
 40
0.1666666666666667
 40
0.3333333333333333
 40
0.3333333333333333
 40
0.3333333333333333
 40
0.3333333333333333
 40
0.5
 40
0.5
 40
0.5
 40
0.5
 40
0.6666666666666666
 40
0.6666666666666666
 40
0.6666666666666666
 40
0.6666666666666666
 40
0.8333333333333333
 40
0.8333333333333333
 40
0.8333333333333333
 40
0.8333333333333333
 40
1.0
 40
1.0
 40
1.0
 40
1.0
 10
-10.54445
 20
9.32779
 30
0.0
 10
-10.50763
 20
9.29097
 30
0.0
 10
-10.50763
 20
9.23126
 30
0.0
 10
-10.54445
 20
9.19445
 30
0.0
 10
-10.54445
 20
9.19445
 30
0.0
 10
-10.58126
 20
9.15763
 30
0.0
 10
-10.64097
 20
9.15763
 30
0.0
 10
-10.67779
 20
9.19445
 30
0.0
 10
-10.67779
 20
9.19445
 30
0.0
 10
-10.67779
 20
9.19445
 30
0.0
 10
-11.12225
 20
9.63892
 30
0.0
 10
-11.12225
 20
9.63892
 30
0.0
 10
-11.12225
 20
9.63892
 30
0.0
 10
-11.15907
 20
9.67573
 30
0.0
 10
-11.15907
 20
9.73544
 30
0.0
 10
-11.12225
 20
9.77225
 30
0.0
 10
-11.12225
 20
9.77225
 30
0.0
 10
-11.08544
 20
9.80907
 30
0.0
 10
-11.02573
 20
9.80907
 30
0.0
 10
-10.98892
 20
9.77225
 30
0.0
 10
-10.98892
 20
9.77225
 30
0.0
 10
-10.98892
 20
9.77225
 30
0.0
 10
-10.54445
 20
9.32779
 30
0.0
 10
-10.54445
 20
9.32779
 30
0.0
  0
SPLINE
  5
7C
330
1F
100
AcDbEntity
  8
Layer 1
 62
   250
370
    35
100
AcDbSpline
210
0.0
220
0.0
230
1.0
 70
    11
 71
     3
 72
    24
 73
    20
 74
     0
 42
0.0000000001
 43
0.0000000001
 40
0.0
 40
0.0
 40
0.0
 40
0.0
 40
0.2
 40
0.2
 40
0.2
 40
0.2
 40
0.4
 40
0.4
 40
0.4
 40
0.4
 40
0.6000000000000001
 40
0.6000000000000001
 40
0.6000000000000001
 40
0.6000000000000001
 40
0.8
 40
0.8
 40
0.8
 40
0.8
 40
1.0
 40
1.0
 40
1.0
 40
1.0
 10
-11.34155
 20
9.85821
 30
0.0
 10
-11.30098
 20
9.90637
 30
0.0
 10
-11.25636
 20
9.95098
 30
0.0
 10
-11.20821
 20
9.99155
 30
0.0
 10
-11.20821
 20
9.99155
 30
0.0
 10
-11.20821
 20
9.99155
 30
0.0
 10
-11.18893
 20
9.97227
 30
0.0
 10
-11.18893
 20
9.97227
 30
0.0
 10
-11.18893
 20
9.97227
 30
0.0
 10
-11.15211
 20
9.93545
 30
0.0
 10
-11.15211
 20
9.87574
 30
0.0
 10
-11.18893
 20
9.83893
 30
0.0
 10
-11.18893
 20
9.83893
 30
0.0
 10
-11.22574
 20
9.80211
 30
0.0
 10
-11.28545
 20
9.80211
 30
0.0
 10
-11.32227
 20
9.83893
 30
0.0
 10
-11.32227
 20
9.83893
 30
0.0
 10
-11.32227
 20
9.83893
 30
0.0
 10
-11.34155
 20
9.85821
 30
0.0
 10
-11.34155
 20
9.85821
 30
0.0
  0
SPLINE
  5
7D
330
1F
100
AcDbEntity
  8
Layer 1
 62
   250
370
    35
100
AcDbSpline
210
0.0
220
0.0
230
1.0
 70
    11
 71
     3
 72
    24
 73
    20
 74
     0
 42
0.0000000001
 43
0.0000000001
 40
0.0
 40
0.0
 40
0.0
 40
0.0
 40
0.2
 40
0.2
 40
0.2
 40
0.2
 40
0.4
 40
0.4
 40
0.4
 40
0.4
 40
0.6000000000000001
 40
0.6000000000000001
 40
0.6000000000000001
 40
0.6000000000000001
 40
0.8
 40
0.8
 40
0.8
 40
0.8
 40
1.0
 40
1.0
 40
1.0
 40
1.0
 10
-9.86703
 20
8.25036
 30
0.0
 10
-9.92005
 20
8.21298
 30
0.0
 10
-9.97654
 20
8.18021
 30
0.0
 10
-10.03589
 20
8.15254
 30
0.0
 10
-10.03589
 20
8.15254
 30
0.0
 10
-10.03589
 20
8.15254
 30
0.0
 10
-10.35555
 20
8.47219
 30
0.0
 10
-10.35555
 20
8.47219
 30
0.0
 10
-10.35555
 20
8.47219
 30
0.0
 10
-10.39236
 20
8.509
 30
0.0
 10
-10.39236
 20
8.56871
 30
0.0
 10
-10.35555
 20
8.60553
 30
0.0
 10
-10.35555
 20
8.60553
 30
0.0
 10
-10.31873
 20
8.64234
 30
0.0
 10
-10.25902
 20
8.64234
 30
0.0
 10
-10.22221
 20
8.60553
 30
0.0
 10
-10.22221
 20
8.60553
 30
0.0
 10
-10.22221
 20
8.60553
 30
0.0
 10
-9.86703
 20
8.25036
 30
0.0
 10
-9.86703
 20
8.25036
 30
0.0
  0
SPLINE
  5
7E
330
1F
100
AcDbEntity
  8
Layer 1
 62
   250
370
    35
100
AcDbSpline
210
0.0
220
0.0
230
1.0
 70
    11
 71
     3
 72
    28
 73
    24
 74
     0
 42
0.0000000001
 43
0.0000000001
 40
0.0
 40
0.0
 40
0.0
 40
0.0
 40
0.1666666666666667
 40
0.1666666666666667
 40
0.1666666666666667
 40
0.1666666666666667
 40
0.3333333333333333
 40
0.3333333333333333
 40
0.3333333333333333
 40
0.3333333333333333
 40
0.5
 40
0.5
 40
0.5
 40
0.5
 40
0.6666666666666666
 40
0.6666666666666666
 40
0.6666666666666666
 40
0.6666666666666666
 40
0.8333333333333333
 40
0.8333333333333333
 40
0.8333333333333333
 40
0.8333333333333333
 40
1.0
 40
1.0
 40
1.0
 40
1.0
 10
-10.42222
 20
8.80554
 30
0.0
 10
-10.38541
 20
8.76872
 30
0.0
 10
-10.38541
 20
8.70901
 30
0.0
 10
-10.42222
 20
8.6722
 30
0.0
 10
-10.42222
 20
8.6722
 30
0.0
 10
-10.45904
 20
8.63538
 30
0.0
 10
-10.51874
 20
8.63538
 30
0.0
 10
-10.55556
 20
8.6722
 30
0.0
 10
-10.55556
 20
8.6722
 30
0.0
 10
-10.55556
 20
8.6722
 30
0.0
 10
-11.00003
 20
9.11667
 30
0.0
 10
-11.00003
 20
9.11667
 30
0.0
 10
-11.00003
 20
9.11667
 30
0.0
 10
-11.03684
 20
9.15348
 30
0.0
 10
-11.03684
 20
9.21319
 30
0.0
 10
-11.00003
 20
9.25001
 30
0.0
 10
-11.00003
 20
9.25001
 30
0.0
 10
-10.96321
 20
9.28682
 30
0.0
 10
-10.9035
 20
9.28682
 30
0.0
 10
-10.86668
 20
9.25001
 30
0.0
 10
-10.86668
 20
9.25001
 30
0.0
 10
-10.86668
 20
9.25001
 30
0.0
 10
-10.42222
 20
8.80554
 30
0.0
 10
-10.42222
 20
8.80554
 30
0.0
  0
SPLINE
  5
7F
330
1F
100
AcDbEntity
  8
Layer 1
 62
   250
370
    35
100
AcDbSpline
210
0.0
220
0.0
230
1.0
 70
    11
 71
     3
 72
    24
 73
    20
 74
     0
 42
0.0000000001
 43
0.0000000001
 40
0.0
 40
0.0
 40
0.0
 40
0.0
 40
0.2
 40
0.2
 40
0.2
 40
0.2
 40
0.4
 40
0.4
 40
0.4
 40
0.4
 40
0.6000000000000001
 40
0.6000000000000001
 40
0.6000000000000001
 40
0.6000000000000001
 40
0.8
 40
0.8
 40
0.8
 40
0.8
 40
1.0
 40
1.0
 40
1.0
 40
1.0
 10
-11.49746
 20
9.61411
 30
0.0
 10
-11.46979
 20
9.67346
 30
0.0
 10
-11.43702
 20
9.72994
 30
0.0
 10
-11.39964
 20
9.78296
 30
0.0
 10
-11.39964
 20
9.78296
 30
0.0
 10
-11.39964
 20
9.78296
 30
0.0
 10
-11.06669
 20
9.45002
 30
0.0
 10
-11.06669
 20
9.45002
 30
0.0
 10
-11.06669
 20
9.45002
 30
0.0
 10
-11.02988
 20
9.4132
 30
0.0
 10
-11.02988
 20
9.35349
 30
0.0
 10
-11.06669
 20
9.31668
 30
0.0
 10
-11.06669
 20
9.31668
 30
0.0
 10
-11.10351
 20
9.27986
 30
0.0
 10
-11.16322
 20
9.27986
 30
0.0
 10
-11.20003
 20
9.31668
 30
0.0
 10
-11.20003
 20
9.31668
 30
0.0
 10
-11.20003
 20
9.31668
 30
0.0
 10
-11.49746
 20
9.61411
 30
0.0
 10
-11.49746
 20
9.61411
 30
0.0
  0
SPLINE
  5
80
330
1F
100
AcDbEntity
  8
Layer 1
 62
   250
370
    35
100
AcDbSpline
210
0.0
220
0.0
230
1.0
 70
    11
 71
     3
 72
    16
 73
    12
 74
     0
 42
0.0000000001
 43
0.0000000001
 40
0.0
 40
0.0
 40
0.0
 40
0.0
 40
0.3333333333333333
 40
0.3333333333333333
 40
0.3333333333333333
 40
0.3333333333333333
 40
0.6666666666666666
 40
0.6666666666666666
 40
0.6666666666666666
 40
0.6666666666666666
 40
1.0
 40
1.0
 40
1.0
 40
1.0
 10
-10.14537
 20
8.10846
 30
0.0
 10
-10.17443
 20
8.09857
 30
0.0
 10
-10.20405
 20
8.08991
 30
0.0
 10
-10.23415
 20
8.08243
 30
0.0
 10
-10.23415
 20
8.08243
 30
0.0
 10
-10.23415
 20
8.08243
 30
0.0
 10
-10.23332
 20
8.08328
 30
0.0
 10
-10.23332
 20
8.08328
 30
0.0
 10
-10.23332
 20
8.08328
 30
0.0
 10
-10.20947
 20
8.10713
 30
0.0
 10
-10.176
 20
8.11552
 30
0.0
 10
-10.14537
 20
8.10846
 30
0.0
  0
SPLINE
  5
81
330
1F
100
AcDbEntity
  8
Layer 1
 62
   250
370
    35
100
AcDbSpline
210
0.0
220
0.0
230
1.0
 70
    11
 71
     3
 72
    28
 73
    24
 74
     0
 42
0.0000000001
 43
0.0000000001
 40
0.0
 40
0.0
 40
0.0
 40
0.0
 40
0.1666666666666667
 40
0.1666666666666667
 40
0.1666666666666667
 40
0.1666666666666667
 40
0.3333333333333333
 40
0.3333333333333333
 40
0.3333333333333333
 40
0.3333333333333333
 40
0.5
 40
0.5
 40
0.5
 40
0.5
 40
0.6666666666666666
 40
0.6666666666666666
 40
0.6666666666666666
 40
0.6666666666666666
 40
0.8333333333333333
 40
0.8333333333333333
 40
0.8333333333333333
 40
0.8333333333333333
 40
1.0
 40
1.0
 40
1.0
 40
1.0
 10
-10.29999
 20
8.28329
 30
0.0
 10
-10.26317
 20
8.24647
 30
0.0
 10
-10.26317
 20
8.18676
 30
0.0
 10
-10.29999
 20
8.14995
 30
0.0
 10
-10.29999
 20
8.14995
 30
0.0
 10
-10.3368
 20
8.11313
 30
0.0
 10
-10.39651
 20
8.11313
 30
0.0
 10
-10.43333
 20
8.14995
 30
0.0
 10
-10.43333
 20
8.14995
 30
0.0
 10
-10.43333
 20
8.14995
 30
0.0
 10
-10.8778
 20
8.59442
 30
0.0
 10
-10.8778
 20
8.59442
 30
0.0
 10
-10.8778
 20
8.59442
 30
0.0
 10
-10.91461
 20
8.63123
 30
0.0
 10
-10.91461
 20
8.69094
 30
0.0
 10
-10.8778
 20
8.72776
 30
0.0
 10
-10.8778
 20
8.72776
 30
0.0
 10
-10.84098
 20
8.76457
 30
0.0
 10
-10.78127
 20
8.76457
 30
0.0
 10
-10.74446
 20
8.72776
 30
0.0
 10
-10.74446
 20
8.72776
 30
0.0
 10
-10.74446
 20
8.72776
 30
0.0
 10
-10.29999
 20
8.28329
 30
0.0
 10
-10.29999
 20
8.28329
 30
0.0
  0
SPLINE
  5
82
330
1F
100
AcDbEntity
  8
Layer 1
 62
   250
370
    35
100
AcDbSpline
210
0.0
220
0.0
230
1.0
 70
    11
 71
     3
 72
    28
 73
    24
 74
     0
 42
0.0000000001
 43
0.0000000001
 40
0.0
 40
0.0
 40
0.0
 40
0.0
 40
0.1666666666666667
 40
0.1666666666666667
 40
0.1666666666666667
 40
0.1666666666666667
 40
0.3333333333333333
 40
0.3333333333333333
 40
0.3333333333333333
 40
0.3333333333333333
 40
0.5
 40
0.5
 40
0.5
 40
0.5
 40
0.6666666666666666
 40
0.6666666666666666
 40
0.6666666666666666
 40
0.6666666666666666
 40
0.8333333333333333
 40
0.8333333333333333
 40
0.8333333333333333
 40
0.8333333333333333
 40
1.0
 40
1.0
 40
1.0
 40
1.0
 10
-10.94447
 20
8.92777
 30
0.0
 10
-10.90765
 20
8.89095
 30
0.0
 10
-10.90765
 20
8.83124
 30
0.0
 10
-10.94447
 20
8.79442
 30
0.0
 10
-10.94447
 20
8.79442
 30
0.0
 10
-10.98128
 20
8.75761
 30
0.0
 10
-11.04099
 20
8.75761
 30
0.0
 10
-11.07781
 20
8.79442
 30
0.0
 10
-11.07781
 20
8.79442
 30
0.0
 10
-11.07781
 20
8.79442
 30
0.0
 10
-11.52228
 20
9.23889
 30
0.0
 10
-11.52228
 20
9.23889
 30
0.0
 10
-11.52228
 20
9.23889
 30
0.0
 10
-11.55909
 20
9.27571
 30
0.0
 10
-11.55909
 20
9.33542
 30
0.0
 10
-11.52228
 20
9.37223
 30
0.0
 10
-11.52228
 20
9.37223
 30
0.0
 10
-11.48546
 20
9.40905
 30
0.0
 10
-11.42575
 20
9.40905
 30
0.0
 10
-11.38893
 20
9.37223
 30
0.0
 10
-11.38893
 20
9.37223
 30
0.0
 10
-11.38893
 20
9.37223
 30
0.0
 10
-10.94447
 20
8.92777
 30
0.0
 10
-10.94447
 20
8.92777
 30
0.0
  0
SPLINE
  5
83
330
1F
100
AcDbEntity
  8
Layer 1
 62
   250
370
    35
100
AcDbSpline
210
0.0
220
0.0
230
1.0
 70
    11
 71
     3
 72
    24
 73
    20
 74
     0
 42
0.0000000001
 43
0.0000000001
 40
0.0
 40
0.0
 40
0.0
 40
0.0
 40
0.2
 40
0.2
 40
0.2
 40
0.2
 40
0.4
 40
0.4
 40
0.4
 40
0.4
 40
0.6000000000000001
 40
0.6000000000000001
 40
0.6000000000000001
 40
0.6000000000000001
 40
0.8
 40
0.8
 40
0.8
 40
0.8
 40
1.0
 40
1.0
 40
1.0
 40
1.0
 10
-10.46725
 20
8.05052
 30
0.0
 10
-10.47813
 20
8.05021
 30
0.0
 10
-10.48904
 20
8.05
 30
0.0
 10
-10.5
 20
8.05
 30
0.0
 10
-10.5
 20
8.05
 30
0.0
 10
-10.59106
 20
8.05
 30
0.0
 10
-10.67952
 20
8.06114
 30
0.0
 10
-10.76414
 20
8.08201
 30
0.0
 10
-10.76414
 20
8.08201
 30
0.0
 10
-10.79212
 20
8.11896
 30
0.0
 10
-10.78926
 20
8.17182
 30
0.0
 10
-10.75557
 20
8.20551
 30
0.0
 10
-10.75557
 20
8.20551
 30
0.0
 10
-10.71876
 20
8.24232
 30
0.0
 10
-10.65904
 20
8.24232
 30
0.0
 10
-10.62223
 20
8.20551
 30
0.0
 10
-10.62223
 20
8.20551
 30
0.0
 10
-10.62223
 20
8.20551
 30
0.0
 10
-10.46725
 20
8.05052
 30
0.0
 10
-10.46725
 20
8.05052
 30
0.0
  0
SPLINE
  5
84
330
1F
100
AcDbEntity
  8
Layer 1
 62
   250
370
    35
100
AcDbSpline
210
0.0
220
0.0
230
1.0
 70
    11
 71
     3
 72
    28
 73
    24
 74
     0
 42
0.0000000001
 43
0.0000000001
 40
0.0
 40
0.0
 40
0.0
 40
0.0
 40
0.1666666666666667
 40
0.1666666666666667
 40
0.1666666666666667
 40
0.1666666666666667
 40
0.3333333333333333
 40
0.3333333333333333
 40
0.3333333333333333
 40
0.3333333333333333
 40
0.5
 40
0.5
 40
0.5
 40
0.5
 40
0.6666666666666666
 40
0.6666666666666666
 40
0.6666666666666666
 40
0.6666666666666666
 40
0.8333333333333333
 40
0.8333333333333333
 40
0.8333333333333333
 40
0.8333333333333333
 40
1.0
 40
1.0
 40
1.0
 40
1.0
 10
-10.82224
 20
8.40552
 30
0.0
 10
-10.78542
 20
8.3687
 30
0.0
 10
-10.78542
 20
8.30899
 30
0.0
 10
-10.82224
 20
8.27217
 30
0.0
 10
-10.82224
 20
8.27217
 30
0.0
 10
-10.85905
 20
8.23536
 30
0.0
 10
-10.91876
 20
8.23536
 30
0.0
 10
-10.95558
 20
8.27217
 30
0.0
 10
-10.95558
 20
8.27217
 30
0.0
 10
-10.95558
 20
8.27217
 30
0.0
 10
-11.40005
 20
8.71664
 30
0.0
 10
-11.40005
 20
8.71664
 30
0.0
 10
-11.40005
 20
8.71664
 30
0.0
 10
-11.43686
 20
8.75346
 30
0.0
 10
-11.43686
 20
8.81317
 30
0.0
 10
-11.40005
 20
8.84998
 30
0.0
 10
-11.40005
 20
8.84998
 30
0.0
 10
-11.36323
 20
8.8868
 30
0.0
 10
-11.30352
 20
8.8868
 30
0.0
 10
-11.26671
 20
8.84998
 30
0.0
 10
-11.26671
 20
8.84998
 30
0.0
 10
-11.26671
 20
8.84998
 30
0.0
 10
-10.82224
 20
8.40552
 30
0.0
 10
-10.82224
 20
8.40552
 30
0.0
  0
SPLINE
  5
85
330
1F
100
AcDbEntity
  8
Layer 1
 62
   250
370
    35
100
AcDbSpline
210
0.0
220
0.0
230
1.0
 70
    11
 71
     3
 72
    24
 73
    20
 74
     0
 42
0.0000000001
 43
0.0000000001
 40
0.0
 40
0.0
 40
0.0
 40
0.0
 40
0.2
 40
0.2
 40
0.2
 40
0.2
 40
0.4
 40
0.4
 40
0.4
 40
0.4
 40
0.6000000000000001
 40
0.6000000000000001
 40
0.6000000000000001
 40
0.6000000000000001
 40
0.8
 40
0.8
 40
0.8
 40
0.8
 40
1.0
 40
1.0
 40
1.0
 40
1.0
 10
-11.57063
 20
8.89669
 30
0.0
 10
-11.5898
 20
8.97802
 30
0.0
 10
-11.6
 20
9.06282
 30
0.0
 10
-11.6
 20
9.15
 30
0.0
 10
-11.6
 20
9.15
 30
0.0
 10
-11.6
 20
9.16096
 30
0.0
 10
-11.59979
 20
9.17187
 30
0.0
 10
-11.59948
 20
9.18275
 30
0.0
 10
-11.59948
 20
9.18275
 30
0.0
 10
-11.59948
 20
9.18275
 30
0.0
 10
-11.46672
 20
9.04999
 30
0.0
 10
-11.46672
 20
9.04999
 30
0.0
 10
-11.46672
 20
9.04999
 30
0.0
 10
-11.4299
 20
9.01318
 30
0.0
 10
-11.4299
 20
8.95347
 30
0.0
 10
-11.46672
 20
8.91666
 30
0.0
 10
-11.46672
 20
8.91666
 30
0.0
 10
-11.49481
 20
8.88856
 30
0.0
 10
-11.53623
 20
8.88191
 30
0.0
 10
-11.57063
 20
8.89669
 30
0.0
  0
SPLINE
  5
86
330
1F
100
AcDbEntity
  8
Layer 1
 62
   250
370
    35
100
AcDbSpline
210
0.0
220
0.0
230
1.0
 70
    11
 71
     3
 72
    16
 73
    12
 74
     0
 42
0.0000000001
 43
0.0000000001
 40
0.0
 40
0.0
 40
0.0
 40
0.0
 40
0.3333333333333333
 40
0.3333333333333333
 40
0.3333333333333333
 40
0.3333333333333333
 40
0.6666666666666666
 40
0.6666666666666666
 40
0.6666666666666666
 40
0.6666666666666666
 40
1.0
 40
1.0
 40
1.0
 40
1.0
 10
-10.97381
 20
8.15707
 30
0.0
 10
-11.07593
 20
8.20592
 30
0.0
 10
-11.16933
 20
8.27005
 30
0.0
 10
-11.25108
 20
8.3465
 30
0.0
 10
-11.25108
 20
8.3465
 30
0.0
 10
-11.21616
 20
8.36281
 30
0.0
 10
-11.1733
 20
8.35656
 30
0.0
 10
-11.14447
 20
8.32773
 30
0.0
 10
-11.14447
 20
8.32773
 30
0.0
 10
-11.14447
 20
8.32773
 30
0.0
 10
-10.97381
 20
8.15707
 30
0.0
 10
-10.97381
 20
8.15707
 30
0.0
  0
SPLINE
  5
87
330
1F
100
AcDbEntity
  8
Layer 1
 62
   250
370
    35
100
AcDbSpline
210
0.0
220
0.0
230
1.0
 70
    11
 71
     3
 72
    16
 73
    12
 74
     0
 42
0.0000000001
 43
0.0000000001
 40
0.0
 40
0.0
 40
0.0
 40
0.0
 40
0.3333333333333333
 40
0.3333333333333333
 40
0.3333333333333333
 40
0.3333333333333333
 40
0.6666666666666666
 40
0.6666666666666666
 40
0.6666666666666666
 40
0.6666666666666666
 40
1.0
 40
1.0
 40
1.0
 40
1.0
 10
-11.32504
 20
8.42264
 30
0.0
 10
-11.39205
 20
8.49858
 30
0.0
 10
-11.44875
 20
8.58382
 30
0.0
 10
-11.49293
 20
8.67619
 30
0.0
 10
-11.49293
 20
8.67619
 30
0.0
 10
-11.49293
 20
8.67619
 30
0.0
 10
-11.34449
 20
8.52775
 30
0.0
 10
-11.34449
 20
8.52775
 30
0.0
 10
-11.34449
 20
8.52775
 30
0.0
 10
-11.31607
 20
8.49933
 30
0.0
 10
-11.30959
 20
8.45728
 30
0.0
 10
-11.32504
 20
8.42264
 30
0.0
  0
SPLINE
  5
88
330
1F
100
AcDbEntity
  8
Layer 1
 62
   235
370
    35
100
AcDbSpline
210
0.0
220
0.0
230
1.0
 70
    11
 71
     3
 72
    28
 73
    24
 74
     0
 42
0.0000000001
 43
0.0000000001
 40
0.0
 40
0.0
 40
0.0
 40
0.0
 40
0.1666666666666667
 40
0.1666666666666667
 40
0.1666666666666667
 40
0.1666666666666667
 40
0.3333333333333333
 40
0.3333333333333333
 40
0.3333333333333333
 40
0.3333333333333333
 40
0.5
 40
0.5
 40
0.5
 40
0.5
 40
0.6666666666666666
 40
0.6666666666666666
 40
0.6666666666666666
 40
0.6666666666666666
 40
0.8333333333333333
 40
0.8333333333333333
 40
0.8333333333333333
 40
0.8333333333333333
 40
1.0
 40
1.0
 40
1.0
 40
1.0
 10
-13.18752
 20
9.42429
 30
0.0
 10
-13.18752
 20
9.36932
 30
0.0
 10
-13.16004
 20
9.34182
 30
0.0
 10
-13.10506
 20
9.34182
 30
0.0
 10
-13.10506
 20
9.34182
 30
0.0
 10
-13.10506
 20
9.34182
 30
0.0
 10
-13.01641
 20
9.34182
 30
0.0
 10
-13.01641
 20
9.34182
 30
0.0
 10
-13.01641
 20
9.34182
 30
0.0
 10
-13.01641
 20
9.34182
 30
0.0
 10
-13.08362
 20
9.63415
 30
0.0
 10
-13.08362
 20
9.63415
 30
0.0
 10
-13.08362
 20
9.63415
 30
0.0
 10
-13.08748
 20
9.64542
 30
0.0
 10
-13.09462
 20
9.65105
 30
0.0
 10
-13.10506
 20
9.65105
 30
0.0
 10
-13.10506
 20
9.65105
 30
0.0
 10
-13.16004
 20
9.65105
 30
0.0
 10
-13.18752
 20
9.62357
 30
0.0
 10
-13.18752
 20
9.56859
 30
0.0
 10
-13.18752
 20
9.56859
 30
0.0
 10
-13.18752
 20
9.56859
 30
0.0
 10
-13.18752
 20
9.42429
 30
0.0
 10
-13.18752
 20
9.42429
 30
0.0
  0
SPLINE
  5
89
330
1F
100
AcDbEntity
  8
Layer 1
 62
   235
370
    35
100
AcDbSpline
210
0.0
220
0.0
230
1.0
 70
    11
 71
     3
 72
    56
 73
    52
 74
     0
 42
0.0000000001
 43
0.0000000001
 40
0.0
 40
0.0
 40
0.0
 40
0.0
 40
0.0769230769230769
 40
0.0769230769230769
 40
0.0769230769230769
 40
0.0769230769230769
 40
0.1538461538461539
 40
0.1538461538461539
 40
0.1538461538461539
 40
0.1538461538461539
 40
0.2307692307692308
 40
0.2307692307692308
 40
0.2307692307692308
 40
0.2307692307692308
 40
0.3076923076923077
 40
0.3076923076923077
 40
0.3076923076923077
 40
0.3076923076923077
 40
0.3846153846153846
 40
0.3846153846153846
 40
0.3846153846153846
 40
0.3846153846153846
 40
0.4615384615384616
 40
0.4615384615384616
 40
0.4615384615384616
 40
0.4615384615384616
 40
0.5384615384615385
 40
0.5384615384615385
 40
0.5384615384615385
 40
0.5384615384615385
 40
0.6153846153846154
 40
0.6153846153846154
 40
0.6153846153846154
 40
0.6153846153846154
 40
0.6923076923076923
 40
0.6923076923076923
 40
0.6923076923076923
 40
0.6923076923076923
 40
0.7692307692307692
 40
0.7692307692307692
 40
0.7692307692307692
 40
0.7692307692307692
 40
0.846153846153846
 40
0.846153846153846
 40
0.846153846153846
 40
0.846153846153846
 40
0.9230769230769229
 40
0.9230769230769229
 40
0.9230769230769229
 40
0.9230769230769229
 40
1.0
 40
1.0
 40
1.0
 40
1.0
 10
-12.8783
 20
9.56859
 30
0.0
 10
-12.8783
 20
9.62357
 30
0.0
 10
-12.90578
 20
9.65105
 30
0.0
 10
-12.96075
 20
9.65105
 30
0.0
 10
-12.96075
 20
9.65105
 30
0.0
 10
-12.96075
 20
9.65105
 30
0.0
 10
-12.96075
 20
9.71289
 30
0.0
 10
-12.96075
 20
9.71289
 30
0.0
 10
-12.96075
 20
9.71289
 30
0.0
 10
-12.86455
 20
9.71289
 30
0.0
 10
-12.81645
 20
9.6648
 30
0.0
 10
-12.81645
 20
9.56859
 30
0.0
 10
-12.81645
 20
9.56859
 30
0.0
 10
-12.81645
 20
9.56859
 30
0.0
 10
-12.81645
 20
9.42429
 30
0.0
 10
-12.81645
 20
9.42429
 30
0.0
 10
-12.81645
 20
9.42429
 30
0.0
 10
-12.81645
 20
9.32809
 30
0.0
 10
-12.86455
 20
9.27998
 30
0.0
 10
-12.96075
 20
9.27998
 30
0.0
 10
-12.96075
 20
9.27998
 30
0.0
 10
-12.96075
 20
9.27998
 30
0.0
 10
-13.10506
 20
9.27998
 30
0.0
 10
-13.10506
 20
9.27998
 30
0.0
 10
-13.10506
 20
9.27998
 30
0.0
 10
-13.20127
 20
9.27998
 30
0.0
 10
-13.24936
 20
9.32809
 30
0.0
 10
-13.24936
 20
9.42429
 30
0.0
 10
-13.24936
 20
9.42429
 30
0.0
 10
-13.24936
 20
9.42429
 30
0.0
 10
-13.24936
 20
9.56859
 30
0.0
 10
-13.24936
 20
9.56859
 30
0.0
 10
-13.24936
 20
9.56859
 30
0.0
 10
-13.24936
 20
9.6648
 30
0.0
 10
-13.20813
 20
9.71289
 30
0.0
 10
-13.12567
 20
9.71289
 30
0.0
 10
-13.12567
 20
9.71289
 30
0.0
 10
-13.06575
 20
9.71289
 30
0.0
 10
-13.03139
 20
9.69201
 30
0.0
 10
-13.02259
 20
9.65023
 30
0.0
 10
-13.02259
 20
9.65023
 30
0.0
 10
-13.02259
 20
9.65023
 30
0.0
 10
-12.95251
 20
9.34225
 30
0.0
 10
-12.95251
 20
9.34225
 30
0.0
 10
-12.95251
 20
9.34225
 30
0.0
 10
-12.90302
 20
9.34471
 30
0.0
 10
-12.8783
 20
9.37206
 30
0.0
 10
-12.8783
 20
9.42429
 30
0.0
 10
-12.8783
 20
9.42429
 30
0.0
 10
-12.8783
 20
9.42429
 30
0.0
 10
-12.8783
 20
9.56859
 30
0.0
 10
-12.8783
 20
9.56859
 30
0.0
  0
SPLINE
  5
8A
330
1F
100
AcDbEntity
  8
Layer 1
 62
   235
370
    35
100
AcDbSpline
210
0.0
220
0.0
230
1.0
 70
    11
 71
     3
 72
    36
 73
    32
 74
     0
 42
0.0000000001
 43
0.0000000001
 40
0.0
 40
0.0
 40
0.0
 40
0.0
 40
0.125
 40
0.125
 40
0.125
 40
0.125
 40
0.25
 40
0.25
 40
0.25
 40
0.25
 40
0.375
 40
0.375
 40
0.375
 40
0.375
 40
0.5
 40
0.5
 40
0.5
 40
0.5
 40
0.625
 40
0.625
 40
0.625
 40
0.625
 40
0.75
 40
0.75
 40
0.75
 40
0.75
 40
0.875
 40
0.875
 40
0.875
 40
0.875
 40
1.0
 40
1.0
 40
1.0
 40
1.0
 10
-12.81645
 20
9.01199
 30
0.0
 10
-12.81645
 20
9.01199
 30
0.0
 10
-12.81645
 20
8.84708
 30
0.0
 10
-12.81645
 20
8.84708
 30
0.0
 10
-12.81645
 20
8.84708
 30
0.0
 10
-12.81645
 20
8.84708
 30
0.0
 10
-12.8783
 20
8.84708
 30
0.0
 10
-12.8783
 20
8.84708
 30
0.0
 10
-12.8783
 20
8.84708
 30
0.0
 10
-12.8783
 20
8.84708
 30
0.0
 10
-12.8783
 20
9.01199
 30
0.0
 10
-12.8783
 20
9.01199
 30
0.0
 10
-12.8783
 20
9.01199
 30
0.0
 10
-12.8783
 20
9.1082
 30
0.0
 10
-12.9264
 20
9.15629
 30
0.0
 10
-13.02259
 20
9.15629
 30
0.0
 10
-13.02259
 20
9.15629
 30
0.0
 10
-13.02259
 20
9.15629
 30
0.0
 10
-13.24936
 20
9.15629
 30
0.0
 10
-13.24936
 20
9.15629
 30
0.0
 10
-13.24936
 20
9.15629
 30
0.0
 10
-13.24936
 20
9.15629
 30
0.0
 10
-13.24936
 20
9.21815
 30
0.0
 10
-13.24936
 20
9.21815
 30
0.0
 10
-13.24936
 20
9.21815
 30
0.0
 10
-13.24936
 20
9.21815
 30
0.0
 10
-13.02259
 20
9.21815
 30
0.0
 10
-13.02259
 20
9.21815
 30
0.0
 10
-13.02259
 20
9.21815
 30
0.0
 10
-12.88517
 20
9.21815
 30
0.0
 10
-12.81645
 20
9.14942
 30
0.0
 10
-12.81645
 20
9.01199
 30
0.0
  0
SPLINE
  5
8B
330
1F
100
AcDbEntity
  8
Layer 1
 62
   235
370
    35
100
AcDbSpline
210
0.0
220
0.0
230
1.0
 70
    11
 71
     3
 72
    32
 73
    28
 74
     0
 42
0.0000000001
 43
0.0000000001
 40
0.0
 40
0.0
 40
0.0
 40
0.0
 40
0.1428571428571428
 40
0.1428571428571428
 40
0.1428571428571428
 40
0.1428571428571428
 40
0.2857142857142857
 40
0.2857142857142857
 40
0.2857142857142857
 40
0.2857142857142857
 40
0.4285714285714285
 40
0.4285714285714285
 40
0.4285714285714285
 40
0.4285714285714285
 40
0.5714285714285714
 40
0.5714285714285714
 40
0.5714285714285714
 40
0.5714285714285714
 40
0.7142857142857142
 40
0.7142857142857142
 40
0.7142857142857142
 40
0.7142857142857142
 40
0.857142857142857
 40
0.857142857142857
 40
0.857142857142857
 40
0.857142857142857
 40
1.0
 40
1.0
 40
1.0
 40
1.0
 10
-13.10078
 20
9.82268
 30
0.0
 10
-13.15577
 20
9.82268
 30
0.0
 10
-13.18325
 20
9.85016
 30
0.0
 10
-13.18325
 20
9.90513
 30
0.0
 10
-13.18325
 20
9.90513
 30
0.0
 10
-13.18325
 20
9.90513
 30
0.0
 10
-13.18325
 20
10.15972
 30
0.0
 10
-13.18325
 20
10.15972
 30
0.0
 10
-13.18325
 20
10.15972
 30
0.0
 10
-13.18325
 20
10.15972
 30
0.0
 10
-13.01832
 20
10.15972
 30
0.0
 10
-13.01832
 20
10.15972
 30
0.0
 10
-13.01832
 20
10.15972
 30
0.0
 10
-12.92212
 20
10.15972
 30
0.0
 10
-12.87402
 20
10.11163
 30
0.0
 10
-12.87402
 20
10.01542
 30
0.0
 10
-12.87402
 20
10.01542
 30
0.0
 10
-12.87402
 20
10.01542
 30
0.0
 10
-12.87402
 20
9.90513
 30
0.0
 10
-12.87402
 20
9.90513
 30
0.0
 10
-12.87402
 20
9.90513
 30
0.0
 10
-12.87402
 20
9.85016
 30
0.0
 10
-12.90151
 20
9.82268
 30
0.0
 10
-12.95649
 20
9.82268
 30
0.0
 10
-12.95649
 20
9.82268
 30
0.0
 10
-12.95649
 20
9.82268
 30
0.0
 10
-13.10078
 20
9.82268
 30
0.0
 10
-13.10078
 20
9.82268
 30
0.0
  0
SPLINE
  5
8C
330
1F
100
AcDbEntity
  8
Layer 1
 62
   235
370
    35
100
AcDbSpline
210
0.0
220
0.0
230
1.0
 70
    11
 71
     3
 72
    44
 73
    40
 74
     0
 42
0.0000000001
 43
0.0000000001
 40
0.0
 40
0.0
 40
0.0
 40
0.0
 40
0.1
 40
0.1
 40
0.1
 40
0.1
 40
0.2
 40
0.2
 40
0.2
 40
0.2
 40
0.3
 40
0.3
 40
0.3
 40
0.3
 40
0.4
 40
0.4
 40
0.4
 40
0.4
 40
0.5
 40
0.5
 40
0.5
 40
0.5
 40
0.6
 40
0.6
 40
0.6
 40
0.6
 40
0.7
 40
0.7
 40
0.7
 40
0.7
 40
0.7999999999999999
 40
0.7999999999999999
 40
0.7999999999999999
 40
0.7999999999999999
 40
0.8999999999999999
 40
0.8999999999999999
 40
0.8999999999999999
 40
0.8999999999999999
 40
1.0
 40
1.0
 40
1.0
 40
1.0
 10
-12.81218
 20
9.90513
 30
0.0
 10
-12.81218
 20
9.90513
 30
0.0
 10
-12.81218
 20
10.01554
 30
0.0
 10
-12.81218
 20
10.01554
 30
0.0
 10
-12.81218
 20
10.01554
 30
0.0
 10
-12.81223
 20
10.15026
 30
0.0
 10
-12.87849
 20
10.21874
 30
0.0
 10
-13.01067
 20
10.22133
 30
0.0
 10
-13.01067
 20
10.22133
 30
0.0
 10
-13.01067
 20
10.22133
 30
0.0
 10
-13.01067
 20
10.22157
 30
0.0
 10
-13.01067
 20
10.22157
 30
0.0
 10
-13.01067
 20
10.22157
 30
0.0
 10
-13.01067
 20
10.22157
 30
0.0
 10
-13.47446
 20
10.22157
 30
0.0
 10
-13.47446
 20
10.22157
 30
0.0
 10
-13.47446
 20
10.22157
 30
0.0
 10
-13.47446
 20
10.22157
 30
0.0
 10
-13.47446
 20
10.15972
 30
0.0
 10
-13.47446
 20
10.15972
 30
0.0
 10
-13.47446
 20
10.15972
 30
0.0
 10
-13.47446
 20
10.15972
 30
0.0
 10
-13.2451
 20
10.15972
 30
0.0
 10
-13.2451
 20
10.15972
 30
0.0
 10
-13.2451
 20
10.15972
 30
0.0
 10
-13.2451
 20
10.15972
 30
0.0
 10
-13.2451
 20
9.90513
 30
0.0
 10
-13.2451
 20
9.90513
 30
0.0
 10
-13.2451
 20
9.90513
 30
0.0
 10
-13.2451
 20
9.80893
 30
0.0
 10
-13.19699
 20
9.76083
 30
0.0
 10
-13.10078
 20
9.76083
 30
0.0
 10
-13.10078
 20
9.76083
 30
0.0
 10
-13.10078
 20
9.76083
 30
0.0
 10
-12.95649
 20
9.76083
 30
0.0
 10
-12.95649
 20
9.76083
 30
0.0
 10
-12.95649
 20
9.76083
 30
0.0
 10
-12.86029
 20
9.76083
 30
0.0
 10
-12.81218
 20
9.80893
 30
0.0
 10
-12.81218
 20
9.90513
 30
0.0
  0
SPLINE
  5
8D
330
1F
100
AcDbEntity
  8
Layer 1
 62
   235
370
    35
100
AcDbSpline
210
0.0
220
0.0
230
1.0
 70
    11
 71
     3
 72
    28
 73
    24
 74
     0
 42
0.0000000001
 43
0.0000000001
 40
0.0
 40
0.0
 40
0.0
 40
0.0
 40
0.1666666666666667
 40
0.1666666666666667
 40
0.1666666666666667
 40
0.1666666666666667
 40
0.3333333333333333
 40
0.3333333333333333
 40
0.3333333333333333
 40
0.3333333333333333
 40
0.5
 40
0.5
 40
0.5
 40
0.5
 40
0.6666666666666666
 40
0.6666666666666666
 40
0.6666666666666666
 40
0.6666666666666666
 40
0.8333333333333333
 40
0.8333333333333333
 40
0.8333333333333333
 40
0.8333333333333333
 40
1.0
 40
1.0
 40
1.0
 40
1.0
 10
-13.18752
 20
8.49663
 30
0.0
 10
-13.18752
 20
8.44165
 30
0.0
 10
-13.16004
 20
8.41416
 30
0.0
 10
-13.10506
 20
8.41416
 30
0.0
 10
-13.10506
 20
8.41416
 30
0.0
 10
-13.10506
 20
8.41416
 30
0.0
 10
-13.01641
 20
8.41416
 30
0.0
 10
-13.01641
 20
8.41416
 30
0.0
 10
-13.01641
 20
8.41416
 30
0.0
 10
-13.01641
 20
8.41416
 30
0.0
 10
-13.08362
 20
8.7065
 30
0.0
 10
-13.08362
 20
8.7065
 30
0.0
 10
-13.08362
 20
8.7065
 30
0.0
 10
-13.08748
 20
8.71775
 30
0.0
 10
-13.09462
 20
8.72339
 30
0.0
 10
-13.10506
 20
8.72339
 30
0.0
 10
-13.10506
 20
8.72339
 30
0.0
 10
-13.16004
 20
8.72339
 30
0.0
 10
-13.18752
 20
8.69591
 30
0.0
 10
-13.18752
 20
8.64094
 30
0.0
 10
-13.18752
 20
8.64094
 30
0.0
 10
-13.18752
 20
8.64094
 30
0.0
 10
-13.18752
 20
8.49663
 30
0.0
 10
-13.18752
 20
8.49663
 30
0.0
  0
SPLINE
  5
8E
330
1F
100
AcDbEntity
  8
Layer 1
 62
   235
370
    35
100
AcDbSpline
210
0.0
220
0.0
230
1.0
 70
    11
 71
     3
 72
    56
 73
    52
 74
     0
 42
0.0000000001
 43
0.0000000001
 40
0.0
 40
0.0
 40
0.0
 40
0.0
 40
0.0769230769230769
 40
0.0769230769230769
 40
0.0769230769230769
 40
0.0769230769230769
 40
0.1538461538461539
 40
0.1538461538461539
 40
0.1538461538461539
 40
0.1538461538461539
 40
0.2307692307692308
 40
0.2307692307692308
 40
0.2307692307692308
 40
0.2307692307692308
 40
0.3076923076923077
 40
0.3076923076923077
 40
0.3076923076923077
 40
0.3076923076923077
 40
0.3846153846153846
 40
0.3846153846153846
 40
0.3846153846153846
 40
0.3846153846153846
 40
0.4615384615384616
 40
0.4615384615384616
 40
0.4615384615384616
 40
0.4615384615384616
 40
0.5384615384615385
 40
0.5384615384615385
 40
0.5384615384615385
 40
0.5384615384615385
 40
0.6153846153846154
 40
0.6153846153846154
 40
0.6153846153846154
 40
0.6153846153846154
 40
0.6923076923076923
 40
0.6923076923076923
 40
0.6923076923076923
 40
0.6923076923076923
 40
0.7692307692307692
 40
0.7692307692307692
 40
0.7692307692307692
 40
0.7692307692307692
 40
0.846153846153846
 40
0.846153846153846
 40
0.846153846153846
 40
0.846153846153846
 40
0.9230769230769229
 40
0.9230769230769229
 40
0.9230769230769229
 40
0.9230769230769229
 40
1.0
 40
1.0
 40
1.0
 40
1.0
 10
-12.8783
 20
8.64094
 30
0.0
 10
-12.8783
 20
8.69591
 30
0.0
 10
-12.90578
 20
8.72339
 30
0.0
 10
-12.96075
 20
8.72339
 30
0.0
 10
-12.96075
 20
8.72339
 30
0.0
 10
-12.96075
 20
8.72339
 30
0.0
 10
-12.96075
 20
8.78523
 30
0.0
 10
-12.96075
 20
8.78523
 30
0.0
 10
-12.96075
 20
8.78523
 30
0.0
 10
-12.86455
 20
8.78523
 30
0.0
 10
-12.81645
 20
8.73714
 30
0.0
 10
-12.81645
 20
8.64094
 30
0.0
 10
-12.81645
 20
8.64094
 30
0.0
 10
-12.81645
 20
8.64094
 30
0.0
 10
-12.81645
 20
8.49663
 30
0.0
 10
-12.81645
 20
8.49663
 30
0.0
 10
-12.81645
 20
8.49663
 30
0.0
 10
-12.81645
 20
8.40042
 30
0.0
 10
-12.86455
 20
8.35231
 30
0.0
 10
-12.96075
 20
8.35231
 30
0.0
 10
-12.96075
 20
8.35231
 30
0.0
 10
-12.96075
 20
8.35231
 30
0.0
 10
-13.10506
 20
8.35231
 30
0.0
 10
-13.10506
 20
8.35231
 30
0.0
 10
-13.10506
 20
8.35231
 30
0.0
 10
-13.20127
 20
8.35231
 30
0.0
 10
-13.24936
 20
8.40042
 30
0.0
 10
-13.24936
 20
8.49663
 30
0.0
 10
-13.24936
 20
8.49663
 30
0.0
 10
-13.24936
 20
8.49663
 30
0.0
 10
-13.24936
 20
8.64094
 30
0.0
 10
-13.24936
 20
8.64094
 30
0.0
 10
-13.24936
 20
8.64094
 30
0.0
 10
-13.24936
 20
8.73714
 30
0.0
 10
-13.20813
 20
8.78523
 30
0.0
 10
-13.12567
 20
8.78523
 30
0.0
 10
-13.12567
 20
8.78523
 30
0.0
 10
-13.06575
 20
8.78523
 30
0.0
 10
-13.03139
 20
8.76436
 30
0.0
 10
-13.02259
 20
8.72257
 30
0.0
 10
-13.02259
 20
8.72257
 30
0.0
 10
-13.02259
 20
8.72257
 30
0.0
 10
-12.95251
 20
8.41457
 30
0.0
 10
-12.95251
 20
8.41457
 30
0.0
 10
-12.95251
 20
8.41457
 30
0.0
 10
-12.90302
 20
8.41705
 30
0.0
 10
-12.8783
 20
8.4444
 30
0.0
 10
-12.8783
 20
8.49663
 30
0.0
 10
-12.8783
 20
8.49663
 30
0.0
 10
-12.8783
 20
8.49663
 30
0.0
 10
-12.8783
 20
8.64094
 30
0.0
 10
-12.8783
 20
8.64094
 30
0.0
  0
SPLINE
  5
8F
330
1F
100
AcDbEntity
  8
Layer 1
 62
   235
370
    35
100
AcDbSpline
210
0.0
220
0.0
230
1.0
 70
    11
 71
     3
 72
    20
 73
    16
 74
     0
 42
0.0000000001
 43
0.0000000001
 40
0.0
 40
0.0
 40
0.0
 40
0.0
 40
0.25
 40
0.25
 40
0.25
 40
0.25
 40
0.5
 40
0.5
 40
0.5
 40
0.5
 40
0.75
 40
0.75
 40
0.75
 40
0.75
 40
1.0
 40
1.0
 40
1.0
 40
1.0
 10
-12.63091
 20
8.29047
 30
0.0
 10
-12.63091
 20
8.29047
 30
0.0
 10
-12.63091
 20
8.22862
 30
0.0
 10
-12.63091
 20
8.22862
 30
0.0
 10
-12.63091
 20
8.22862
 30
0.0
 10
-12.63091
 20
8.22862
 30
0.0
 10
-13.24936
 20
8.22862
 30
0.0
 10
-13.24936
 20
8.22862
 30
0.0
 10
-13.24936
 20
8.22862
 30
0.0
 10
-13.24936
 20
8.22862
 30
0.0
 10
-13.24936
 20
8.29047
 30
0.0
 10
-13.24936
 20
8.29047
 30
0.0
 10
-13.24936
 20
8.29047
 30
0.0
 10
-13.24936
 20
8.29047
 30
0.0
 10
-12.63091
 20
8.29047
 30
0.0
 10
-12.63091
 20
8.29047
 30
0.0
  0
SPLINE
  5
90
330
1F
100
AcDbEntity
  8
Layer 1
 62
   235
370
    35
100
AcDbSpline
210
0.0
220
0.0
230
1.0
 70
    11
 71
     3
 72
    20
 73
    16
 74
     0
 42
0.0000000001
 43
0.0000000001
 40
0.0
 40
0.0
 40
0.0
 40
0.0
 40
0.25
 40
0.25
 40
0.25
 40
0.25
 40
0.5
 40
0.5
 40
0.5
 40
0.5
 40
0.75
 40
0.75
 40
0.75
 40
0.75
 40
1.0
 40
1.0
 40
1.0
 40
1.0
 10
-12.63091
 20
8.16678
 30
0.0
 10
-12.63091
 20
8.16678
 30
0.0
 10
-12.63091
 20
8.10494
 30
0.0
 10
-12.63091
 20
8.10494
 30
0.0
 10
-12.63091
 20
8.10494
 30
0.0
 10
-12.63091
 20
8.10494
 30
0.0
 10
-13.24936
 20
8.10494
 30
0.0
 10
-13.24936
 20
8.10494
 30
0.0
 10
-13.24936
 20
8.10494
 30
0.0
 10
-13.24936
 20
8.10494
 30
0.0
 10
-13.24936
 20
8.16678
 30
0.0
 10
-13.24936
 20
8.16678
 30
0.0
 10
-13.24936
 20
8.16678
 30
0.0
 10
-13.24936
 20
8.16678
 30
0.0
 10
-12.63091
 20
8.16678
 30
0.0
 10
-12.63091
 20
8.16678
 30
0.0
  0
SPLINE
  5
91
330
1F
100
AcDbEntity
  8
Layer 1
 62
   235
370
    35
100
AcDbSpline
210
0.0
220
0.0
230
1.0
 70
    11
 71
     3
 72
    28
 73
    24
 74
     0
 42
0.0000000001
 43
0.0000000001
 40
0.0
 40
0.0
 40
0.0
 40
0.0
 40
0.1666666666666667
 40
0.1666666666666667
 40
0.1666666666666667
 40
0.1666666666666667
 40
0.3333333333333333
 40
0.3333333333333333
 40
0.3333333333333333
 40
0.3333333333333333
 40
0.5
 40
0.5
 40
0.5
 40
0.5
 40
0.6666666666666666
 40
0.6666666666666666
 40
0.6666666666666666
 40
0.6666666666666666
 40
0.8333333333333333
 40
0.8333333333333333
 40
0.8333333333333333
 40
0.8333333333333333
 40
1.0
 40
1.0
 40
1.0
 40
1.0
 10
-12.8783
 20
7.90911
 30
0.0
 10
-12.8783
 20
7.96407
 30
0.0
 10
-12.90578
 20
7.99156
 30
0.0
 10
-12.96075
 20
7.99156
 30
0.0
 10
-12.96075
 20
7.99156
 30
0.0
 10
-12.96075
 20
7.99156
 30
0.0
 10
-13.0494
 20
7.99156
 30
0.0
 10
-13.0494
 20
7.99156
 30
0.0
 10
-13.0494
 20
7.99156
 30
0.0
 10
-13.0494
 20
7.99156
 30
0.0
 10
-12.98219
 20
7.69925
 30
0.0
 10
-12.98219
 20
7.69925
 30
0.0
 10
-12.98219
 20
7.69925
 30
0.0
 10
-12.97834
 20
7.68799
 30
0.0
 10
-12.97121
 20
7.68235
 30
0.0
 10
-12.96075
 20
7.68235
 30
0.0
 10
-12.96075
 20
7.68235
 30
0.0
 10
-12.90578
 20
7.68235
 30
0.0
 10
-12.8783
 20
7.70983
 30
0.0
 10
-12.8783
 20
7.76481
 30
0.0
 10
-12.8783
 20
7.76481
 30
0.0
 10
-12.8783
 20
7.76481
 30
0.0
 10
-12.8783
 20
7.90911
 30
0.0
 10
-12.8783
 20
7.90911
 30
0.0
  0
SPLINE
  5
92
330
1F
100
AcDbEntity
  8
Layer 1
 62
   235
370
    35
100
AcDbSpline
210
0.0
220
0.0
230
1.0
 70
    11
 71
     3
 72
    56
 73
    52
 74
     0
 42
0.0000000001
 43
0.0000000001
 40
0.0
 40
0.0
 40
0.0
 40
0.0
 40
0.0769230769230769
 40
0.0769230769230769
 40
0.0769230769230769
 40
0.0769230769230769
 40
0.1538461538461539
 40
0.1538461538461539
 40
0.1538461538461539
 40
0.1538461538461539
 40
0.2307692307692308
 40
0.2307692307692308
 40
0.2307692307692308
 40
0.2307692307692308
 40
0.3076923076923077
 40
0.3076923076923077
 40
0.3076923076923077
 40
0.3076923076923077
 40
0.3846153846153846
 40
0.3846153846153846
 40
0.3846153846153846
 40
0.3846153846153846
 40
0.4615384615384616
 40
0.4615384615384616
 40
0.4615384615384616
 40
0.4615384615384616
 40
0.5384615384615385
 40
0.5384615384615385
 40
0.5384615384615385
 40
0.5384615384615385
 40
0.6153846153846154
 40
0.6153846153846154
 40
0.6153846153846154
 40
0.6153846153846154
 40
0.6923076923076923
 40
0.6923076923076923
 40
0.6923076923076923
 40
0.6923076923076923
 40
0.7692307692307692
 40
0.7692307692307692
 40
0.7692307692307692
 40
0.7692307692307692
 40
0.846153846153846
 40
0.846153846153846
 40
0.846153846153846
 40
0.846153846153846
 40
0.9230769230769229
 40
0.9230769230769229
 40
0.9230769230769229
 40
0.9230769230769229
 40
1.0
 40
1.0
 40
1.0
 40
1.0
 10
-13.18752
 20
7.76481
 30
0.0
 10
-13.18752
 20
7.70983
 30
0.0
 10
-13.16004
 20
7.68235
 30
0.0
 10
-13.10506
 20
7.68235
 30
0.0
 10
-13.10506
 20
7.68235
 30
0.0
 10
-13.10506
 20
7.68235
 30
0.0
 10
-13.10506
 20
7.62051
 30
0.0
 10
-13.10506
 20
7.62051
 30
0.0
 10
-13.10506
 20
7.62051
 30
0.0
 10
-13.20126
 20
7.62051
 30
0.0
 10
-13.24936
 20
7.6686
 30
0.0
 10
-13.24936
 20
7.76481
 30
0.0
 10
-13.24936
 20
7.76481
 30
0.0
 10
-13.24936
 20
7.76481
 30
0.0
 10
-13.24936
 20
7.90911
 30
0.0
 10
-13.24936
 20
7.90911
 30
0.0
 10
-13.24936
 20
7.90911
 30
0.0
 10
-13.24936
 20
8.00532
 30
0.0
 10
-13.20126
 20
8.05341
 30
0.0
 10
-13.10506
 20
8.05341
 30
0.0
 10
-13.10506
 20
8.05341
 30
0.0
 10
-13.10506
 20
8.05341
 30
0.0
 10
-12.96075
 20
8.05341
 30
0.0
 10
-12.96075
 20
8.05341
 30
0.0
 10
-12.96075
 20
8.05341
 30
0.0
 10
-12.86455
 20
8.05341
 30
0.0
 10
-12.81645
 20
8.00532
 30
0.0
 10
-12.81645
 20
7.90911
 30
0.0
 10
-12.81645
 20
7.90911
 30
0.0
 10
-12.81645
 20
7.90911
 30
0.0
 10
-12.81645
 20
7.76481
 30
0.0
 10
-12.81645
 20
7.76481
 30
0.0
 10
-12.81645
 20
7.76481
 30
0.0
 10
-12.81645
 20
7.6686
 30
0.0
 10
-12.85768
 20
7.62051
 30
0.0
 10
-12.94013
 20
7.62051
 30
0.0
 10
-12.94013
 20
7.62051
 30
0.0
 10
-13.00005
 20
7.62051
 30
0.0
 10
-13.03442
 20
7.64139
 30
0.0
 10
-13.04321
 20
7.68317
 30
0.0
 10
-13.04321
 20
7.68317
 30
0.0
 10
-13.04321
 20
7.68317
 30
0.0
 10
-13.1133
 20
7.99116
 30
0.0
 10
-13.1133
 20
7.99116
 30
0.0
 10
-13.1133
 20
7.99116
 30
0.0
 10
-13.16278
 20
7.98867
 30
0.0
 10
-13.18752
 20
7.96132
 30
0.0
 10
-13.18752
 20
7.90911
 30
0.0
 10
-13.18752
 20
7.90911
 30
0.0
 10
-13.18752
 20
7.90911
 30
0.0
 10
-13.18752
 20
7.76481
 30
0.0
 10
-13.18752
 20
7.76481
 30
0.0
  0
SPLINE
  5
93
330
1F
100
AcDbEntity
  8
Layer 1
 62
   235
370
    35
100
AcDbSpline
210
0.0
220
0.0
230
1.0
 70
    11
 71
     3
 72
    20
 73
    16
 74
     0
 42
0.0000000001
 43
0.0000000001
 40
0.0
 40
0.0
 40
0.0
 40
0.0
 40
0.25
 40
0.25
 40
0.25
 40
0.25
 40
0.5
 40
0.5
 40
0.5
 40
0.5
 40
0.75
 40
0.75
 40
0.75
 40
0.75
 40
1.0
 40
1.0
 40
1.0
 40
1.0
 10
-12.63091
 20
7.57926
 30
0.0
 10
-12.63091
 20
7.57926
 30
0.0
 10
-12.63091
 20
7.51741
 30
0.0
 10
-12.63091
 20
7.51741
 30
0.0
 10
-12.63091
 20
7.51741
 30
0.0
 10
-12.63091
 20
7.51741
 30
0.0
 10
-13.24936
 20
7.51741
 30
0.0
 10
-13.24936
 20
7.51741
 30
0.0
 10
-13.24936
 20
7.51741
 30
0.0
 10
-13.24936
 20
7.51741
 30
0.0
 10
-13.24936
 20
7.57926
 30
0.0
 10
-13.24936
 20
7.57926
 30
0.0
 10
-13.24936
 20
7.57926
 30
0.0
 10
-13.24936
 20
7.57926
 30
0.0
 10
-12.63091
 20
7.57926
 30
0.0
 10
-12.63091
 20
7.57926
 30
0.0
  0
SPLINE
  5
94
330
1F
100
AcDbEntity
  8
Layer 1
 62
   235
370
    35
100
AcDbSpline
210
0.0
220
0.0
230
1.0
 70
    11
 71
     3
 72
    20
 73
    16
 74
     0
 42
0.0000000001
 43
0.0000000001
 40
0.0
 40
0.0
 40
0.0
 40
0.0
 40
0.25
 40
0.25
 40
0.25
 40
0.25
 40
0.5
 40
0.5
 40
0.5
 40
0.5
 40
0.75
 40
0.75
 40
0.75
 40
0.75
 40
1.0
 40
1.0
 40
1.0
 40
1.0
 10
-12.63091
 20
7.45558
 30
0.0
 10
-12.63091
 20
7.45558
 30
0.0
 10
-12.63091
 20
7.39373
 30
0.0
 10
-12.63091
 20
7.39373
 30
0.0
 10
-12.63091
 20
7.39373
 30
0.0
 10
-12.63091
 20
7.39373
 30
0.0
 10
-13.24936
 20
7.39373
 30
0.0
 10
-13.24936
 20
7.39373
 30
0.0
 10
-13.24936
 20
7.39373
 30
0.0
 10
-13.24936
 20
7.39373
 30
0.0
 10
-13.24936
 20
7.45558
 30
0.0
 10
-13.24936
 20
7.45558
 30
0.0
 10
-13.24936
 20
7.45558
 30
0.0
 10
-13.24936
 20
7.45558
 30
0.0
 10
-12.63091
 20
7.45558
 30
0.0
 10
-12.63091
 20
7.45558
 30
0.0
  0
SPLINE
  5
95
330
1F
100
AcDbEntity
  8
Layer 1
 62
   235
370
    35
100
AcDbSpline
210
0.0
220
0.0
230
1.0
 70
    11
 71
     3
 72
    28
 73
    24
 74
     0
 42
0.0000000001
 43
0.0000000001
 40
0.0
 40
0.0
 40
0.0
 40
0.0
 40
0.1666666666666667
 40
0.1666666666666667
 40
0.1666666666666667
 40
0.1666666666666667
 40
0.3333333333333333
 40
0.3333333333333333
 40
0.3333333333333333
 40
0.3333333333333333
 40
0.5
 40
0.5
 40
0.5
 40
0.5
 40
0.6666666666666666
 40
0.6666666666666666
 40
0.6666666666666666
 40
0.6666666666666666
 40
0.8333333333333333
 40
0.8333333333333333
 40
0.8333333333333333
 40
0.8333333333333333
 40
1.0
 40
1.0
 40
1.0
 40
1.0
 10
-13.18752
 20
7.04327
 30
0.0
 10
-13.18752
 20
6.98831
 30
0.0
 10
-13.16004
 20
6.96081
 30
0.0
 10
-13.10506
 20
6.96081
 30
0.0
 10
-13.10506
 20
6.96081
 30
0.0
 10
-13.10506
 20
6.96081
 30
0.0
 10
-13.01641
 20
6.96081
 30
0.0
 10
-13.01641
 20
6.96081
 30
0.0
 10
-13.01641
 20
6.96081
 30
0.0
 10
-13.01641
 20
6.96081
 30
0.0
 10
-13.08362
 20
7.25313
 30
0.0
 10
-13.08362
 20
7.25313
 30
0.0
 10
-13.08362
 20
7.25313
 30
0.0
 10
-13.08748
 20
7.26439
 30
0.0
 10
-13.09462
 20
7.27004
 30
0.0
 10
-13.10506
 20
7.27004
 30
0.0
 10
-13.10506
 20
7.27004
 30
0.0
 10
-13.16004
 20
7.27004
 30
0.0
 10
-13.18752
 20
7.24255
 30
0.0
 10
-13.18752
 20
7.18757
 30
0.0
 10
-13.18752
 20
7.18757
 30
0.0
 10
-13.18752
 20
7.18757
 30
0.0
 10
-13.18752
 20
7.04327
 30
0.0
 10
-13.18752
 20
7.04327
 30
0.0
  0
SPLINE
  5
96
330
1F
100
AcDbEntity
  8
Layer 1
 62
   235
370
    35
100
AcDbSpline
210
0.0
220
0.0
230
1.0
 70
    11
 71
     3
 72
    56
 73
    52
 74
     0
 42
0.0000000001
 43
0.0000000001
 40
0.0
 40
0.0
 40
0.0
 40
0.0
 40
0.0769230769230769
 40
0.0769230769230769
 40
0.0769230769230769
 40
0.0769230769230769
 40
0.1538461538461539
 40
0.1538461538461539
 40
0.1538461538461539
 40
0.1538461538461539
 40
0.2307692307692308
 40
0.2307692307692308
 40
0.2307692307692308
 40
0.2307692307692308
 40
0.3076923076923077
 40
0.3076923076923077
 40
0.3076923076923077
 40
0.3076923076923077
 40
0.3846153846153846
 40
0.3846153846153846
 40
0.3846153846153846
 40
0.3846153846153846
 40
0.4615384615384616
 40
0.4615384615384616
 40
0.4615384615384616
 40
0.4615384615384616
 40
0.5384615384615385
 40
0.5384615384615385
 40
0.5384615384615385
 40
0.5384615384615385
 40
0.6153846153846154
 40
0.6153846153846154
 40
0.6153846153846154
 40
0.6153846153846154
 40
0.6923076923076923
 40
0.6923076923076923
 40
0.6923076923076923
 40
0.6923076923076923
 40
0.7692307692307692
 40
0.7692307692307692
 40
0.7692307692307692
 40
0.7692307692307692
 40
0.846153846153846
 40
0.846153846153846
 40
0.846153846153846
 40
0.846153846153846
 40
0.9230769230769229
 40
0.9230769230769229
 40
0.9230769230769229
 40
0.9230769230769229
 40
1.0
 40
1.0
 40
1.0
 40
1.0
 10
-12.8783
 20
7.18757
 30
0.0
 10
-12.8783
 20
7.24255
 30
0.0
 10
-12.90578
 20
7.27004
 30
0.0
 10
-12.96075
 20
7.27004
 30
0.0
 10
-12.96075
 20
7.27004
 30
0.0
 10
-12.96075
 20
7.27004
 30
0.0
 10
-12.96075
 20
7.33187
 30
0.0
 10
-12.96075
 20
7.33187
 30
0.0
 10
-12.96075
 20
7.33187
 30
0.0
 10
-12.86455
 20
7.33187
 30
0.0
 10
-12.81645
 20
7.28378
 30
0.0
 10
-12.81645
 20
7.18757
 30
0.0
 10
-12.81645
 20
7.18757
 30
0.0
 10
-12.81645
 20
7.18757
 30
0.0
 10
-12.81645
 20
7.04327
 30
0.0
 10
-12.81645
 20
7.04327
 30
0.0
 10
-12.81645
 20
7.04327
 30
0.0
 10
-12.81645
 20
6.94706
 30
0.0
 10
-12.86455
 20
6.89897
 30
0.0
 10
-12.96075
 20
6.89897
 30
0.0
 10
-12.96075
 20
6.89897
 30
0.0
 10
-12.96075
 20
6.89897
 30
0.0
 10
-13.10506
 20
6.89897
 30
0.0
 10
-13.10506
 20
6.89897
 30
0.0
 10
-13.10506
 20
6.89897
 30
0.0
 10
-13.20127
 20
6.89897
 30
0.0
 10
-13.24936
 20
6.94706
 30
0.0
 10
-13.24936
 20
7.04327
 30
0.0
 10
-13.24936
 20
7.04327
 30
0.0
 10
-13.24936
 20
7.04327
 30
0.0
 10
-13.24936
 20
7.18757
 30
0.0
 10
-13.24936
 20
7.18757
 30
0.0
 10
-13.24936
 20
7.18757
 30
0.0
 10
-13.24936
 20
7.28378
 30
0.0
 10
-13.20813
 20
7.33187
 30
0.0
 10
-13.12567
 20
7.33187
 30
0.0
 10
-13.12567
 20
7.33187
 30
0.0
 10
-13.06575
 20
7.33187
 30
0.0
 10
-13.03139
 20
7.311
 30
0.0
 10
-13.02259
 20
7.26921
 30
0.0
 10
-13.02259
 20
7.26921
 30
0.0
 10
-13.02259
 20
7.26921
 30
0.0
 10
-12.95251
 20
6.96124
 30
0.0
 10
-12.95251
 20
6.96124
 30
0.0
 10
-12.95251
 20
6.96124
 30
0.0
 10
-12.90302
 20
6.96369
 30
0.0
 10
-12.8783
 20
6.99105
 30
0.0
 10
-12.8783
 20
7.04327
 30
0.0
 10
-12.8783
 20
7.04327
 30
0.0
 10
-12.8783
 20
7.04327
 30
0.0
 10
-12.8783
 20
7.18757
 30
0.0
 10
-12.8783
 20
7.18757
 30
0.0
  0
SPLINE
  5
97
330
1F
100
AcDbEntity
  8
Layer 1
 62
   235
370
    35
100
AcDbSpline
210
0.0
220
0.0
230
1.0
 70
    11
 71
     3
 72
   312
 73
   308
 74
     0
 42
0.0000000001
 43
0.0000000001
 40
0.0
 40
0.0
 40
0.0
 40
0.0
 40
0.012987012987013
 40
0.012987012987013
 40
0.012987012987013
 40
0.012987012987013
 40
0.025974025974026
 40
0.025974025974026
 40
0.025974025974026
 40
0.025974025974026
 40
0.038961038961039
 40
0.038961038961039
 40
0.038961038961039
 40
0.038961038961039
 40
0.051948051948052
 40
0.051948051948052
 40
0.051948051948052
 40
0.051948051948052
 40
0.0649350649350649
 40
0.0649350649350649
 40
0.0649350649350649
 40
0.0649350649350649
 40
0.0779220779220779
 40
0.0779220779220779
 40
0.0779220779220779
 40
0.0779220779220779
 40
0.0909090909090909
 40
0.0909090909090909
 40
0.0909090909090909
 40
0.0909090909090909
 40
0.1038961038961039
 40
0.1038961038961039
 40
0.1038961038961039
 40
0.1038961038961039
 40
0.1168831168831169
 40
0.1168831168831169
 40
0.1168831168831169
 40
0.1168831168831169
 40
0.1298701298701299
 40
0.1298701298701299
 40
0.1298701298701299
 40
0.1298701298701299
 40
0.1428571428571429
 40
0.1428571428571429
 40
0.1428571428571429
 40
0.1428571428571429
 40
0.1558441558441559
 40
0.1558441558441559
 40
0.1558441558441559
 40
0.1558441558441559
 40
0.1688311688311689
 40
0.1688311688311689
 40
0.1688311688311689
 40
0.1688311688311689
 40
0.1818181818181819
 40
0.1818181818181819
 40
0.1818181818181819
 40
0.1818181818181819
 40
0.1948051948051948
 40
0.1948051948051948
 40
0.1948051948051948
 40
0.1948051948051948
 40
0.2077922077922078
 40
0.2077922077922078
 40
0.2077922077922078
 40
0.2077922077922078
 40
0.2207792207792208
 40
0.2207792207792208
 40
0.2207792207792208
 40
0.2207792207792208
 40
0.2337662337662338
 40
0.2337662337662338
 40
0.2337662337662338
 40
0.2337662337662338
 40
0.2467532467532468
 40
0.2467532467532468
 40
0.2467532467532468
 40
0.2467532467532468
 40
0.2597402597402598
 40
0.2597402597402598
 40
0.2597402597402598
 40
0.2597402597402598
 40
0.2727272727272728
 40
0.2727272727272728
 40
0.2727272727272728
 40
0.2727272727272728
 40
0.2857142857142858
 40
0.2857142857142858
 40
0.2857142857142858
 40
0.2857142857142858
 40
0.2987012987012987
 40
0.2987012987012987
 40
0.2987012987012987
 40
0.2987012987012987
 40
0.3116883116883117
 40
0.3116883116883117
 40
0.3116883116883117
 40
0.3116883116883117
 40
0.3246753246753247
 40
0.3246753246753247
 40
0.3246753246753247
 40
0.3246753246753247
 40
0.3376623376623377
 40
0.3376623376623377
 40
0.3376623376623377
 40
0.3376623376623377
 40
0.3506493506493507
 40
0.3506493506493507
 40
0.3506493506493507
 40
0.3506493506493507
 40
0.3636363636363637
 40
0.3636363636363637
 40
0.3636363636363637
 40
0.3636363636363637
 40
0.3766233766233767
 40
0.3766233766233767
 40
0.3766233766233767
 40
0.3766233766233767
 40
0.3896103896103897
 40
0.3896103896103897
 40
0.3896103896103897
 40
0.3896103896103897
 40
0.4025974025974027
 40
0.4025974025974027
 40
0.4025974025974027
 40
0.4025974025974027
 40
0.4155844155844157
 40
0.4155844155844157
 40
0.4155844155844157
 40
0.4155844155844157
 40
0.4285714285714287
 40
0.4285714285714287
 40
0.4285714285714287
 40
0.4285714285714287
 40
0.4415584415584416
 40
0.4415584415584416
 40
0.4415584415584416
 40
0.4415584415584416
 40
0.4545454545454546
 40
0.4545454545454546
 40
0.4545454545454546
 40
0.4545454545454546
 40
0.4675324675324676
 40
0.4675324675324676
 40
0.4675324675324676
 40
0.4675324675324676
 40
0.4805194805194806
 40
0.4805194805194806
 40
0.4805194805194806
 40
0.4805194805194806
 40
0.4935064935064936
 40
0.4935064935064936
 40
0.4935064935064936
 40
0.4935064935064936
 40
0.5064935064935066
 40
0.5064935064935066
 40
0.5064935064935066
 40
0.5064935064935066
 40
0.5194805194805195
 40
0.5194805194805195
 40
0.5194805194805195
 40
0.5194805194805195
 40
0.5324675324675325
 40
0.5324675324675325
 40
0.5324675324675325
 40
0.5324675324675325
 40
0.5454545454545455
 40
0.5454545454545455
 40
0.5454545454545455
 40
0.5454545454545455
 40
0.5584415584415585
 40
0.5584415584415585
 40
0.5584415584415585
 40
0.5584415584415585
 40
0.5714285714285715
 40
0.5714285714285715
 40
0.5714285714285715
 40
0.5714285714285715
 40
0.5844155844155845
 40
0.5844155844155845
 40
0.5844155844155845
 40
0.5844155844155845
 40
0.5974025974025975
 40
0.5974025974025975
 40
0.5974025974025975
 40
0.5974025974025975
 40
0.6103896103896105
 40
0.6103896103896105
 40
0.6103896103896105
 40
0.6103896103896105
 40
0.6233766233766235
 40
0.6233766233766235
 40
0.6233766233766235
 40
0.6233766233766235
 40
0.6363636363636365
 40
0.6363636363636365
 40
0.6363636363636365
 40
0.6363636363636365
 40
0.6493506493506495
 40
0.6493506493506495
 40
0.6493506493506495
 40
0.6493506493506495
 40
0.6623376623376624
 40
0.6623376623376624
 40
0.6623376623376624
 40
0.6623376623376624
 40
0.6753246753246754
 40
0.6753246753246754
 40
0.6753246753246754
 40
0.6753246753246754
 40
0.6883116883116884
 40
0.6883116883116884
 40
0.6883116883116884
 40
0.6883116883116884
 40
0.7012987012987014
 40
0.7012987012987014
 40
0.7012987012987014
 40
0.7012987012987014
 40
0.7142857142857144
 40
0.7142857142857144
 40
0.7142857142857144
 40
0.7142857142857144
 40
0.7272727272727274
 40
0.7272727272727274
 40
0.7272727272727274
 40
0.7272727272727274
 40
0.7402597402597404
 40
0.7402597402597404
 40
0.7402597402597404
 40
0.7402597402597404
 40
0.7532467532467534
 40
0.7532467532467534
 40
0.7532467532467534
 40
0.7532467532467534
 40
0.7662337662337664
 40
0.7662337662337664
 40
0.7662337662337664
 40
0.7662337662337664
 40
0.7792207792207794
 40
0.7792207792207794
 40
0.7792207792207794
 40
0.7792207792207794
 40
0.7922077922077924
 40
0.7922077922077924
 40
0.7922077922077924
 40
0.7922077922077924
 40
0.8051948051948054
 40
0.8051948051948054
 40
0.8051948051948054
 40
0.8051948051948054
 40
0.8181818181818183
 40
0.8181818181818183
 40
0.8181818181818183
 40
0.8181818181818183
 40
0.8311688311688313
 40
0.8311688311688313
 40
0.8311688311688313
 40
0.8311688311688313
 40
0.8441558441558443
 40
0.8441558441558443
 40
0.8441558441558443
 40
0.8441558441558443
 40
0.8571428571428573
 40
0.8571428571428573
 40
0.8571428571428573
 40
0.8571428571428573
 40
0.8701298701298703
 40
0.8701298701298703
 40
0.8701298701298703
 40
0.8701298701298703
 40
0.8831168831168833
 40
0.8831168831168833
 40
0.8831168831168833
 40
0.8831168831168833
 40
0.8961038961038963
 40
0.8961038961038963
 40
0.8961038961038963
 40
0.8961038961038963
 40
0.9090909090909093
 40
0.9090909090909093
 40
0.9090909090909093
 40
0.9090909090909093
 40
0.9220779220779223
 40
0.9220779220779223
 40
0.9220779220779223
 40
0.9220779220779223
 40
0.9350649350649353
 40
0.9350649350649353
 40
0.9350649350649353
 40
0.9350649350649353
 40
0.9480519480519483
 40
0.9480519480519483
 40
0.9480519480519483
 40
0.9480519480519483
 40
0.9610389610389612
 40
0.9610389610389612
 40
0.9610389610389612
 40
0.9610389610389612
 40
0.9740259740259742
 40
0.9740259740259742
 40
0.9740259740259742
 40
0.9740259740259742
 40
0.9870129870129872
 40
0.9870129870129872
 40
0.9870129870129872
 40
0.9870129870129872
 40
1.0
 40
1.0
 40
1.0
 40
1.0
 10
-13.59549
 20
10.85654
 30
0.0
 10
-13.58948
 20
10.86703
 30
0.0
 10
-13.5827
 20
10.87507
 30
0.0
 10
-13.57562
 20
10.88119
 30
0.0
 10
-13.57562
 20
10.88119
 30
0.0
 10
-13.5827
 20
10.88732
 30
0.0
 10
-13.58948
 20
10.89536
 30
0.0
 10
-13.59549
 20
10.90585
 30
0.0
 10
-13.59549
 20
10.90585
 30
0.0
 10
-13.59549
 20
10.90585
 30
0.0
 10
-13.59557
 20
10.9058
 30
0.0
 10
-13.59557
 20
10.9058
 30
0.0
 10
-13.59557
 20
10.9058
 30
0.0
 10
-13.60559
 20
10.92333
 30
0.0
 10
-13.61062
 20
10.9401
 30
0.0
 10
-13.61481
 20
10.95407
 30
0.0
 10
-13.61481
 20
10.95407
 30
0.0
 10
-13.61524
 20
10.95549
 30
0.0
 10
-13.61382
 20
10.95536
 30
0.0
 10
-13.61215
 20
10.95486
 30
0.0
 10
-13.61215
 20
10.95486
 30
0.0
 10
-13.61215
 20
10.95486
 30
0.0
 10
-13.60992
 20
10.95553
 30
0.0
 10
-13.60992
 20
10.95553
 30
0.0
 10
-13.60992
 20
10.95553
 30
0.0
 10
-13.60992
 20
10.95553
 30
0.0
 10
-13.60998
 20
10.95558
 30
0.0
 10
-13.60998
 20
10.95558
 30
0.0
 10
-13.60998
 20
10.95558
 30
0.0
 10
-13.60998
 20
10.95558
 30
0.0
 10
-13.61195
 20
10.95701
 30
0.0
 10
-13.61195
 20
10.95701
 30
0.0
 10
-13.61195
 20
10.95701
 30
0.0
 10
-13.61195
 20
10.95701
 30
0.0
 10
-13.61204
 20
10.95689
 30
0.0
 10
-13.61204
 20
10.95689
 30
0.0
 10
-13.61204
 20
10.95689
 30
0.0
 10
-13.63264
 20
10.97188
 30
0.0
 10
-13.66533
 20
10.99567
 30
0.0
 10
-13.64789
 20
11.05501
 30
0.0
 10
-13.64789
 20
11.05501
 30
0.0
 10
-13.63979
 20
11.08253
 30
0.0
 10
-13.62511
 20
11.09873
 30
0.0
 10
-13.61131
 20
11.10824
 30
0.0
 10
-13.61131
 20
11.10824
 30
0.0
 10
-13.61131
 20
11.10824
 30
0.0
 10
-13.6057
 20
11.124
 30
0.0
 10
-13.6057
 20
11.124
 30
0.0
 10
-13.6057
 20
11.124
 30
0.0
 10
-13.6057
 20
11.124
 30
0.0
 10
-13.60239
 20
11.1333
 30
0.0
 10
-13.60239
 20
11.1333
 30
0.0
 10
-13.60239
 20
11.1333
 30
0.0
 10
-13.60239
 20
11.1333
 30
0.0
 10
-13.59566
 20
11.14043
 30
0.0
 10
-13.59566
 20
11.14043
 30
0.0
 10
-13.59566
 20
11.14043
 30
0.0
 10
-13.59566
 20
11.14043
 30
0.0
 10
-13.55199
 20
11.1867
 30
0.0
 10
-13.55199
 20
11.1867
 30
0.0
 10
-13.55199
 20
11.1867
 30
0.0
 10
-13.55199
 20
11.1867
 30
0.0
 10
-13.54442
 20
11.19471
 30
0.0
 10
-13.54442
 20
11.19471
 30
0.0
 10
-13.54442
 20
11.19471
 30
0.0
 10
-13.54442
 20
11.19471
 30
0.0
 10
-13.53374
 20
11.19856
 30
0.0
 10
-13.53374
 20
11.19856
 30
0.0
 10
-13.53374
 20
11.19856
 30
0.0
 10
-13.53369
 20
11.19858
 30
0.0
 10
-13.5186
 20
11.20396
 30
0.0
 10
-13.5061
 20
11.21761
 30
0.0
 10
-13.5061
 20
11.21761
 30
0.0
 10
-13.50333
 20
11.22062
 30
0.0
 10
-13.4992
 20
11.22718
 30
0.0
 10
-13.4948
 20
11.23416
 30
0.0
 10
-13.4948
 20
11.23416
 30
0.0
 10
-13.47709
 20
11.26227
 30
0.0
 10
-13.45666
 20
11.2947
 30
0.0
 10
-13.40589
 20
11.31032
 30
0.0
 10
-13.40589
 20
11.31032
 30
0.0
 10
-13.39028
 20
11.31512
 30
0.0
 10
-13.37835
 20
11.31977
 30
0.0
 10
-13.36756
 20
11.32397
 30
0.0
 10
-13.36756
 20
11.32397
 30
0.0
 10
-13.34306
 20
11.33351
 30
0.0
 10
-13.32327
 20
11.34121
 30
0.0
 10
-13.28646
 20
11.34546
 30
0.0
 10
-13.28646
 20
11.34546
 30
0.0
 10
-13.26909
 20
11.34746
 30
0.0
 10
-13.26069
 20
11.35221
 30
0.0
 10
-13.25169
 20
11.35731
 30
0.0
 10
-13.25169
 20
11.35731
 30
0.0
 10
-13.23813
 20
11.36499
 30
0.0
 10
-13.22382
 20
11.37309
 30
0.0
 10
-13.19811
 20
11.37952
 30
0.0
 10
-13.19811
 20
11.37952
 30
0.0
 10
-13.19175
 20
11.38111
 30
0.0
 10
-13.18502
 20
11.38293
 30
0.0
 10
-13.17848
 20
11.3847
 30
0.0
 10
-13.17848
 20
11.3847
 30
0.0
 10
-13.13898
 20
11.39537
 30
0.0
 10
-13.10545
 20
11.40444
 30
0.0
 10
-13.04677
 20
11.39506
 30
0.0
 10
-13.04677
 20
11.39506
 30
0.0
 10
-13.01838
 20
11.39052
 30
0.0
 10
-12.99839
 20
11.3853
 30
0.0
 10
-12.98155
 20
11.38089
 30
0.0
 10
-12.98155
 20
11.38089
 30
0.0
 10
-12.96576
 20
11.37677
 30
0.0
 10
-12.95356
 20
11.37358
 30
0.0
 10
-12.94067
 20
11.37358
 30
0.0
 10
-12.94067
 20
11.37358
 30
0.0
 10
-12.9347
 20
11.37358
 30
0.0
 10
-12.92987
 20
11.37387
 30
0.0
 10
-12.92457
 20
11.37419
 30
0.0
 10
-12.92457
 20
11.37419
 30
0.0
 10
-12.88573
 20
11.37652
 30
0.0
 10
-12.82991
 20
11.37987
 30
0.0
 10
-12.75222
 20
11.33831
 30
0.0
 10
-12.75222
 20
11.33831
 30
0.0
 10
-12.68531
 20
11.30253
 30
0.0
 10
-12.64441
 20
11.26188
 30
0.0
 10
-12.61633
 20
11.23398
 30
0.0
 10
-12.61633
 20
11.23398
 30
0.0
 10
-12.60892
 20
11.22662
 30
0.0
 10
-12.60256
 20
11.22029
 30
0.0
 10
-12.59763
 20
11.21607
 30
0.0
 10
-12.59763
 20
11.21607
 30
0.0
 10
-12.582
 20
11.20268
 30
0.0
 10
-12.56805
 20
11.18667
 30
0.0
 10
-12.55679
 20
11.17037
 30
0.0
 10
-12.55679
 20
11.17037
 30
0.0
 10
-12.54437
 20
11.15239
 30
0.0
 10
-12.5349
 20
11.13345
 30
0.0
 10
-12.52972
 20
11.11663
 30
0.0
 10
-12.52972
 20
11.11663
 30
0.0
 10
-12.52824
 20
11.11179
 30
0.0
 10
-12.52743
 20
11.10906
 30
0.0
 10
-12.52662
 20
11.10633
 30
0.0
 10
-12.52662
 20
11.10633
 30
0.0
 10
-12.52279
 20
11.09338
 30
0.0
 10
-12.52916
 20
11.08429
 30
0.0
 10
-12.52385
 20
11.08164
 30
0.0
 10
-12.52385
 20
11.08164
 30
0.0
 10
-12.50542
 20
11.07242
 30
0.0
 10
-12.49288
 20
11.05577
 30
0.0
 10
-12.48507
 20
11.03535
 30
0.0
 10
-12.48507
 20
11.03535
 30
0.0
 10
-12.47887
 20
11.01912
 30
0.0
 10
-12.47533
 20
10.99942
 30
0.0
 10
-12.47405
 20
10.9802
 30
0.0
 10
-12.47405
 20
10.9802
 30
0.0
 10
-12.47364
 20
10.97402
 30
0.0
 10
-12.47311
 20
10.96988
 30
0.0
 10
-12.47262
 20
10.96594
 30
0.0
 10
-12.47262
 20
10.96594
 30
0.0
 10
-12.46806
 20
10.92991
 30
0.0
 10
-12.46429
 20
10.90012
 30
0.0
 10
-12.4994
 20
10.8812
 30
0.0
 10
-12.4994
 20
10.8812
 30
0.0
 10
-12.46428
 20
10.86227
 30
0.0
 10
-12.46806
 20
10.83248
 30
0.0
 10
-12.47262
 20
10.79645
 30
0.0
 10
-12.47262
 20
10.79645
 30
0.0
 10
-12.47311
 20
10.79251
 30
0.0
 10
-12.47364
 20
10.78838
 30
0.0
 10
-12.47405
 20
10.78219
 30
0.0
 10
-12.47405
 20
10.78219
 30
0.0
 10
-12.47533
 20
10.76297
 30
0.0
 10
-12.47887
 20
10.74327
 30
0.0
 10
-12.48507
 20
10.72705
 30
0.0
 10
-12.48507
 20
10.72705
 30
0.0
 10
-12.49288
 20
10.70662
 30
0.0
 10
-12.50542
 20
10.68997
 30
0.0
 10
-12.52385
 20
10.68075
 30
0.0
 10
-12.52385
 20
10.68075
 30
0.0
 10
-12.52916
 20
10.6781
 30
0.0
 10
-12.52279
 20
10.66901
 30
0.0
 10
-12.52662
 20
10.65606
 30
0.0
 10
-12.52662
 20
10.65606
 30
0.0
 10
-12.52743
 20
10.65333
 30
0.0
 10
-12.52824
 20
10.6506
 30
0.0
 10
-12.52972
 20
10.64576
 30
0.0
 10
-12.52972
 20
10.64576
 30
0.0
 10
-12.5349
 20
10.62894
 30
0.0
 10
-12.54437
 20
10.61
 30
0.0
 10
-12.55679
 20
10.59202
 30
0.0
 10
-12.55679
 20
10.59202
 30
0.0
 10
-12.56805
 20
10.57572
 30
0.0
 10
-12.582
 20
10.55972
 30
0.0
 10
-12.59763
 20
10.54632
 30
0.0
 10
-12.59763
 20
10.54632
 30
0.0
 10
-12.60256
 20
10.5421
 30
0.0
 10
-12.60892
 20
10.53578
 30
0.0
 10
-12.61633
 20
10.52841
 30
0.0
 10
-12.61633
 20
10.52841
 30
0.0
 10
-12.64441
 20
10.50051
 30
0.0
 10
-12.68531
 20
10.45987
 30
0.0
 10
-12.75222
 20
10.42408
 30
0.0
 10
-12.75222
 20
10.42408
 30
0.0
 10
-12.82991
 20
10.38252
 30
0.0
 10
-12.88573
 20
10.38587
 30
0.0
 10
-12.92457
 20
10.3882
 30
0.0
 10
-12.92457
 20
10.3882
 30
0.0
 10
-12.92987
 20
10.38852
 30
0.0
 10
-12.9347
 20
10.38881
 30
0.0
 10
-12.94067
 20
10.38881
 30
0.0
 10
-12.94067
 20
10.38881
 30
0.0
 10
-12.95356
 20
10.38881
 30
0.0
 10
-12.96576
 20
10.38562
 30
0.0
 10
-12.98155
 20
10.3815
 30
0.0
 10
-12.98155
 20
10.3815
 30
0.0
 10
-12.99839
 20
10.3771
 30
0.0
 10
-13.01838
 20
10.37187
 30
0.0
 10
-13.04677
 20
10.36733
 30
0.0
 10
-13.04677
 20
10.36733
 30
0.0
 10
-13.10545
 20
10.35795
 30
0.0
 10
-13.13898
 20
10.36702
 30
0.0
 10
-13.17848
 20
10.37769
 30
0.0
 10
-13.17848
 20
10.37769
 30
0.0
 10
-13.18502
 20
10.37946
 30
0.0
 10
-13.19175
 20
10.38128
 30
0.0
 10
-13.19811
 20
10.38287
 30
0.0
 10
-13.19811
 20
10.38287
 30
0.0
 10
-13.22382
 20
10.3893
 30
0.0
 10
-13.23813
 20
10.3974
 30
0.0
 10
-13.25169
 20
10.40508
 30
0.0
 10
-13.25169
 20
10.40508
 30
0.0
 10
-13.26069
 20
10.41018
 30
0.0
 10
-13.26909
 20
10.41493
 30
0.0
 10
-13.28646
 20
10.41693
 30
0.0
 10
-13.28646
 20
10.41693
 30
0.0
 10
-13.32327
 20
10.42118
 30
0.0
 10
-13.34306
 20
10.42888
 30
0.0
 10
-13.36757
 20
10.43842
 30
0.0
 10
-13.36757
 20
10.43842
 30
0.0
 10
-13.37836
 20
10.44262
 30
0.0
 10
-13.39029
 20
10.44727
 30
0.0
 10
-13.40589
 20
10.45207
 30
0.0
 10
-13.40589
 20
10.45207
 30
0.0
 10
-13.45666
 20
10.46769
 30
0.0
 10
-13.47709
 20
10.50012
 30
0.0
 10
-13.4948
 20
10.52823
 30
0.0
 10
-13.4948
 20
10.52823
 30
0.0
 10
-13.4992
 20
10.53522
 30
0.0
 10
-13.50333
 20
10.54177
 30
0.0
 10
-13.5061
 20
10.54479
 30
0.0
 10
-13.5061
 20
10.54479
 30
0.0
 10
-13.5186
 20
10.55843
 30
0.0
 10
-13.53369
 20
10.56381
 30
0.0
 10
-13.53374
 20
10.56383
 30
0.0
 10
-13.53374
 20
10.56383
 30
0.0
 10
-13.53374
 20
10.56383
 30
0.0
 10
-13.54442
 20
10.56768
 30
0.0
 10
-13.54442
 20
10.56768
 30
0.0
 10
-13.54442
 20
10.56768
 30
0.0
 10
-13.54442
 20
10.56768
 30
0.0
 10
-13.55199
 20
10.57569
 30
0.0
 10
-13.55199
 20
10.57569
 30
0.0
 10
-13.55199
 20
10.57569
 30
0.0
 10
-13.55199
 20
10.57569
 30
0.0
 10
-13.59566
 20
10.62196
 30
0.0
 10
-13.59566
 20
10.62196
 30
0.0
 10
-13.59566
 20
10.62196
 30
0.0
 10
-13.59566
 20
10.62196
 30
0.0
 10
-13.60239
 20
10.62909
 30
0.0
 10
-13.60239
 20
10.62909
 30
0.0
 10
-13.60239
 20
10.62909
 30
0.0
 10
-13.60239
 20
10.62909
 30
0.0
 10
-13.6057
 20
10.63839
 30
0.0
 10
-13.6057
 20
10.63839
 30
0.0
 10
-13.6057
 20
10.63839
 30
0.0
 10
-13.6057
 20
10.63839
 30
0.0
 10
-13.61131
 20
10.65416
 30
0.0
 10
-13.61131
 20
10.65416
 30
0.0
 10
-13.61131
 20
10.65416
 30
0.0
 10
-13.62511
 20
10.66366
 30
0.0
 10
-13.63979
 20
10.67986
 30
0.0
 10
-13.64789
 20
10.70738
 30
0.0
 10
-13.64789
 20
10.70738
 30
0.0
 10
-13.66534
 20
10.76673
 30
0.0
 10
-13.63263
 20
10.79052
 30
0.0
 10
-13.61204
 20
10.8055
 30
0.0
 10
-13.61204
 20
10.8055
 30
0.0
 10
-13.60962
 20
10.80726
 30
0.0
 10
-13.6125
 20
10.80479
 30
0.0
 10
-13.60998
 20
10.80681
 30
0.0
 10
-13.60998
 20
10.80681
 30
0.0
 10
-13.60998
 20
10.80681
 30
0.0
 10
-13.60992
 20
10.80686
 30
0.0
 10
-13.60992
 20
10.80686
 30
0.0
 10
-13.60992
 20
10.80686
 30
0.0
 10
-13.60992
 20
10.80686
 30
0.0
 10
-13.61215
 20
10.80753
 30
0.0
 10
-13.61215
 20
10.80753
 30
0.0
 10
-13.61215
 20
10.80753
 30
0.0
 10
-13.61382
 20
10.80704
 30
0.0
 10
-13.61524
 20
10.8069
 30
0.0
 10
-13.61481
 20
10.80832
 30
0.0
 10
-13.61481
 20
10.80832
 30
0.0
 10
-13.61062
 20
10.82229
 30
0.0
 10
-13.60559
 20
10.83906
 30
0.0
 10
-13.59557
 20
10.85659
 30
0.0
 10
-13.59557
 20
10.85659
 30
0.0
 10
-13.59557
 20
10.85659
 30
0.0
 10
-13.59549
 20
10.85654
 30
0.0
 10
-13.59549
 20
10.85654
 30
0.0
  0
SPLINE
  5
98
330
1F
100
AcDbEntity
  8
Layer 1
 62
   235
370
    35
100
AcDbSpline
210
0.0
220
0.0
230
1.0
 70
    11
 71
     3
 72
   192
 73
   188
 74
     0
 42
0.0000000001
 43
0.0000000001
 40
0.0
 40
0.0
 40
0.0
 40
0.0
 40
0.0212765957446809
 40
0.0212765957446809
 40
0.0212765957446809
 40
0.0212765957446809
 40
0.0425531914893617
 40
0.0425531914893617
 40
0.0425531914893617
 40
0.0425531914893617
 40
0.0638297872340425
 40
0.0638297872340425
 40
0.0638297872340425
 40
0.0638297872340425
 40
0.0851063829787234
 40
0.0851063829787234
 40
0.0851063829787234
 40
0.0851063829787234
 40
0.1063829787234043
 40
0.1063829787234043
 40
0.1063829787234043
 40
0.1063829787234043
 40
0.1276595744680851
 40
0.1276595744680851
 40
0.1276595744680851
 40
0.1276595744680851
 40
0.148936170212766
 40
0.148936170212766
 40
0.148936170212766
 40
0.148936170212766
 40
0.1702127659574468
 40
0.1702127659574468
 40
0.1702127659574468
 40
0.1702127659574468
 40
0.1914893617021277
 40
0.1914893617021277
 40
0.1914893617021277
 40
0.1914893617021277
 40
0.2127659574468085
 40
0.2127659574468085
 40
0.2127659574468085
 40
0.2127659574468085
 40
0.2340425531914894
 40
0.2340425531914894
 40
0.2340425531914894
 40
0.2340425531914894
 40
0.2553191489361702
 40
0.2553191489361702
 40
0.2553191489361702
 40
0.2553191489361702
 40
0.276595744680851
 40
0.276595744680851
 40
0.276595744680851
 40
0.276595744680851
 40
0.2978723404255318
 40
0.2978723404255318
 40
0.2978723404255318
 40
0.2978723404255318
 40
0.3191489361702127
 40
0.3191489361702127
 40
0.3191489361702127
 40
0.3191489361702127
 40
0.3404255319148935
 40
0.3404255319148935
 40
0.3404255319148935
 40
0.3404255319148935
 40
0.3617021276595743
 40
0.3617021276595743
 40
0.3617021276595743
 40
0.3617021276595743
 40
0.3829787234042552
 40
0.3829787234042552
 40
0.3829787234042552
 40
0.3829787234042552
 40
0.404255319148936
 40
0.404255319148936
 40
0.404255319148936
 40
0.404255319148936
 40
0.4255319148936168
 40
0.4255319148936168
 40
0.4255319148936168
 40
0.4255319148936168
 40
0.4468085106382976
 40
0.4468085106382976
 40
0.4468085106382976
 40
0.4468085106382976
 40
0.4680851063829785
 40
0.4680851063829785
 40
0.4680851063829785
 40
0.4680851063829785
 40
0.4893617021276593
 40
0.4893617021276593
 40
0.4893617021276593
 40
0.4893617021276593
 40
0.5106382978723402
 40
0.5106382978723402
 40
0.5106382978723402
 40
0.5106382978723402
 40
0.531914893617021
 40
0.531914893617021
 40
0.531914893617021
 40
0.531914893617021
 40
0.5531914893617019
 40
0.5531914893617019
 40
0.5531914893617019
 40
0.5531914893617019
 40
0.5744680851063828
 40
0.5744680851063828
 40
0.5744680851063828
 40
0.5744680851063828
 40
0.5957446808510637
 40
0.5957446808510637
 40
0.5957446808510637
 40
0.5957446808510637
 40
0.6170212765957446
 40
0.6170212765957446
 40
0.6170212765957446
 40
0.6170212765957446
 40
0.6382978723404255
 40
0.6382978723404255
 40
0.6382978723404255
 40
0.6382978723404255
 40
0.6595744680851063
 40
0.6595744680851063
 40
0.6595744680851063
 40
0.6595744680851063
 40
0.6808510638297872
 40
0.6808510638297872
 40
0.6808510638297872
 40
0.6808510638297872
 40
0.7021276595744681
 40
0.7021276595744681
 40
0.7021276595744681
 40
0.7021276595744681
 40
0.723404255319149
 40
0.723404255319149
 40
0.723404255319149
 40
0.723404255319149
 40
0.7446808510638299
 40
0.7446808510638299
 40
0.7446808510638299
 40
0.7446808510638299
 40
0.7659574468085107
 40
0.7659574468085107
 40
0.7659574468085107
 40
0.7659574468085107
 40
0.7872340425531916
 40
0.7872340425531916
 40
0.7872340425531916
 40
0.7872340425531916
 40
0.8085106382978725
 40
0.8085106382978725
 40
0.8085106382978725
 40
0.8085106382978725
 40
0.8297872340425534
 40
0.8297872340425534
 40
0.8297872340425534
 40
0.8297872340425534
 40
0.8510638297872343
 40
0.8510638297872343
 40
0.8510638297872343
 40
0.8510638297872343
 40
0.8723404255319152
 40
0.8723404255319152
 40
0.8723404255319152
 40
0.8723404255319152
 40
0.893617021276596
 40
0.893617021276596
 40
0.893617021276596
 40
0.893617021276596
 40
0.9148936170212769
 40
0.9148936170212769
 40
0.9148936170212769
 40
0.9148936170212769
 40
0.9361702127659578
 40
0.9361702127659578
 40
0.9361702127659578
 40
0.9361702127659578
 40
0.9574468085106387
 40
0.9574468085106387
 40
0.9574468085106387
 40
0.9574468085106387
 40
0.9787234042553196
 40
0.9787234042553196
 40
0.9787234042553196
 40
0.9787234042553196
 40
1.0
 40
1.0
 40
1.0
 40
1.0
 10
-13.52537
 20
10.98072
 30
0.0
 10
-13.52306
 20
10.97301
 30
0.0
 10
-13.52035
 20
10.96399
 30
0.0
 10
-13.51669
 20
10.95632
 30
0.0
 10
-13.51669
 20
10.95632
 30
0.0
 10
-13.51669
 20
10.95632
 30
0.0
 10
-13.50155
 20
10.95592
 30
0.0
 10
-13.50155
 20
10.95592
 30
0.0
 10
-13.50155
 20
10.95592
 30
0.0
 10
-13.48757
 20
10.96364
 30
0.0
 10
-13.46654
 20
10.97175
 30
0.0
 10
-13.43654
 20
10.97535
 30
0.0
 10
-13.43654
 20
10.97535
 30
0.0
 10
-13.39436
 20
10.98041
 30
0.0
 10
-13.36633
 20
10.97197
 30
0.0
 10
-13.35182
 20
10.9654
 30
0.0
 10
-13.35182
 20
10.9654
 30
0.0
 10
-13.35182
 20
10.9654
 30
0.0
 10
-13.32279
 20
10.95735
 30
0.0
 10
-13.32279
 20
10.95735
 30
0.0
 10
-13.32279
 20
10.95735
 30
0.0
 10
-13.30278
 20
10.9602
 30
0.0
 10
-13.25683
 20
10.96646
 30
0.0
 10
-13.23861
 20
10.96646
 30
0.0
 10
-13.23861
 20
10.96646
 30
0.0
 10
-13.21875
 20
10.96646
 30
0.0
 10
-13.19041
 20
10.95982
 30
0.0
 10
-13.17752
 20
10.95651
 30
0.0
 10
-13.17752
 20
10.95651
 30
0.0
 10
-13.17752
 20
10.95651
 30
0.0
 10
-13.13988
 20
10.95651
 30
0.0
 10
-13.13988
 20
10.95651
 30
0.0
 10
-13.13988
 20
10.95651
 30
0.0
 10
-13.13017
 20
10.95887
 30
0.0
 10
-13.11126
 20
10.96323
 30
0.0
 10
-13.0938
 20
10.96591
 30
0.0
 10
-13.0938
 20
10.96591
 30
0.0
 10
-13.07158
 20
10.96933
 30
0.0
 10
-13.05462
 20
10.96664
 30
0.0
 10
-13.04373
 20
10.96345
 30
0.0
 10
-13.04373
 20
10.96345
 30
0.0
 10
-13.04373
 20
10.96345
 30
0.0
 10
-13.00486
 20
10.95672
 30
0.0
 10
-13.00486
 20
10.95672
 30
0.0
 10
-13.00486
 20
10.95672
 30
0.0
 10
-12.98873
 20
10.95775
 30
0.0
 10
-12.94205
 20
10.96015
 30
0.0
 10
-12.91208
 20
10.95597
 30
0.0
 10
-12.91208
 20
10.95597
 30
0.0
 10
-12.90562
 20
10.95506
 30
0.0
 10
-12.89424
 20
10.95857
 30
0.0
 10
-12.8817
 20
10.96244
 30
0.0
 10
-12.8817
 20
10.96244
 30
0.0
 10
-12.86311
 20
10.96818
 30
0.0
 10
-12.84296
 20
10.9744
 30
0.0
 10
-12.81684
 20
10.97553
 30
0.0
 10
-12.81684
 20
10.97553
 30
0.0
 10
-12.78063
 20
10.9771
 30
0.0
 10
-12.75556
 20
10.97203
 30
0.0
 10
-12.73323
 20
10.96752
 30
0.0
 10
-12.73323
 20
10.96752
 30
0.0
 10
-12.72727
 20
10.96631
 30
0.0
 10
-12.72159
 20
10.96516
 30
0.0
 10
-12.71389
 20
10.96406
 30
0.0
 10
-12.71389
 20
10.96406
 30
0.0
 10
-12.69163
 20
10.96088
 30
0.0
 10
-12.632
 20
10.95627
 30
0.0
 10
-12.62361
 20
10.95563
 30
0.0
 10
-12.62361
 20
10.95563
 30
0.0
 10
-12.6142
 20
10.95587
 30
0.0
 10
-12.58597
 20
10.95674
 30
0.0
 10
-12.56556
 20
10.95884
 30
0.0
 10
-12.56556
 20
10.95884
 30
0.0
 10
-12.56623
 20
10.96427
 30
0.0
 10
-12.56686
 20
10.96966
 30
0.0
 10
-12.56714
 20
10.97399
 30
0.0
 10
-12.56714
 20
10.97399
 30
0.0
 10
-12.56785
 20
10.98464
 30
0.0
 10
-12.56953
 20
10.99482
 30
0.0
 10
-12.57232
 20
11.00212
 30
0.0
 10
-12.57232
 20
11.00212
 30
0.0
 10
-12.57233
 20
11.00213
 30
0.0
 10
-12.57232
 20
11.00213
 30
0.0
 10
-12.57231
 20
11.00213
 30
0.0
 10
-12.57231
 20
11.00213
 30
0.0
 10
-12.57231
 20
11.00213
 30
0.0
 10
-12.5721
 20
11.00221
 30
0.0
 10
-12.5721
 20
11.00221
 30
0.0
 10
-12.5721
 20
11.00221
 30
0.0
 10
-12.59805
 20
11.01913
 30
0.0
 10
-12.6075
 20
11.05109
 30
0.0
 10
-12.61606
 20
11.08004
 30
0.0
 10
-12.61606
 20
11.08004
 30
0.0
 10
-12.61722
 20
11.08397
 30
0.0
 10
-12.61836
 20
11.08779
 30
0.0
 10
-12.6188
 20
11.08925
 30
0.0
 10
-12.6188
 20
11.08925
 30
0.0
 10
-12.62128
 20
11.09731
 30
0.0
 10
-12.6264
 20
11.10722
 30
0.0
 10
-12.63346
 20
11.11744
 30
0.0
 10
-12.63346
 20
11.11744
 30
0.0
 10
-12.64038
 20
11.12745
 30
0.0
 10
-12.64885
 20
11.1372
 30
0.0
 10
-12.65824
 20
11.14525
 30
0.0
 10
-12.65824
 20
11.14525
 30
0.0
 10
-12.66559
 20
11.15155
 30
0.0
 10
-12.67319
 20
11.1591
 30
0.0
 10
-12.68205
 20
11.1679
 30
0.0
 10
-12.68205
 20
11.1679
 30
0.0
 10
-12.70627
 20
11.19197
 30
0.0
 10
-12.74155
 20
11.22703
 30
0.0
 10
-12.79603
 20
11.25617
 30
0.0
 10
-12.79603
 20
11.25617
 30
0.0
 10
-12.85034
 20
11.28522
 30
0.0
 10
-12.89088
 20
11.28279
 30
0.0
 10
-12.91909
 20
11.28109
 30
0.0
 10
-12.91909
 20
11.28109
 30
0.0
 10
-12.92757
 20
11.28059
 30
0.0
 10
-12.93528
 20
11.28012
 30
0.0
 10
-12.94067
 20
11.28012
 30
0.0
 10
-12.94067
 20
11.28012
 30
0.0
 10
-12.96436
 20
11.28012
 30
0.0
 10
-12.98204
 20
11.28474
 30
0.0
 10
-13.00492
 20
11.29072
 30
0.0
 10
-13.00492
 20
11.29072
 30
0.0
 10
-13.01984
 20
11.29462
 30
0.0
 10
-13.03756
 20
11.29925
 30
0.0
 10
-13.06138
 20
11.30306
 30
0.0
 10
-13.06138
 20
11.30306
 30
0.0
 10
-13.09998
 20
11.30923
 30
0.0
 10
-13.12496
 20
11.30248
 30
0.0
 10
-13.15438
 20
11.29453
 30
0.0
 10
-13.15438
 20
11.29453
 30
0.0
 10
-13.16092
 20
11.29276
 30
0.0
 10
-13.16766
 20
11.29094
 30
0.0
 10
-13.17547
 20
11.28898
 30
0.0
 10
-13.17547
 20
11.28898
 30
0.0
 10
-13.18937
 20
11.28551
 30
0.0
 10
-13.19775
 20
11.28076
 30
0.0
 10
-13.20569
 20
11.27627
 30
0.0
 10
-13.20569
 20
11.27627
 30
0.0
 10
-13.22342
 20
11.26623
 30
0.0
 10
-13.23994
 20
11.25687
 30
0.0
 10
-13.27587
 20
11.25273
 30
0.0
 10
-13.27587
 20
11.25273
 30
0.0
 10
-13.30132
 20
11.24979
 30
0.0
 10
-13.31591
 20
11.24411
 30
0.0
 10
-13.33397
 20
11.23708
 30
0.0
 10
-13.33397
 20
11.23708
 30
0.0
 10
-13.3464
 20
11.23225
 30
0.0
 10
-13.36014
 20
11.2269
 30
0.0
 10
-13.37851
 20
11.22125
 30
0.0
 10
-13.37851
 20
11.22125
 30
0.0
 10
-13.39624
 20
11.21579
 30
0.0
 10
-13.4068
 20
11.19903
 30
0.0
 10
-13.41594
 20
11.18451
 30
0.0
 10
-13.41594
 20
11.18451
 30
0.0
 10
-13.42242
 20
11.17424
 30
0.0
 10
-13.42849
 20
11.1646
 30
0.0
 10
-13.43746
 20
11.15481
 30
0.0
 10
-13.43746
 20
11.15481
 30
0.0
 10
-13.45562
 20
11.13501
 30
0.0
 10
-13.47723
 20
11.12254
 30
0.0
 10
-13.49036
 20
11.11616
 30
0.0
 10
-13.49036
 20
11.11616
 30
0.0
 10
-13.49036
 20
11.11616
 30
0.0
 10
-13.52102
 20
11.08367
 30
0.0
 10
-13.52102
 20
11.08367
 30
0.0
 10
-13.52102
 20
11.08367
 30
0.0
 10
-13.52102
 20
11.08367
 30
0.0
 10
-13.52957
 20
11.05966
 30
0.0
 10
-13.52957
 20
11.05966
 30
0.0
 10
-13.52957
 20
11.05966
 30
0.0
 10
-13.52957
 20
11.05966
 30
0.0
 10
-13.53946
 20
11.03185
 30
0.0
 10
-13.53946
 20
11.03185
 30
0.0
 10
-13.53946
 20
11.03185
 30
0.0
 10
-13.53946
 20
11.03185
 30
0.0
 10
-13.55458
 20
11.03029
 30
0.0
 10
-13.55458
 20
11.03029
 30
0.0
 10
-13.55458
 20
11.03029
 30
0.0
 10
-13.55379
 20
11.02969
 30
0.0
 10
-13.55294
 20
11.02903
 30
0.0
 10
-13.55193
 20
11.02823
 30
0.0
 10
-13.55193
 20
11.02823
 30
0.0
 10
-13.53573
 20
11.01526
 30
0.0
 10
-13.53113
 20
10.99991
 30
0.0
 10
-13.52537
 20
10.98072
 30
0.0
  0
SPLINE
  5
99
330
1F
100
AcDbEntity
  8
Layer 1
 62
   235
370
    35
100
AcDbSpline
210
0.0
220
0.0
230
1.0
 70
    11
 71
     3
 72
    12
 73
     8
 74
     0
 42
0.0000000001
 43
0.0000000001
 40
0.0
 40
0.0
 40
0.0
 40
0.0
 40
0.5
 40
0.5
 40
0.5
 40
0.5
 40
1.0
 40
1.0
 40
1.0
 40
1.0
 10
-13.61215
 20
10.95486
 30
0.0
 10
-13.60923
 20
10.954
 30
0.0
 10
-13.60558
 20
10.95205
 30
0.0
 10
-13.60992
 20
10.95553
 30
0.0
 10
-13.60992
 20
10.95553
 30
0.0
 10
-13.60992
 20
10.95553
 30
0.0
 10
-13.61215
 20
10.95486
 30
0.0
 10
-13.61215
 20
10.95486
 30
0.0
  0
SPLINE
  5
9A
330
1F
100
AcDbEntity
  8
Layer 1
 62
   235
370
    35
100
AcDbSpline
210
0.0
220
0.0
230
1.0
 70
    11
 71
     3
 72
    20
 73
    16
 74
     0
 42
0.0000000001
 43
0.0000000001
 40
0.0
 40
0.0
 40
0.0
 40
0.0
 40
0.25
 40
0.25
 40
0.25
 40
0.25
 40
0.5
 40
0.5
 40
0.5
 40
0.5
 40
0.75
 40
0.75
 40
0.75
 40
0.75
 40
1.0
 40
1.0
 40
1.0
 40
1.0
 10
-13.55951
 20
11.02921
 30
0.0
 10
-13.55951
 20
11.02921
 30
0.0
 10
-13.55907
 20
11.02982
 30
0.0
 10
-13.55907
 20
11.02982
 30
0.0
 10
-13.55907
 20
11.02982
 30
0.0
 10
-13.55907
 20
11.02982
 30
0.0
 10
-13.5592
 20
11.02981
 30
0.0
 10
-13.5592
 20
11.02981
 30
0.0
 10
-13.5592
 20
11.02981
 30
0.0
 10
-13.5592
 20
11.02981
 30
0.0
 10
-13.55963
 20
11.02922
 30
0.0
 10
-13.55963
 20
11.02922
 30
0.0
 10
-13.55963
 20
11.02922
 30
0.0
 10
-13.55963
 20
11.02922
 30
0.0
 10
-13.55951
 20
11.02921
 30
0.0
 10
-13.55951
 20
11.02921
 30
0.0
  0
SPLINE
  5
9B
330
1F
100
AcDbEntity
  8
Layer 1
 62
   235
370
    35
100
AcDbSpline
210
0.0
220
0.0
230
1.0
 70
    11
 71
     3
 72
    20
 73
    16
 74
     0
 42
0.0000000001
 43
0.0000000001
 40
0.0
 40
0.0
 40
0.0
 40
0.0
 40
0.25
 40
0.25
 40
0.25
 40
0.25
 40
0.5
 40
0.5
 40
0.5
 40
0.5
 40
0.75
 40
0.75
 40
0.75
 40
0.75
 40
1.0
 40
1.0
 40
1.0
 40
1.0
 10
-13.55907
 20
11.02982
 30
0.0
 10
-13.55907
 20
11.02982
 30
0.0
 10
-13.55951
 20
11.02921
 30
0.0
 10
-13.55951
 20
11.02921
 30
0.0
 10
-13.55951
 20
11.02921
 30
0.0
 10
-13.5588
 20
11.02913
 30
0.0
 10
-13.55837
 20
11.02898
 30
0.0
 10
-13.55845
 20
11.02872
 30
0.0
 10
-13.55845
 20
11.02872
 30
0.0
 10
-13.5591
 20
11.02652
 30
0.0
 10
-13.55859
 20
11.02817
 30
0.0
 10
-13.55806
 20
11.02992
 30
0.0
 10
-13.55806
 20
11.02992
 30
0.0
 10
-13.55806
 20
11.02992
 30
0.0
 10
-13.55907
 20
11.02982
 30
0.0
 10
-13.55907
 20
11.02982
 30
0.0
  0
SPLINE
  5
9C
330
1F
100
AcDbEntity
  8
Layer 1
 62
   235
370
    35
100
AcDbSpline
210
0.0
220
0.0
230
1.0
 70
    11
 71
     3
 72
    20
 73
    16
 74
     0
 42
0.0000000001
 43
0.0000000001
 40
0.0
 40
0.0
 40
0.0
 40
0.0
 40
0.25
 40
0.25
 40
0.25
 40
0.25
 40
0.5
 40
0.5
 40
0.5
 40
0.5
 40
0.75
 40
0.75
 40
0.75
 40
0.75
 40
1.0
 40
1.0
 40
1.0
 40
1.0
 10
-13.56137
 20
11.02958
 30
0.0
 10
-13.56137
 20
11.02958
 30
0.0
 10
-13.56029
 20
11.02927
 30
0.0
 10
-13.56029
 20
11.02927
 30
0.0
 10
-13.56029
 20
11.02927
 30
0.0
 10
-13.56005
 20
11.02926
 30
0.0
 10
-13.55983
 20
11.02924
 30
0.0
 10
-13.55963
 20
11.02922
 30
0.0
 10
-13.55963
 20
11.02922
 30
0.0
 10
-13.55963
 20
11.02922
 30
0.0
 10
-13.5592
 20
11.02981
 30
0.0
 10
-13.5592
 20
11.02981
 30
0.0
 10
-13.5592
 20
11.02981
 30
0.0
 10
-13.5592
 20
11.02981
 30
0.0
 10
-13.56137
 20
11.02958
 30
0.0
 10
-13.56137
 20
11.02958
 30
0.0
  0
SPLINE
  5
9D
330
1F
100
AcDbEntity
  8
Layer 1
 62
   235
370
    35
100
AcDbSpline
210
0.0
220
0.0
230
1.0
 70
    11
 71
     3
 72
    16
 73
    12
 74
     0
 42
0.0000000001
 43
0.0000000001
 40
0.0
 40
0.0
 40
0.0
 40
0.0
 40
0.3333333333333333
 40
0.3333333333333333
 40
0.3333333333333333
 40
0.3333333333333333
 40
0.6666666666666666
 40
0.6666666666666666
 40
0.6666666666666666
 40
0.6666666666666666
 40
1.0
 40
1.0
 40
1.0
 40
1.0
 10
-13.56869
 20
11.02883
 30
0.0
 10
-13.56785
 20
11.02891
 30
0.0
 10
-13.56301
 20
11.02938
 30
0.0
 10
-13.56029
 20
11.02927
 30
0.0
 10
-13.56029
 20
11.02927
 30
0.0
 10
-13.56029
 20
11.02927
 30
0.0
 10
-13.56137
 20
11.02958
 30
0.0
 10
-13.56137
 20
11.02958
 30
0.0
 10
-13.56137
 20
11.02958
 30
0.0
 10
-13.56137
 20
11.02958
 30
0.0
 10
-13.56869
 20
11.02883
 30
0.0
 10
-13.56869
 20
11.02883
 30
0.0
  0
SPLINE
  5
9E
330
1F
100
AcDbEntity
  8
Layer 1
 62
   235
370
    35
100
AcDbSpline
210
0.0
220
0.0
230
1.0
 70
    11
 71
     3
 72
    16
 73
    12
 74
     0
 42
0.0000000001
 43
0.0000000001
 40
0.0
 40
0.0
 40
0.0
 40
0.0
 40
0.3333333333333333
 40
0.3333333333333333
 40
0.3333333333333333
 40
0.3333333333333333
 40
0.6666666666666666
 40
0.6666666666666666
 40
0.6666666666666666
 40
0.6666666666666666
 40
1.0
 40
1.0
 40
1.0
 40
1.0
 10
-12.57095
 20
11.00147
 30
0.0
 10
-12.57134
 20
11.00171
 30
0.0
 10
-12.57172
 20
11.00196
 30
0.0
 10
-12.5721
 20
11.00221
 30
0.0
 10
-12.5721
 20
11.00221
 30
0.0
 10
-12.5721
 20
11.00221
 30
0.0
 10
-12.57231
 20
11.00213
 30
0.0
 10
-12.57231
 20
11.00213
 30
0.0
 10
-12.57231
 20
11.00213
 30
0.0
 10
-12.57223
 20
11.00212
 30
0.0
 10
-12.5717
 20
11.00186
 30
0.0
 10
-12.57095
 20
11.00147
 30
0.0
  0
SPLINE
  5
9F
330
1F
100
AcDbEntity
  8
Layer 1
 62
   235
370
    35
100
AcDbSpline
210
0.0
220
0.0
230
1.0
 70
    11
 71
     3
 72
   192
 73
   188
 74
     0
 42
0.0000000001
 43
0.0000000001
 40
0.0
 40
0.0
 40
0.0
 40
0.0
 40
0.0212765957446809
 40
0.0212765957446809
 40
0.0212765957446809
 40
0.0212765957446809
 40
0.0425531914893617
 40
0.0425531914893617
 40
0.0425531914893617
 40
0.0425531914893617
 40
0.0638297872340425
 40
0.0638297872340425
 40
0.0638297872340425
 40
0.0638297872340425
 40
0.0851063829787234
 40
0.0851063829787234
 40
0.0851063829787234
 40
0.0851063829787234
 40
0.1063829787234043
 40
0.1063829787234043
 40
0.1063829787234043
 40
0.1063829787234043
 40
0.1276595744680851
 40
0.1276595744680851
 40
0.1276595744680851
 40
0.1276595744680851
 40
0.148936170212766
 40
0.148936170212766
 40
0.148936170212766
 40
0.148936170212766
 40
0.1702127659574468
 40
0.1702127659574468
 40
0.1702127659574468
 40
0.1702127659574468
 40
0.1914893617021277
 40
0.1914893617021277
 40
0.1914893617021277
 40
0.1914893617021277
 40
0.2127659574468085
 40
0.2127659574468085
 40
0.2127659574468085
 40
0.2127659574468085
 40
0.2340425531914894
 40
0.2340425531914894
 40
0.2340425531914894
 40
0.2340425531914894
 40
0.2553191489361702
 40
0.2553191489361702
 40
0.2553191489361702
 40
0.2553191489361702
 40
0.276595744680851
 40
0.276595744680851
 40
0.276595744680851
 40
0.276595744680851
 40
0.2978723404255318
 40
0.2978723404255318
 40
0.2978723404255318
 40
0.2978723404255318
 40
0.3191489361702127
 40
0.3191489361702127
 40
0.3191489361702127
 40
0.3191489361702127
 40
0.3404255319148935
 40
0.3404255319148935
 40
0.3404255319148935
 40
0.3404255319148935
 40
0.3617021276595743
 40
0.3617021276595743
 40
0.3617021276595743
 40
0.3617021276595743
 40
0.3829787234042552
 40
0.3829787234042552
 40
0.3829787234042552
 40
0.3829787234042552
 40
0.404255319148936
 40
0.404255319148936
 40
0.404255319148936
 40
0.404255319148936
 40
0.4255319148936168
 40
0.4255319148936168
 40
0.4255319148936168
 40
0.4255319148936168
 40
0.4468085106382976
 40
0.4468085106382976
 40
0.4468085106382976
 40
0.4468085106382976
 40
0.4680851063829785
 40
0.4680851063829785
 40
0.4680851063829785
 40
0.4680851063829785
 40
0.4893617021276593
 40
0.4893617021276593
 40
0.4893617021276593
 40
0.4893617021276593
 40
0.5106382978723402
 40
0.5106382978723402
 40
0.5106382978723402
 40
0.5106382978723402
 40
0.531914893617021
 40
0.531914893617021
 40
0.531914893617021
 40
0.531914893617021
 40
0.5531914893617019
 40
0.5531914893617019
 40
0.5531914893617019
 40
0.5531914893617019
 40
0.5744680851063828
 40
0.5744680851063828
 40
0.5744680851063828
 40
0.5744680851063828
 40
0.5957446808510637
 40
0.5957446808510637
 40
0.5957446808510637
 40
0.5957446808510637
 40
0.6170212765957446
 40
0.6170212765957446
 40
0.6170212765957446
 40
0.6170212765957446
 40
0.6382978723404255
 40
0.6382978723404255
 40
0.6382978723404255
 40
0.6382978723404255
 40
0.6595744680851063
 40
0.6595744680851063
 40
0.6595744680851063
 40
0.6595744680851063
 40
0.6808510638297872
 40
0.6808510638297872
 40
0.6808510638297872
 40
0.6808510638297872
 40
0.7021276595744681
 40
0.7021276595744681
 40
0.7021276595744681
 40
0.7021276595744681
 40
0.723404255319149
 40
0.723404255319149
 40
0.723404255319149
 40
0.723404255319149
 40
0.7446808510638299
 40
0.7446808510638299
 40
0.7446808510638299
 40
0.7446808510638299
 40
0.7659574468085107
 40
0.7659574468085107
 40
0.7659574468085107
 40
0.7659574468085107
 40
0.7872340425531916
 40
0.7872340425531916
 40
0.7872340425531916
 40
0.7872340425531916
 40
0.8085106382978725
 40
0.8085106382978725
 40
0.8085106382978725
 40
0.8085106382978725
 40
0.8297872340425534
 40
0.8297872340425534
 40
0.8297872340425534
 40
0.8297872340425534
 40
0.8510638297872343
 40
0.8510638297872343
 40
0.8510638297872343
 40
0.8510638297872343
 40
0.8723404255319152
 40
0.8723404255319152
 40
0.8723404255319152
 40
0.8723404255319152
 40
0.893617021276596
 40
0.893617021276596
 40
0.893617021276596
 40
0.893617021276596
 40
0.9148936170212769
 40
0.9148936170212769
 40
0.9148936170212769
 40
0.9148936170212769
 40
0.9361702127659578
 40
0.9361702127659578
 40
0.9361702127659578
 40
0.9361702127659578
 40
0.9574468085106387
 40
0.9574468085106387
 40
0.9574468085106387
 40
0.9574468085106387
 40
0.9787234042553196
 40
0.9787234042553196
 40
0.9787234042553196
 40
0.9787234042553196
 40
1.0
 40
1.0
 40
1.0
 40
1.0
 10
-13.51669
 20
10.80607
 30
0.0
 10
-13.52035
 20
10.7984
 30
0.0
 10
-13.52306
 20
10.78939
 30
0.0
 10
-13.52537
 20
10.78167
 30
0.0
 10
-13.52537
 20
10.78167
 30
0.0
 10
-13.53113
 20
10.76248
 30
0.0
 10
-13.53573
 20
10.74713
 30
0.0
 10
-13.55193
 20
10.73416
 30
0.0
 10
-13.55193
 20
10.73416
 30
0.0
 10
-13.55193
 20
10.73416
 30
0.0
 10
-13.55452
 20
10.7321
 30
0.0
 10
-13.55452
 20
10.7321
 30
0.0
 10
-13.55452
 20
10.7321
 30
0.0
 10
-13.55452
 20
10.7321
 30
0.0
 10
-13.53946
 20
10.73054
 30
0.0
 10
-13.53946
 20
10.73054
 30
0.0
 10
-13.53946
 20
10.73054
 30
0.0
 10
-13.53946
 20
10.73054
 30
0.0
 10
-13.52957
 20
10.70273
 30
0.0
 10
-13.52957
 20
10.70273
 30
0.0
 10
-13.52957
 20
10.70273
 30
0.0
 10
-13.52957
 20
10.70273
 30
0.0
 10
-13.52102
 20
10.67872
 30
0.0
 10
-13.52102
 20
10.67872
 30
0.0
 10
-13.52102
 20
10.67872
 30
0.0
 10
-13.52102
 20
10.67872
 30
0.0
 10
-13.49036
 20
10.64623
 30
0.0
 10
-13.49036
 20
10.64623
 30
0.0
 10
-13.49036
 20
10.64623
 30
0.0
 10
-13.47723
 20
10.63985
 30
0.0
 10
-13.45562
 20
10.62738
 30
0.0
 10
-13.43746
 20
10.60758
 30
0.0
 10
-13.43746
 20
10.60758
 30
0.0
 10
-13.42849
 20
10.59779
 30
0.0
 10
-13.42242
 20
10.58815
 30
0.0
 10
-13.41594
 20
10.57788
 30
0.0
 10
-13.41594
 20
10.57788
 30
0.0
 10
-13.4068
 20
10.56336
 30
0.0
 10
-13.39624
 20
10.5466
 30
0.0
 10
-13.37851
 20
10.54114
 30
0.0
 10
-13.37851
 20
10.54114
 30
0.0
 10
-13.36015
 20
10.53549
 30
0.0
 10
-13.34641
 20
10.53015
 30
0.0
 10
-13.33398
 20
10.52531
 30
0.0
 10
-13.33398
 20
10.52531
 30
0.0
 10
-13.31592
 20
10.51828
 30
0.0
 10
-13.30133
 20
10.5126
 30
0.0
 10
-13.27587
 20
10.50966
 30
0.0
 10
-13.27587
 20
10.50966
 30
0.0
 10
-13.23994
 20
10.50552
 30
0.0
 10
-13.22342
 20
10.49616
 30
0.0
 10
-13.20569
 20
10.48613
 30
0.0
 10
-13.20569
 20
10.48613
 30
0.0
 10
-13.19775
 20
10.48163
 30
0.0
 10
-13.18937
 20
10.47688
 30
0.0
 10
-13.17547
 20
10.47341
 30
0.0
 10
-13.17547
 20
10.47341
 30
0.0
 10
-13.16766
 20
10.47145
 30
0.0
 10
-13.16092
 20
10.46963
 30
0.0
 10
-13.15438
 20
10.46787
 30
0.0
 10
-13.15438
 20
10.46787
 30
0.0
 10
-13.12496
 20
10.45991
 30
0.0
 10
-13.09998
 20
10.45316
 30
0.0
 10
-13.06138
 20
10.45933
 30
0.0
 10
-13.06138
 20
10.45933
 30
0.0
 10
-13.03756
 20
10.46314
 30
0.0
 10
-13.01984
 20
10.46777
 30
0.0
 10
-13.00492
 20
10.47167
 30
0.0
 10
-13.00492
 20
10.47167
 30
0.0
 10
-12.98204
 20
10.47765
 30
0.0
 10
-12.96436
 20
10.48227
 30
0.0
 10
-12.94067
 20
10.48227
 30
0.0
 10
-12.94067
 20
10.48227
 30
0.0
 10
-12.93528
 20
10.48227
 30
0.0
 10
-12.92757
 20
10.48181
 30
0.0
 10
-12.91909
 20
10.4813
 30
0.0
 10
-12.91909
 20
10.4813
 30
0.0
 10
-12.89088
 20
10.47961
 30
0.0
 10
-12.85034
 20
10.47717
 30
0.0
 10
-12.79603
 20
10.50622
 30
0.0
 10
-12.79603
 20
10.50622
 30
0.0
 10
-12.74155
 20
10.53536
 30
0.0
 10
-12.70627
 20
10.57042
 30
0.0
 10
-12.68205
 20
10.59449
 30
0.0
 10
-12.68205
 20
10.59449
 30
0.0
 10
-12.67319
 20
10.60329
 30
0.0
 10
-12.66559
 20
10.61084
 30
0.0
 10
-12.65824
 20
10.61715
 30
0.0
 10
-12.65824
 20
10.61715
 30
0.0
 10
-12.64885
 20
10.62519
 30
0.0
 10
-12.64038
 20
10.63494
 30
0.0
 10
-12.63346
 20
10.64495
 30
0.0
 10
-12.63346
 20
10.64495
 30
0.0
 10
-12.6264
 20
10.65517
 30
0.0
 10
-12.62128
 20
10.66509
 30
0.0
 10
-12.6188
 20
10.67314
 30
0.0
 10
-12.6188
 20
10.67314
 30
0.0
 10
-12.61836
 20
10.6746
 30
0.0
 10
-12.61722
 20
10.67843
 30
0.0
 10
-12.61606
 20
10.68235
 30
0.0
 10
-12.61606
 20
10.68235
 30
0.0
 10
-12.6075
 20
10.7113
 30
0.0
 10
-12.59805
 20
10.74326
 30
0.0
 10
-12.5721
 20
10.76018
 30
0.0
 10
-12.5721
 20
10.76018
 30
0.0
 10
-12.5721
 20
10.76018
 30
0.0
 10
-12.57231
 20
10.76026
 30
0.0
 10
-12.57231
 20
10.76026
 30
0.0
 10
-12.57231
 20
10.76026
 30
0.0
 10
-12.57232
 20
10.76026
 30
0.0
 10
-12.57233
 20
10.76026
 30
0.0
 10
-12.57232
 20
10.76027
 30
0.0
 10
-12.57232
 20
10.76027
 30
0.0
 10
-12.56953
 20
10.76757
 30
0.0
 10
-12.56785
 20
10.77775
 30
0.0
 10
-12.56714
 20
10.7884
 30
0.0
 10
-12.56714
 20
10.7884
 30
0.0
 10
-12.56686
 20
10.79273
 30
0.0
 10
-12.56623
 20
10.79812
 30
0.0
 10
-12.56556
 20
10.80356
 30
0.0
 10
-12.56556
 20
10.80356
 30
0.0
 10
-12.58597
 20
10.80565
 30
0.0
 10
-12.6142
 20
10.80652
 30
0.0
 10
-12.62361
 20
10.80677
 30
0.0
 10
-12.62361
 20
10.80677
 30
0.0
 10
-12.632
 20
10.80612
 30
0.0
 10
-12.69163
 20
10.80151
 30
0.0
 10
-12.71389
 20
10.79833
 30
0.0
 10
-12.71389
 20
10.79833
 30
0.0
 10
-12.72159
 20
10.79723
 30
0.0
 10
-12.72727
 20
10.79608
 30
0.0
 10
-12.73323
 20
10.79487
 30
0.0
 10
-12.73323
 20
10.79487
 30
0.0
 10
-12.75556
 20
10.79036
 30
0.0
 10
-12.78063
 20
10.78529
 30
0.0
 10
-12.81684
 20
10.78686
 30
0.0
 10
-12.81684
 20
10.78686
 30
0.0
 10
-12.84296
 20
10.78799
 30
0.0
 10
-12.86311
 20
10.79421
 30
0.0
 10
-12.88171
 20
10.79995
 30
0.0
 10
-12.88171
 20
10.79995
 30
0.0
 10
-12.89425
 20
10.80382
 30
0.0
 10
-12.90563
 20
10.80733
 30
0.0
 10
-12.91208
 20
10.80643
 30
0.0
 10
-12.91208
 20
10.80643
 30
0.0
 10
-12.94205
 20
10.80224
 30
0.0
 10
-12.98874
 20
10.80465
 30
0.0
 10
-13.00487
 20
10.80567
 30
0.0
 10
-13.00487
 20
10.80567
 30
0.0
 10
-13.00487
 20
10.80567
 30
0.0
 10
-13.04372
 20
10.79894
 30
0.0
 10
-13.04372
 20
10.79894
 30
0.0
 10
-13.04372
 20
10.79894
 30
0.0
 10
-13.05461
 20
10.79575
 30
0.0
 10
-13.07157
 20
10.79306
 30
0.0
 10
-13.0938
 20
10.79647
 30
0.0
 10
-13.0938
 20
10.79647
 30
0.0
 10
-13.11126
 20
10.79916
 30
0.0
 10
-13.13017
 20
10.80352
 30
0.0
 10
-13.13989
 20
10.80588
 30
0.0
 10
-13.13989
 20
10.80588
 30
0.0
 10
-13.13989
 20
10.80588
 30
0.0
 10
-13.17752
 20
10.80588
 30
0.0
 10
-13.17752
 20
10.80588
 30
0.0
 10
-13.17752
 20
10.80588
 30
0.0
 10
-13.19039
 20
10.80257
 30
0.0
 10
-13.21874
 20
10.79593
 30
0.0
 10
-13.23861
 20
10.79593
 30
0.0
 10
-13.23861
 20
10.79593
 30
0.0
 10
-13.25684
 20
10.79593
 30
0.0
 10
-13.30279
 20
10.80219
 30
0.0
 10
-13.32279
 20
10.80504
 30
0.0
 10
-13.32279
 20
10.80504
 30
0.0
 10
-13.32279
 20
10.80504
 30
0.0
 10
-13.35182
 20
10.79699
 30
0.0
 10
-13.35182
 20
10.79699
 30
0.0
 10
-13.35182
 20
10.79699
 30
0.0
 10
-13.36633
 20
10.79042
 30
0.0
 10
-13.39436
 20
10.78198
 30
0.0
 10
-13.43654
 20
10.78704
 30
0.0
 10
-13.43654
 20
10.78704
 30
0.0
 10
-13.46654
 20
10.79064
 30
0.0
 10
-13.48757
 20
10.79875
 30
0.0
 10
-13.50155
 20
10.80647
 30
0.0
 10
-13.50155
 20
10.80647
 30
0.0
 10
-13.50155
 20
10.80647
 30
0.0
 10
-13.51669
 20
10.80607
 30
0.0
 10
-13.51669
 20
10.80607
 30
0.0
  0
SPLINE
  5
A0
330
1F
100
AcDbEntity
  8
Layer 1
 62
   235
370
    35
100
AcDbSpline
210
0.0
220
0.0
230
1.0
 70
    11
 71
     3
 72
    12
 73
     8
 74
     0
 42
0.0000000001
 43
0.0000000001
 40
0.0
 40
0.0
 40
0.0
 40
0.0
 40
0.5
 40
0.5
 40
0.5
 40
0.5
 40
1.0
 40
1.0
 40
1.0
 40
1.0
 10
-13.60992
 20
10.80686
 30
0.0
 10
-13.60558
 20
10.81035
 30
0.0
 10
-13.60923
 20
10.80839
 30
0.0
 10
-13.61215
 20
10.80753
 30
0.0
 10
-13.61215
 20
10.80753
 30
0.0
 10
-13.61215
 20
10.80753
 30
0.0
 10
-13.60992
 20
10.80686
 30
0.0
 10
-13.60992
 20
10.80686
 30
0.0
  0
SPLINE
  5
A1
330
1F
100
AcDbEntity
  8
Layer 1
 62
   235
370
    35
100
AcDbSpline
210
0.0
220
0.0
230
1.0
 70
    11
 71
     3
 72
    20
 73
    16
 74
     0
 42
0.0000000001
 43
0.0000000001
 40
0.0
 40
0.0
 40
0.0
 40
0.0
 40
0.25
 40
0.25
 40
0.25
 40
0.25
 40
0.5
 40
0.5
 40
0.5
 40
0.5
 40
0.75
 40
0.75
 40
0.75
 40
0.75
 40
1.0
 40
1.0
 40
1.0
 40
1.0
 10
-13.55919
 20
10.73258
 30
0.0
 10
-13.55919
 20
10.73258
 30
0.0
 10
-13.55962
 20
10.73317
 30
0.0
 10
-13.55962
 20
10.73317
 30
0.0
 10
-13.55962
 20
10.73317
 30
0.0
 10
-13.55982
 20
10.73315
 30
0.0
 10
-13.56005
 20
10.73314
 30
0.0
 10
-13.56029
 20
10.73313
 30
0.0
 10
-13.56029
 20
10.73313
 30
0.0
 10
-13.56029
 20
10.73313
 30
0.0
 10
-13.56137
 20
10.73281
 30
0.0
 10
-13.56137
 20
10.73281
 30
0.0
 10
-13.56137
 20
10.73281
 30
0.0
 10
-13.56137
 20
10.73281
 30
0.0
 10
-13.55919
 20
10.73258
 30
0.0
 10
-13.55919
 20
10.73258
 30
0.0
  0
SPLINE
  5
A2
330
1F
100
AcDbEntity
  8
Layer 1
 62
   235
370
    35
100
AcDbSpline
210
0.0
220
0.0
230
1.0
 70
    11
 71
     3
 72
    20
 73
    16
 74
     0
 42
0.0000000001
 43
0.0000000001
 40
0.0
 40
0.0
 40
0.0
 40
0.0
 40
0.25
 40
0.25
 40
0.25
 40
0.25
 40
0.5
 40
0.5
 40
0.5
 40
0.5
 40
0.75
 40
0.75
 40
0.75
 40
0.75
 40
1.0
 40
1.0
 40
1.0
 40
1.0
 10
-13.55806
 20
10.73247
 30
0.0
 10
-13.55859
 20
10.73422
 30
0.0
 10
-13.5591
 20
10.73588
 30
0.0
 10
-13.55845
 20
10.73367
 30
0.0
 10
-13.55845
 20
10.73367
 30
0.0
 10
-13.55837
 20
10.7334
 30
0.0
 10
-13.55884
 20
10.73325
 30
0.0
 10
-13.55962
 20
10.73317
 30
0.0
 10
-13.55962
 20
10.73317
 30
0.0
 10
-13.55962
 20
10.73317
 30
0.0
 10
-13.55919
 20
10.73258
 30
0.0
 10
-13.55919
 20
10.73258
 30
0.0
 10
-13.55919
 20
10.73258
 30
0.0
 10
-13.55919
 20
10.73258
 30
0.0
 10
-13.55806
 20
10.73247
 30
0.0
 10
-13.55806
 20
10.73247
 30
0.0
  0
SPLINE
  5
A3
330
1F
100
AcDbEntity
  8
Layer 1
 62
   235
370
    35
100
AcDbSpline
210
0.0
220
0.0
230
1.0
 70
    11
 71
     3
 72
    16
 73
    12
 74
     0
 42
0.0000000001
 43
0.0000000001
 40
0.0
 40
0.0
 40
0.0
 40
0.0
 40
0.3333333333333333
 40
0.3333333333333333
 40
0.3333333333333333
 40
0.3333333333333333
 40
0.6666666666666666
 40
0.6666666666666666
 40
0.6666666666666666
 40
0.6666666666666666
 40
1.0
 40
1.0
 40
1.0
 40
1.0
 10
-13.56029
 20
10.73313
 30
0.0
 10
-13.56301
 20
10.73301
 30
0.0
 10
-13.56785
 20
10.73348
 30
0.0
 10
-13.56869
 20
10.73357
 30
0.0
 10
-13.56869
 20
10.73357
 30
0.0
 10
-13.56869
 20
10.73357
 30
0.0
 10
-13.56137
 20
10.73281
 30
0.0
 10
-13.56137
 20
10.73281
 30
0.0
 10
-13.56137
 20
10.73281
 30
0.0
 10
-13.56137
 20
10.73281
 30
0.0
 10
-13.56029
 20
10.73313
 30
0.0
 10
-13.56029
 20
10.73313
 30
0.0
  0
SPLINE
  5
A4
330
1F
100
AcDbEntity
  8
Layer 1
 62
   235
370
    35
100
AcDbSpline
210
0.0
220
0.0
230
1.0
 70
    11
 71
     3
 72
    16
 73
    12
 74
     0
 42
0.0000000001
 43
0.0000000001
 40
0.0
 40
0.0
 40
0.0
 40
0.0
 40
0.3333333333333333
 40
0.3333333333333333
 40
0.3333333333333333
 40
0.3333333333333333
 40
0.6666666666666666
 40
0.6666666666666666
 40
0.6666666666666666
 40
0.6666666666666666
 40
1.0
 40
1.0
 40
1.0
 40
1.0
 10
-12.5721
 20
10.76018
 30
0.0
 10
-12.57172
 20
10.76043
 30
0.0
 10
-12.57134
 20
10.76068
 30
0.0
 10
-12.57095
 20
10.76092
 30
0.0
 10
-12.57095
 20
10.76092
 30
0.0
 10
-12.5717
 20
10.76053
 30
0.0
 10
-12.57223
 20
10.76027
 30
0.0
 10
-12.57231
 20
10.76026
 30
0.0
 10
-12.57231
 20
10.76026
 30
0.0
 10
-12.57231
 20
10.76026
 30
0.0
 10
-12.5721
 20
10.76018
 30
0.0
 10
-12.5721
 20
10.76018
 30
0.0
  0
ENDSEC
  0
SECTION
  2
OBJECTS
  0
DICTIONARY
  5
C
330
0
100
AcDbDictionary
281
     1
  3
ACAD_GROUP
350
D
  3
ACAD_LAYOUT
350
1A
  3
ACAD_MLEADERSTYLE
350
A6
  3
ACAD_MLINESTYLE
350
17
  3
ACAD_PLOTSETTINGS
350
19
  3
ACAD_PLOTSTYLENAME
350
E
  3
ACAD_SCALELIST
350
3B
  3
ACAD_TABLESTYLE
350
A5
  3
ACAD_VISUALSTYLE
350
2A
  0
DICTIONARY
  5
D
102
{ACAD_REACTORS
330
C
102
}
330
C
100
AcDbDictionary
281
     1
  0
DICTIONARY
  5
1A
102
{ACAD_REACTORS
330
C
102
}
330
C
100
AcDbDictionary
281
     1
  3
Layout1
350
1E
  3
Layout2
350
26
  3
Model
350
22
  0
DICTIONARY
  5
A6
102
{ACAD_REACTORS
330
C
102
}
330
C
100
AcDbDictionary
281
     1
  0
DICTIONARY
  5
17
102
{ACAD_REACTORS
330
C
102
}
330
C
100
AcDbDictionary
281
     1
  3
Standard
350
18
  0
DICTIONARY
  5
19
102
{ACAD_REACTORS
330
C
102
}
330
C
100
AcDbDictionary
281
     1
  0
ACDBDICTIONARYWDFLT
  5
E
102
{ACAD_REACTORS
330
C
102
}
330
C
100
AcDbDictionary
281
     1
  3
Normal
350
F
100
AcDbDictionaryWithDefault
340
F
  0
DICTIONARY
  5
3B
102
{ACAD_REACTORS
330
C
102
}
330
C
100
AcDbDictionary
281
     1
  3
A0
350
3C
  3
A1
350
3D
  3
A2
350
3E
  3
A3
350
3F
  3
A4
350
40
  3
A5
350
41
  3
A6
350
42
  3
A7
350
43
  3
A8
350
44
  3
A9
350
45
  3
B0
350
46
  3
B1
350
47
  3
B2
350
48
  3
B3
350
49
  3
B4
350
4A
  3
B5
350
4B
  3
B6
350
4C
  3
B7
350
4D
  3
B8
350
4E
  3
B9
350
4F
  3
C0
350
50
  3
C1
350
51
  3
C2
350
52
  3
C3
350
53
  3
C4
350
54
  3
C5
350
55
  3
C6
350
56
  3
C7
350
57
  3
C8
350
58
  3
C9
350
59
  3
D0
350
5A
  3
D1
350
5B
  3
D2
350
5C
  0
DICTIONARY
  5
A5
102
{ACAD_REACTORS
330
C
102
}
330
C
100
AcDbDictionary
281
     1
  0
DICTIONARY
  5
2A
102
{ACAD_REACTORS
330
C
102
}
330
C
100
AcDbDictionary
281
     1
  3
2dWireframe
350
2F
  3
3D Hidden
350
31
  3
3dWireframe
350
30
  3
Basic
350
32
  3
Brighten
350
36
  3
ColorChange
350
3A
  3
Conceptual
350
34
  3
Dim
350
35
  3
Facepattern
350
39
  3
Flat
350
2B
  3
FlatWithEdges
350
2C
  3
Gouraud
350
2D
  3
GouraudWithEdges
350
2E
  3
Linepattern
350
38
  3
Realistic
350
33
  3
Thicken
350
37
  0
LAYOUT
  5
1E
102
{ACAD_REACTORS
330
1A
102
}
330
1A
100
AcDbPlotSettings
  1

  2
none_device
  4

  6

 40
0.0
 41
0.0
 42
0.0
 43
0.0
 44
0.0
 45
0.0
 46
0.0
 47
0.0
 48
0.0
 49
0.0
140
0.0
141
0.0
142
1.0
143
1.0
 70
   688
 72
     0
 73
     0
 74
     5
  7

 75
    16
 76
     0
 77
     2
 78
   300
147
1.0
148
0.0
149
0.0
100
AcDbLayout
  1
Layout1
 70
     1
 71
     1
 10
0.0
 20
0.0
 11
12.0
 21
9.0
 12
0.0
 22
0.0
 32
0.0
 14
1.000000000000000E+20
 24
1.000000000000000E+20
 34
1.000000000000000E+20
 15
-1.000000000000000E+20
 25
-1.000000000000000E+20
 35
-1.000000000000000E+20
146
0.0
 13
0.0
 23
0.0
 33
0.0
 16
1.0
 26
0.0
 36
0.0
 17
0.0
 27
1.0
 37
0.0
 76
     0
330
1B
  0
LAYOUT
  5
26
102
{ACAD_REACTORS
330
1A
102
}
330
1A
100
AcDbPlotSettings
  1

  2
none_device
  4

  6

 40
0.0
 41
0.0
 42
0.0
 43
0.0
 44
0.0
 45
0.0
 46
0.0
 47
0.0
 48
0.0
 49
0.0
140
0.0
141
0.0
142
1.0
143
1.0
 70
   688
 72
     0
 73
     0
 74
     5
  7

 75
    16
 76
     0
 77
     2
 78
   300
147
1.0
148
0.0
149
0.0
100
AcDbLayout
  1
Layout2
 70
     1
 71
     2
 10
0.0
 20
0.0
 11
0.0
 21
0.0
 12
0.0
 22
0.0
 32
0.0
 14
0.0
 24
0.0
 34
0.0
 15
0.0
 25
0.0
 35
0.0
146
0.0
 13
0.0
 23
0.0
 33
0.0
 16
1.0
 26
0.0
 36
0.0
 17
0.0
 27
1.0
 37
0.0
 76
     0
330
23
  0
LAYOUT
  5
22
102
{ACAD_REACTORS
330
1A
102
}
330
1A
100
AcDbPlotSettings
  1

  2
none_device
  4

  6

 40
0.0
 41
0.0
 42
0.0
 43
0.0
 44
0.0
 45
0.0
 46
0.0
 47
0.0
 48
0.0
 49
0.0
140
0.0
141
0.0
142
1.0
143
1.0
 70
  1712
 72
     0
 73
     0
 74
     0
  7

 75
     0
 76
     0
 77
     2
 78
   300
147
1.0
148
0.0
149
0.0
100
AcDbLayout
  1
Model
 70
     1
 71
     0
 10
0.0
 20
0.0
 11
12.0
 21
9.0
 12
0.0
 22
0.0
 32
0.0
 14
-15.27828
 24
-0.27828
 34
0.0
 15
-5.72172
 25
12.27828
 35
0.0
146
0.0
 13
0.0
 23
0.0
 33
0.0
 16
1.0
 26
0.0
 36
0.0
 17
0.0
 27
1.0
 37
0.0
 76
     0
330
1F
331
29
  0
MLINESTYLE
  5
18
102
{ACAD_REACTORS
330
17
102
}
330
17
100
AcDbMlineStyle
  2
Standard
 70
     0
  3

 62
   256
 51
90.0
 52
90.0
 71
     2
 49
0.5
 62
   256
  6
BYLAYER
 49
-0.5
 62
   256
  6
BYLAYER
  0
ACDBPLACEHOLDER
  5
F
102
{ACAD_REACTORS
330
E
102
}
330
E
  0
SCALE
  5
3C
102
{ACAD_REACTORS
330
3B
102
}
330
3B
100
AcDbScale
 70
     0
300
1:1
140
1.0
141
1.0
290
     1
  0
SCALE
  5
3D
102
{ACAD_REACTORS
330
3B
102
}
330
3B
100
AcDbScale
 70
     0
300
1:2
140
1.0
141
2.0
290
     0
  0
SCALE
  5
3E
102
{ACAD_REACTORS
330
3B
102
}
330
3B
100
AcDbScale
 70
     0
300
1:4
140
1.0
141
4.0
290
     0
  0
SCALE
  5
3F
102
{ACAD_REACTORS
330
3B
102
}
330
3B
100
AcDbScale
 70
     0
300
1:5
140
1.0
141
5.0
290
     0
  0
SCALE
  5
40
102
{ACAD_REACTORS
330
3B
102
}
330
3B
100
AcDbScale
 70
     0
300
1:8
140
1.0
141
8.0
290
     0
  0
SCALE
  5
41
102
{ACAD_REACTORS
330
3B
102
}
330
3B
100
AcDbScale
 70
     0
300
1:10
140
1.0
141
10.0
290
     0
  0
SCALE
  5
42
102
{ACAD_REACTORS
330
3B
102
}
330
3B
100
AcDbScale
 70
     0
300
1:16
140
1.0
141
16.0
290
     0
  0
SCALE
  5
43
102
{ACAD_REACTORS
330
3B
102
}
330
3B
100
AcDbScale
 70
     0
300
1:20
140
1.0
141
20.0
290
     0
  0
SCALE
  5
44
102
{ACAD_REACTORS
330
3B
102
}
330
3B
100
AcDbScale
 70
     0
300
1:30
140
1.0
141
30.0
290
     0
  0
SCALE
  5
45
102
{ACAD_REACTORS
330
3B
102
}
330
3B
100
AcDbScale
 70
     0
300
1:40
140
1.0
141
40.0
290
     0
  0
SCALE
  5
46
102
{ACAD_REACTORS
330
3B
102
}
330
3B
100
AcDbScale
 70
     0
300
1:50
140
1.0
141
50.0
290
     0
  0
SCALE
  5
47
102
{ACAD_REACTORS
330
3B
102
}
330
3B
100
AcDbScale
 70
     0
300
1:100
140
1.0
141
100.0
290
     0
  0
SCALE
  5
48
102
{ACAD_REACTORS
330
3B
102
}
330
3B
100
AcDbScale
 70
     0
300
2:1
140
2.0
141
1.0
290
     0
  0
SCALE
  5
49
102
{ACAD_REACTORS
330
3B
102
}
330
3B
100
AcDbScale
 70
     0
300
4:1
140
4.0
141
1.0
290
     0
  0
SCALE
  5
4A
102
{ACAD_REACTORS
330
3B
102
}
330
3B
100
AcDbScale
 70
     0
300
8:1
140
8.0
141
1.0
290
     0
  0
SCALE
  5
4B
102
{ACAD_REACTORS
330
3B
102
}
330
3B
100
AcDbScale
 70
     0
300
10:1
140
10.0
141
1.0
290
     0
  0
SCALE
  5
4C
102
{ACAD_REACTORS
330
3B
102
}
330
3B
100
AcDbScale
 70
     0
300
100:1
140
100.0
141
1.0
290
     0
  0
SCALE
  5
4D
102
{ACAD_REACTORS
330
3B
102
}
330
3B
100
AcDbScale
 70
     0
300
1/128" = 1'-0"
140
0.0078125
141
12.0
290
     0
  0
SCALE
  5
4E
102
{ACAD_REACTORS
330
3B
102
}
330
3B
100
AcDbScale
 70
     0
300
1/64" = 1'-0"
140
0.015625
141
12.0
290
     0
  0
SCALE
  5
4F
102
{ACAD_REACTORS
330
3B
102
}
330
3B
100
AcDbScale
 70
     0
300
1/32" = 1'-0"
140
0.03125
141
12.0
290
     0
  0
SCALE
  5
50
102
{ACAD_REACTORS
330
3B
102
}
330
3B
100
AcDbScale
 70
     0
300
1/16" = 1'-0"
140
0.0625
141
12.0
290
     0
  0
SCALE
  5
51
102
{ACAD_REACTORS
330
3B
102
}
330
3B
100
AcDbScale
 70
     0
300
3/32" = 1'-0"
140
0.09375
141
12.0
290
     0
  0
SCALE
  5
52
102
{ACAD_REACTORS
330
3B
102
}
330
3B
100
AcDbScale
 70
     0
300
1/8" = 1'-0"
140
0.125
141
12.0
290
     0
  0
SCALE
  5
53
102
{ACAD_REACTORS
330
3B
102
}
330
3B
100
AcDbScale
 70
     0
300
3/16" = 1'-0"
140
0.1875
141
12.0
290
     0
  0
SCALE
  5
54
102
{ACAD_REACTORS
330
3B
102
}
330
3B
100
AcDbScale
 70
     0
300
1/4" = 1'-0"
140
0.25
141
12.0
290
     0
  0
SCALE
  5
55
102
{ACAD_REACTORS
330
3B
102
}
330
3B
100
AcDbScale
 70
     0
300
3/8" = 1'-0"
140
0.375
141
12.0
290
     0
  0
SCALE
  5
56
102
{ACAD_REACTORS
330
3B
102
}
330
3B
100
AcDbScale
 70
     0
300
1/2" = 1'-0"
140
0.5
141
12.0
290
     0
  0
SCALE
  5
57
102
{ACAD_REACTORS
330
3B
102
}
330
3B
100
AcDbScale
 70
     0
300
3/4" = 1'-0"
140
0.75
141
12.0
290
     0
  0
SCALE
  5
58
102
{ACAD_REACTORS
330
3B
102
}
330
3B
100
AcDbScale
 70
     0
300
1" = 1'-0"
140
1.0
141
12.0
290
     0
  0
SCALE
  5
59
102
{ACAD_REACTORS
330
3B
102
}
330
3B
100
AcDbScale
 70
     0
300
1-1/2" = 1'-0"
140
1.5
141
12.0
290
     0
  0
SCALE
  5
5A
102
{ACAD_REACTORS
330
3B
102
}
330
3B
100
AcDbScale
 70
     0
300
3" = 1'-0"
140
3.0
141
12.0
290
     0
  0
SCALE
  5
5B
102
{ACAD_REACTORS
330
3B
102
}
330
3B
100
AcDbScale
 70
     0
300
6" = 1'-0"
140
6.0
141
12.0
290
     0
  0
SCALE
  5
5C
102
{ACAD_REACTORS
330
3B
102
}
330
3B
100
AcDbScale
 70
     0
300
1'-0" = 1'-0"
140
12.0
141
12.0
290
     0
  0
VISUALSTYLE
  5
2F
102
{ACAD_REACTORS
330
2A
102
}
330
2A
100
AcDbVisualStyle
  2
2dWireframe
 70
     4
 71
     0
 72
     2
 73
     0
 90
        0
 40
-0.6
 41
-30.0
 62
     5
 63
     7
421
 16777215
 74
     1
 91
        4
 64
     7
 65
   257
 75
     1
175
     1
 42
1.0
 92
        0
 66
   257
 43
1.0
 76
     1
 77
     6
 78
     2
 67
     7
 79
     5
170
     0
171
     0
290
     0
174
     0
 93
        1
 44
0.0
173
     0
291
     0
 45
0.0
  0
VISUALSTYLE
  5
31
102
{ACAD_REACTORS
330
2A
102
}
330
2A
100
AcDbVisualStyle
  2
3D Hidden
 70
     6
 71
     1
 72
     2
 73
     2
 90
        0
 40
-0.6
 41
-30.0
 62
     5
 63
     7
421
 16777215
 74
     2
 91
        2
 64
     7
 65
   257
 75
     2
175
     1
 42
40.0
 92
        0
 66
   257
 43
1.0
 76
     1
 77
     6
 78
     2
 67
     7
 79
     3
170
     0
171
     0
290
     0
174
     0
 93
        1
 44
0.0
173
     0
291
     0
 45
0.0
  0
VISUALSTYLE
  5
30
102
{ACAD_REACTORS
330
2A
102
}
330
2A
100
AcDbVisualStyle
  2
3dWireframe
 70
     5
 71
     0
 72
     2
 73
     0
 90
        0
 40
-0.6
 41
-30.0
 62
     5
 63
     7
421
 16777215
 74
     1
 91
        4
 64
     7
 65
   257
 75
     1
175
     1
 42
1.0
 92
        0
 66
   257
 43
1.0
 76
     1
 77
     6
 78
     2
 67
     7
 79
     5
170
     0
171
     0
290
     0
174
     0
 93
        1
 44
0.0
173
     0
291
     0
 45
0.0
  0
VISUALSTYLE
  5
32
102
{ACAD_REACTORS
330
2A
102
}
330
2A
100
AcDbVisualStyle
  2
Basic
 70
     7
 71
     1
 72
     0
 73
     1
 90
        0
 40
-0.6
 41
-30.0
 62
     5
 63
     7
421
 16777215
 74
     0
 91
        4
 64
     7
 65
   257
 75
     1
175
     1
 42
1.0
 92
        8
 66
     7
 43
1.0
 76
     1
 77
     6
 78
     2
 67
     7
 79
     5
170
     0
171
     0
290
     0
174
     0
 93
        1
 44
0.0
173
     0
291
     1
 45
0.0
  0
VISUALSTYLE
  5
36
102
{ACAD_REACTORS
330
2A
102
}
330
2A
100
AcDbVisualStyle
  2
Brighten
 70
    12
 71
     2
 72
     2
 73
     0
 90
        0
 40
-0.6
 41
-30.0
 62
     5
 63
     7
421
 16777215
 74
     1
 91
        4
 64
     7
 65
   257
 75
     1
175
     1
 42
1.0
 92
        8
 66
     7
 43
1.0
 76
     1
 77
     6
 78
     2
 67
     7
 79
     5
170
     0
171
     0
290
     0
174
     0
 93
        1
 44
50.0
173
     0
291
     1
 45
0.0
  0
VISUALSTYLE
  5
3A
102
{ACAD_REACTORS
330
2A
102
}
330
2A
100
AcDbVisualStyle
  2
ColorChange
 70
    16
 71
     2
 72
     2
 73
     3
 90
        0
 40
-0.6
 41
-30.0
 62
     5
 63
     8
421
  8421504
 74
     1
 91
        4
 64
     7
 65
   257
 75
     1
175
     1
 42
1.0
 92
        8
 66
     8
424
  8421504
 43
1.0
 76
     1
 77
     6
 78
     2
 67
     7
 79
     5
170
     0
171
     0
290
     0
174
     0
 93
        1
 44
0.0
173
     0
291
     1
 45
0.0
  0
VISUALSTYLE
  5
34
102
{ACAD_REACTORS
330
2A
102
}
330
2A
100
AcDbVisualStyle
  2
Conceptual
 70
     9
 71
     3
 72
     2
 73
     0
 90
        0
 40
-0.6
 41
-30.0
 62
     5
 63
     7
421
 16777215
 74
     2
 91
        2
 64
     7
 65
   257
 75
     1
175
     1
 42
40.0
 92
        8
 66
     7
 43
1.0
 76
     1
 77
     6
 78
     2
 67
     7
 79
     3
170
     0
171
     0
290
     0
174
     0
 93
        1
 44
0.0
173
     0
291
     0
 45
0.0
  0
VISUALSTYLE
  5
35
102
{ACAD_REACTORS
330
2A
102
}
330
2A
100
AcDbVisualStyle
  2
Dim
 70
    11
 71
     2
 72
     2
 73
     0
 90
        0
 40
-0.6
 41
-30.0
 62
     5
 63
     7
421
 16777215
 74
     1
 91
        4
 64
     7
 65
   257
 75
     1
175
     1
 42
1.0
 92
        8
 66
     7
 43
1.0
 76
     1
 77
     6
 78
     2
 67
     7
 79
     5
170
     0
171
     0
290
     0
174
     0
 93
        1
 44
-50.0
173
     0
291
     1
 45
0.0
  0
VISUALSTYLE
  5
39
102
{ACAD_REACTORS
330
2A
102
}
330
2A
100
AcDbVisualStyle
  2
Facepattern
 70
    15
 71
     2
 72
     2
 73
     0
 90
        0
 40
-0.6
 41
-30.0
 62
     5
 63
     7
421
 16777215
 74
     1
 91
        4
 64
     7
 65
   257
 75
     1
175
     1
 42
1.0
 92
        8
 66
     7
 43
1.0
 76
     1
 77
     6
 78
     2
 67
     7
 79
     5
170
     0
171
     0
290
     0
174
     0
 93
        1
 44
0.0
173
     0
291
     1
 45
0.0
  0
VISUALSTYLE
  5
2B
102
{ACAD_REACTORS
330
2A
102
}
330
2A
100
AcDbVisualStyle
  2
Flat
 70
     0
 71
     2
 72
     1
 73
     1
 90
        2
 40
-0.6
 41
30.0
 62
     5
 63
     7
421
 16777215
 74
     0
 91
        4
 64
     7
 65
   257
 75
     1
175
     1
 42
1.0
 92
        8
 66
     7
 43
1.0
 76
     1
 77
     6
 78
     2
 67
     7
 79
     5
170
     0
171
     0
290
     0
174
     0
 93
       13
 44
0.0
173
     0
291
     1
 45
0.0
  0
VISUALSTYLE
  5
2C
102
{ACAD_REACTORS
330
2A
102
}
330
2A
100
AcDbVisualStyle
  2
FlatWithEdges
 70
     1
 71
     2
 72
     1
 73
     1
 90
        2
 40
-0.6
 41
30.0
 62
     5
 63
     7
421
 16777215
 74
     1
 91
        4
 64
     7
 65
   257
 75
     1
175
     1
 42
1.0
 92
        0
 66
   257
 43
1.0
 76
     1
 77
     6
 78
     2
 67
     7
 79
     5
170
     0
171
     0
290
     0
174
     0
 93
       13
 44
0.0
173
     0
291
     1
 45
0.0
  0
VISUALSTYLE
  5
2D
102
{ACAD_REACTORS
330
2A
102
}
330
2A
100
AcDbVisualStyle
  2
Gouraud
 70
     2
 71
     2
 72
     2
 73
     1
 90
        2
 40
-0.6
 41
30.0
 62
     5
 63
     7
421
 16777215
 74
     0
 91
        4
 64
     7
 65
   257
 75
     1
175
     1
 42
1.0
 92
        0
 66
     7
 43
1.0
 76
     1
 77
     6
 78
     2
 67
     7
 79
     5
170
     0
171
     0
290
     0
174
     0
 93
       13
 44
0.0
173
     0
291
     1
 45
0.0
  0
VISUALSTYLE
  5
2E
102
{ACAD_REACTORS
330
2A
102
}
330
2A
100
AcDbVisualStyle
  2
GouraudWithEdges
 70
     3
 71
     2
 72
     2
 73
     1
 90
        2
 40
-0.6
 41
30.0
 62
     5
 63
     7
421
 16777215
 74
     1
 91
        4
 64
     7
 65
   257
 75
     1
175
     1
 42
1.0
 92
        0
 66
   257
 43
1.0
 76
     1
 77
     6
 78
     2
 67
     7
 79
     5
170
     0
171
     0
290
     0
174
     0
 93
       13
 44
0.0
173
     0
291
     1
 45
0.0
  0
VISUALSTYLE
  5
38
102
{ACAD_REACTORS
330
2A
102
}
330
2A
100
AcDbVisualStyle
  2
Linepattern
 70
    14
 71
     2
 72
     2
 73
     0
 90
        0
 40
-0.6
 41
-30.0
 62
     5
 63
     7
421
 16777215
 74
     1
 91
        4
 64
     7
 65
   257
 75
     7
175
     7
 42
1.0
 92
        8
 66
     7
 43
1.0
 76
     1
 77
     6
 78
     2
 67
     7
 79
     5
170
     0
171
     0
290
     0
174
     0
 93
        1
 44
0.0
173
     0
291
     1
 45
0.0
  0
VISUALSTYLE
  5
33
102
{ACAD_REACTORS
330
2A
102
}
330
2A
100
AcDbVisualStyle
  2
Realistic
 70
     8
 71
     2
 72
     2
 73
     0
 90
        0
 40
-0.6
 41
-30.0
 62
     5
 63
     7
421
 16777215
 74
     1
 91
        0
 64
     7
 65
   257
 75
     1
175
     1
 42
1.0
 92
        8
 66
     8
424
  7895160
 43
1.0
 76
     1
 77
     6
 78
     2
 67
     7
 79
     5
170
     0
171
     0
290
     0
174
     0
 93
       13
 44
0.0
173
     0
291
     0
 45
0.0
  0
VISUALSTYLE
  5
37
102
{ACAD_REACTORS
330
2A
102
}
330
2A
100
AcDbVisualStyle
  2
Thicken
 70
    13
 71
     2
 72
     2
 73
     0
 90
        0
 40
-0.6
 41
-30.0
 62
     5
 63
     7
421
 16777215
 74
     1
 91
        4
 64
     7
 65
   257
 75
     1
175
     1
 42
1.0
 92
       12
 66
     7
 43
1.0
 76
     1
 77
     6
 78
     2
 67
     7
 79
     5
170
     0
171
     0
290
     0
174
     0
 93
        1
 44
0.0
173
     0
291
     1
 45
0.0
  0
ENDSEC
  0
EOF
